<svg width="22" height="24" viewBox="0 0 22 24" fill="none" xmlns="http://www.w3.org/2000/svg">
<path d="M10.8643 13.3333C14.6993 13.3333 17.3828 8.1422 17.3828 5.33332C17.3828 3.91884 16.696 2.56228 15.4735 1.56209C14.2511 0.561902 12.5931 0 10.8643 0C9.13545 0 7.47744 0.561902 6.25498 1.56209C5.03253 2.56228 4.34576 3.91884 4.34576 5.33332C4.34576 8.1422 7.02921 13.3333 10.8643 13.3333ZM10.8643 1.77777C12.0168 1.77777 13.1221 2.15237 13.9371 2.81917C14.7521 3.48596 15.2099 4.39033 15.2099 5.33332C15.2099 7.51109 12.9719 11.5555 10.8643 11.5555C8.75661 11.5555 6.51859 7.51109 6.51859 5.33332C6.51859 4.39033 6.97644 3.48596 7.79141 2.81917C8.60638 2.15237 9.71172 1.77777 10.8643 1.77777V1.77777ZM14.1235 5.33332C14.1235 4.8059 13.9324 4.29033 13.5742 3.8518C13.2161 3.41327 12.7071 3.07148 12.1115 2.86965C11.516 2.66781 10.8606 2.61501 10.2284 2.7179C9.59618 2.82079 9.01544 3.07477 8.55962 3.44771C8.10381 3.82065 7.79339 4.2958 7.66763 4.81308C7.54188 5.33036 7.60642 5.86654 7.8531 6.35381C8.09979 6.84107 8.51754 7.25755 9.05352 7.55057C9.5895 7.84358 10.2196 7.99998 10.8643 7.99998C11.7287 7.99998 12.5577 7.71903 13.1689 7.21893C13.7801 6.71884 14.1235 6.04056 14.1235 5.33332ZM9.77784 5.33332C9.77784 5.15751 9.84156 4.98566 9.96094 4.83948C10.0803 4.6933 10.25 4.57937 10.4485 4.5121C10.647 4.44482 10.8655 4.42721 11.0762 4.46151C11.287 4.49581 11.4805 4.58047 11.6325 4.70478C11.7844 4.8291 11.8879 4.98748 11.9298 5.15991C11.9717 5.33233 11.9502 5.51106 11.868 5.67348C11.7857 5.83591 11.6465 5.97473 11.4678 6.0724C11.2892 6.17007 11.0791 6.22221 10.8643 6.22221C10.5761 6.22221 10.2998 6.12856 10.096 5.96186C9.8923 5.79516 9.77784 5.56907 9.77784 5.33332ZM21.3482 14.4355C21.2285 14.3511 21.0877 14.2891 20.9358 14.2538C20.7838 14.2185 20.6242 14.2107 20.4682 14.2311L14.1235 15.1111L7.77884 14.2222C7.721 14.2181 7.66284 14.2181 7.60501 14.2222C7.54718 14.2181 7.48901 14.2181 7.43118 14.2222L0.91268 15.1111C0.655607 15.1451 0.422046 15.2536 0.254542 15.4168C0.0870389 15.5799 -0.00326151 15.7869 9.00522e-05 16V23.1111C7.97282e-05 23.2394 0.0340639 23.3663 0.0997047 23.4829C0.165346 23.5996 0.261085 23.7032 0.380336 23.7866C0.577131 23.9243 0.827565 24 1.08651 23.9999H1.26033L7.60501 23.1111L13.9497 23.9999H14.2973L20.8158 23.1111C21.0729 23.077 21.3065 22.9685 21.474 22.8053C21.6415 22.6422 21.7318 22.4352 21.7284 22.2222V15.1111C21.7284 14.9827 21.6945 14.8558 21.6288 14.7392C21.5632 14.6226 21.4674 14.519 21.3482 14.4355V14.4355ZM2.17292 16.7555L6.51859 16.16V21.4933L2.17292 22.0888V16.7555ZM8.69143 16.16L13.0371 16.7555V22.0888L8.69143 21.4933V16.16ZM19.5556 21.4933L15.2099 22.0888V16.7555L19.5556 16.16V21.4933Z" fill="#C88719"/>
</svg>
