<svg width="24" height="48" viewBox="0 0 24 48" fill="none" xmlns="http://www.w3.org/2000/svg">
<path d="M20.0989 47.3333C19.6009 47.335 19.1089 47.2251 18.659 47.0117C18.209 46.7983 17.8126 46.4867 17.4989 46.1L1.39892 26.1C0.908646 25.5035 0.640625 24.7554 0.640625 23.9833C0.640625 23.2112 0.908646 22.4631 1.39892 21.8667L18.0656 1.86665C18.6314 1.18593 19.4444 0.757846 20.3258 0.676581C21.2073 0.595315 22.0849 0.867521 22.7656 1.43332C23.4463 1.99911 23.8744 2.81215 23.9557 3.69357C24.0369 4.57499 23.7647 5.45259 23.1989 6.13332L8.29892 24L22.6989 41.8667C23.1065 42.3559 23.3654 42.9517 23.445 43.5836C23.5246 44.2154 23.4216 44.8568 23.1481 45.4319C22.8746 46.007 22.442 46.4917 21.9017 46.8287C21.3613 47.1656 20.7357 47.3408 20.0989 47.3333Z" fill="#424242"/>
</svg>
