<svg width="48" height="48" viewBox="0 0 48 48" fill="none" xmlns="http://www.w3.org/2000/svg">
<g clip-path="url(#clip0_763_2095)">
<path d="M26 26C27.862 26 29.43 27.274 29.874 29H27.5C27.156 29 26.826 29.05 26.512 29.14C26.4097 29.079 26.2972 29.037 26.18 29.016L26 29L8 28.998L7.8 29.018C7.60804 29.058 7.43167 29.1524 7.292 29.29C7.15436 29.4289 7.05989 29.6046 7.02 29.796L7 29.998V33C7 35.018 7.9 36.444 9.834 37.484C11.486 38.374 13.84 38.912 16.366 38.99L17 39L17.634 38.99C20.078 38.916 22.358 38.41 24 37.57C24.02 38.522 24.418 39.38 25.05 40C24.86 40.188 24.69 40.396 24.546 40.624C22.186 41.624 19.418 42 17 42C11.556 42 4.33 40.088 4.01 33.46L4 33V29.998C4 27.89 5.632 26.162 7.7 26.008L8 26H26ZM31.898 29C31.7326 28.0209 31.3234 27.0993 30.708 26.32L30.44 26H40C41.972 26 43.612 27.43 43.94 29.31C43.5 29.11 43.014 29 42.5 29H31.898ZM42.5 31C42.8978 31 43.2794 31.158 43.5607 31.4393C43.842 31.7206 44 32.1022 44 32.5C44 32.8978 43.842 33.2794 43.5607 33.5607C43.2794 33.842 42.8978 34 42.5 34H27.5C27.1022 34 26.7206 33.842 26.4393 33.5607C26.158 33.2794 26 32.8978 26 32.5C26 32.1022 26.158 31.7206 26.4393 31.4393C26.7206 31.158 27.1022 31 27.5 31H42.5ZM42.5 36C42.8978 36 43.2794 36.158 43.5607 36.4393C43.842 36.7206 44 37.1022 44 37.5C44 37.8978 43.842 38.2794 43.5607 38.5607C43.2794 38.842 42.8978 39 42.5 39H27.5C27.1022 39 26.7206 38.842 26.4393 38.5607C26.158 38.2794 26 37.8978 26 37.5C26 37.1022 26.158 36.7206 26.4393 36.4393C26.7206 36.158 27.1022 36 27.5 36H42.5ZM17 4C18.1819 4 19.3522 4.23279 20.4442 4.68508C21.5361 5.13738 22.5282 5.80031 23.364 6.63604C24.1997 7.47177 24.8626 8.46392 25.3149 9.55585C25.7672 10.6478 26 11.8181 26 13C26 14.1819 25.7672 15.3522 25.3149 16.4442C24.8626 17.5361 24.1997 18.5282 23.364 19.364C22.5282 20.1997 21.5361 20.8626 20.4442 21.3149C19.3522 21.7672 18.1819 22 17 22C14.6131 22 12.3239 21.0518 10.636 19.364C8.94821 17.6761 8 15.3869 8 13C8 10.6131 8.94821 8.32387 10.636 6.63604C12.3239 4.94821 14.6131 4 17 4V4ZM17 7C13.692 7 11 9.692 11 13C11 16.308 13.692 19 17 19C20.308 19 23 16.308 23 13C23 9.692 20.308 7 17 7ZM35 8C36.8565 8 38.637 8.7375 39.9497 10.0503C41.2625 11.363 42 13.1435 42 15C42 16.8565 41.2625 18.637 39.9497 19.9497C38.637 21.2625 36.8565 22 35 22C33.1435 22 31.363 21.2625 30.0503 19.9497C28.7375 18.637 28 16.8565 28 15C28 13.1435 28.7375 11.363 30.0503 10.0503C31.363 8.7375 33.1435 8 35 8V8ZM35 11C32.794 11 31 12.794 31 15C31 17.206 32.794 19 35 19C37.206 19 39 17.206 39 15C39 12.794 37.206 11 35 11ZM26 42.5C26 42.1022 26.158 41.7206 26.4393 41.4393C26.7206 41.158 27.1022 41 27.5 41H42.5C42.8978 41 43.2794 41.158 43.5607 41.4393C43.842 41.7206 44 42.1022 44 42.5C44 42.8978 43.842 43.2794 43.5607 43.5607C43.2794 43.842 42.8978 44 42.5 44H27.5C27.1022 44 26.7206 43.842 26.4393 43.5607C26.158 43.2794 26 42.8978 26 42.5Z" fill="#424242"/>
</g>
<defs>
<clipPath id="clip0_763_2095">
<rect width="48" height="48" fill="white"/>
</clipPath>
</defs>
</svg>
