<svg width="24" height="24" viewBox="0 0 24 24" fill="none" xmlns="http://www.w3.org/2000/svg">
<g clip-path="url(#clip0_1033_842)">
<mask id="path-1-outside-1_1033_842" maskUnits="userSpaceOnUse" x="-1" y="3" width="26" height="19" fill="black">
<rect fill="white" x="-1" y="3" width="26" height="19"/>
<path d="M23.9737 11.8981C23.9737 11.8448 23.9471 11.8182 23.9471 11.7916C23.9205 11.765 23.9205 11.7383 23.8938 11.7117L23.8672 11.6851H23.8406L18.7528 8.75474C18.6729 8.70141 18.5662 8.70141 18.4863 8.75474L17.2346 9.5006V7.15642C17.2346 7.07652 17.1812 6.96986 17.1013 6.94329L12.12 4.04C12.0401 3.98667 11.9335 3.98667 11.8536 4.04L6.92558 6.91674H6.89901L6.87244 6.94332C6.84587 6.96989 6.81911 6.99664 6.81911 6.99664C6.79254 7.02322 6.79254 7.04997 6.79254 7.07654V7.10311V7.12969V9.527L5.43406 8.7546C5.35416 8.70127 5.2475 8.70127 5.1676 8.7546L0.13304 11.6585H0.10647L0.0798988 11.685C0.053328 11.7116 0.026571 11.7384 0.026571 11.7649C0.026571 11.7915 0 11.7915 0 11.8183V11.8982V17.6786C0 17.7585 0.0533283 17.8651 0.133228 17.8917L5.16779 20.822H5.19436H5.22093C5.2475 20.822 5.27426 20.8485 5.30083 20.8485C5.3274 20.8485 5.35416 20.8485 5.38073 20.822H5.4073H5.43387L10.4684 17.8118C10.5483 17.7585 10.6017 17.6786 10.6017 17.5987V15.3612L11.8536 16.0804H11.8802H11.9068C11.9334 16.0804 11.9601 16.107 11.9867 16.107C12.0133 16.107 12.04 16.107 12.0666 16.0804H12.0932H12.1197L13.3717 15.3612V17.7054C13.3717 17.8118 13.425 17.8919 13.5049 17.9185L18.646 20.8487H18.6726H18.6992C18.7258 20.8487 18.7525 20.8753 18.7791 20.8753C18.8057 20.8753 18.8324 20.8753 18.859 20.8487H18.8856H18.9121L23.8668 17.9185C23.9467 17.8652 24 17.7853 24 17.7054L23.9737 11.8981ZM18.6195 9.28762L23.2012 11.8981L18.7527 14.4554L14.1176 11.8713L18.6195 9.28762ZM11.9866 4.57266L16.4617 7.18313L11.9333 9.74046L7.53815 7.15659L11.9866 4.57266ZM5.30052 9.28762L9.80237 11.8715L5.30052 14.482L0.771938 11.8713L5.30052 9.28762ZM0.53234 12.3243L5.03419 14.9348V20.1292L0.53234 17.5187V12.3243ZM5.54026 20.1292V14.9348L10.0421 12.3244V17.4122L5.54026 20.1292ZM10.5748 11.8715C10.5748 11.8182 10.5483 11.7916 10.5483 11.765C10.5217 11.7384 10.5217 11.7117 10.4949 11.6851L10.4684 11.6586H10.4418L7.29861 9.84727V7.60973L11.6938 10.1936V15.3614L10.575 14.722L10.5748 11.8715ZM12.2263 15.3612V10.1934L16.7016 7.63612V9.79374L13.4518 11.6583L13.3986 11.7115C13.3721 11.7381 13.3453 11.7648 13.3453 11.7914V11.818V11.8445V11.8979V14.7482L12.2263 15.3612ZM13.8512 12.3245L18.4863 14.9084V20.156L13.8512 17.519V12.3245ZM19.019 20.1294V14.9084L23.4409 12.3512V17.4923L19.019 20.1294ZM3.56901 15.894C3.51568 15.9739 3.43578 16.0272 3.35588 16.0272C3.30256 16.0272 3.27599 16.0272 3.22266 16.0007L2.05054 15.3347C1.91731 15.2548 1.89074 15.095 1.94407 14.9884C2.02397 14.8551 2.18377 14.8286 2.29042 14.8819L3.46254 15.5478C3.59576 15.6276 3.64891 15.7874 3.56901 15.894L3.56901 15.894ZM17.0478 15.9206C16.9945 16.0005 16.9146 16.0538 16.8347 16.0538C16.7813 16.0538 16.7548 16.0538 16.7014 16.0272L15.5293 15.3613C15.3961 15.2814 15.3695 15.1216 15.4228 15.0149C15.5027 14.8817 15.6625 14.8551 15.7692 14.9085L16.9413 15.5744C17.1011 15.6276 17.1277 15.7874 17.0478 15.9206H17.0478Z"/>
</mask>
<path d="M23.9737 11.8981C23.9737 11.8448 23.9471 11.8182 23.9471 11.7916C23.9205 11.765 23.9205 11.7383 23.8938 11.7117L23.8672 11.6851H23.8406L18.7528 8.75474C18.6729 8.70141 18.5662 8.70141 18.4863 8.75474L17.2346 9.5006V7.15642C17.2346 7.07652 17.1812 6.96986 17.1013 6.94329L12.12 4.04C12.0401 3.98667 11.9335 3.98667 11.8536 4.04L6.92558 6.91674H6.89901L6.87244 6.94332C6.84587 6.96989 6.81911 6.99664 6.81911 6.99664C6.79254 7.02322 6.79254 7.04997 6.79254 7.07654V7.10311V7.12969V9.527L5.43406 8.7546C5.35416 8.70127 5.2475 8.70127 5.1676 8.7546L0.13304 11.6585H0.10647L0.0798988 11.685C0.053328 11.7116 0.026571 11.7384 0.026571 11.7649C0.026571 11.7915 0 11.7915 0 11.8183V11.8982V17.6786C0 17.7585 0.0533283 17.8651 0.133228 17.8917L5.16779 20.822H5.19436H5.22093C5.2475 20.822 5.27426 20.8485 5.30083 20.8485C5.3274 20.8485 5.35416 20.8485 5.38073 20.822H5.4073H5.43387L10.4684 17.8118C10.5483 17.7585 10.6017 17.6786 10.6017 17.5987V15.3612L11.8536 16.0804H11.8802H11.9068C11.9334 16.0804 11.9601 16.107 11.9867 16.107C12.0133 16.107 12.04 16.107 12.0666 16.0804H12.0932H12.1197L13.3717 15.3612V17.7054C13.3717 17.8118 13.425 17.8919 13.5049 17.9185L18.646 20.8487H18.6726H18.6992C18.7258 20.8487 18.7525 20.8753 18.7791 20.8753C18.8057 20.8753 18.8324 20.8753 18.859 20.8487H18.8856H18.9121L23.8668 17.9185C23.9467 17.8652 24 17.7853 24 17.7054L23.9737 11.8981ZM18.6195 9.28762L23.2012 11.8981L18.7527 14.4554L14.1176 11.8713L18.6195 9.28762ZM11.9866 4.57266L16.4617 7.18313L11.9333 9.74046L7.53815 7.15659L11.9866 4.57266ZM5.30052 9.28762L9.80237 11.8715L5.30052 14.482L0.771938 11.8713L5.30052 9.28762ZM0.53234 12.3243L5.03419 14.9348V20.1292L0.53234 17.5187V12.3243ZM5.54026 20.1292V14.9348L10.0421 12.3244V17.4122L5.54026 20.1292ZM10.5748 11.8715C10.5748 11.8182 10.5483 11.7916 10.5483 11.765C10.5217 11.7384 10.5217 11.7117 10.4949 11.6851L10.4684 11.6586H10.4418L7.29861 9.84727V7.60973L11.6938 10.1936V15.3614L10.575 14.722L10.5748 11.8715ZM12.2263 15.3612V10.1934L16.7016 7.63612V9.79374L13.4518 11.6583L13.3986 11.7115C13.3721 11.7381 13.3453 11.7648 13.3453 11.7914V11.818V11.8445V11.8979V14.7482L12.2263 15.3612ZM13.8512 12.3245L18.4863 14.9084V20.156L13.8512 17.519V12.3245ZM19.019 20.1294V14.9084L23.4409 12.3512V17.4923L19.019 20.1294ZM3.56901 15.894C3.51568 15.9739 3.43578 16.0272 3.35588 16.0272C3.30256 16.0272 3.27599 16.0272 3.22266 16.0007L2.05054 15.3347C1.91731 15.2548 1.89074 15.095 1.94407 14.9884C2.02397 14.8551 2.18377 14.8286 2.29042 14.8819L3.46254 15.5478C3.59576 15.6276 3.64891 15.7874 3.56901 15.894L3.56901 15.894ZM17.0478 15.9206C16.9945 16.0005 16.9146 16.0538 16.8347 16.0538C16.7813 16.0538 16.7548 16.0538 16.7014 16.0272L15.5293 15.3613C15.3961 15.2814 15.3695 15.1216 15.4228 15.0149C15.5027 14.8817 15.6625 14.8551 15.7692 14.9085L16.9413 15.5744C17.1011 15.6276 17.1277 15.7874 17.0478 15.9206H17.0478Z" fill="#C88719"/>
<path d="M23.9737 11.8981C23.9737 11.8448 23.9471 11.8182 23.9471 11.7916C23.9205 11.765 23.9205 11.7383 23.8938 11.7117L23.8672 11.6851H23.8406L18.7528 8.75474C18.6729 8.70141 18.5662 8.70141 18.4863 8.75474L17.2346 9.5006V7.15642C17.2346 7.07652 17.1812 6.96986 17.1013 6.94329L12.12 4.04C12.0401 3.98667 11.9335 3.98667 11.8536 4.04L6.92558 6.91674H6.89901L6.87244 6.94332C6.84587 6.96989 6.81911 6.99664 6.81911 6.99664C6.79254 7.02322 6.79254 7.04997 6.79254 7.07654V7.10311V7.12969V9.527L5.43406 8.7546C5.35416 8.70127 5.2475 8.70127 5.1676 8.7546L0.13304 11.6585H0.10647L0.0798988 11.685C0.053328 11.7116 0.026571 11.7384 0.026571 11.7649C0.026571 11.7915 0 11.7915 0 11.8183V11.8982V17.6786C0 17.7585 0.0533283 17.8651 0.133228 17.8917L5.16779 20.822H5.19436H5.22093C5.2475 20.822 5.27426 20.8485 5.30083 20.8485C5.3274 20.8485 5.35416 20.8485 5.38073 20.822H5.4073H5.43387L10.4684 17.8118C10.5483 17.7585 10.6017 17.6786 10.6017 17.5987V15.3612L11.8536 16.0804H11.8802H11.9068C11.9334 16.0804 11.9601 16.107 11.9867 16.107C12.0133 16.107 12.04 16.107 12.0666 16.0804H12.0932H12.1197L13.3717 15.3612V17.7054C13.3717 17.8118 13.425 17.8919 13.5049 17.9185L18.646 20.8487H18.6726H18.6992C18.7258 20.8487 18.7525 20.8753 18.7791 20.8753C18.8057 20.8753 18.8324 20.8753 18.859 20.8487H18.8856H18.9121L23.8668 17.9185C23.9467 17.8652 24 17.7853 24 17.7054L23.9737 11.8981ZM18.6195 9.28762L23.2012 11.8981L18.7527 14.4554L14.1176 11.8713L18.6195 9.28762ZM11.9866 4.57266L16.4617 7.18313L11.9333 9.74046L7.53815 7.15659L11.9866 4.57266ZM5.30052 9.28762L9.80237 11.8715L5.30052 14.482L0.771938 11.8713L5.30052 9.28762ZM0.53234 12.3243L5.03419 14.9348V20.1292L0.53234 17.5187V12.3243ZM5.54026 20.1292V14.9348L10.0421 12.3244V17.4122L5.54026 20.1292ZM10.5748 11.8715C10.5748 11.8182 10.5483 11.7916 10.5483 11.765C10.5217 11.7384 10.5217 11.7117 10.4949 11.6851L10.4684 11.6586H10.4418L7.29861 9.84727V7.60973L11.6938 10.1936V15.3614L10.575 14.722L10.5748 11.8715ZM12.2263 15.3612V10.1934L16.7016 7.63612V9.79374L13.4518 11.6583L13.3986 11.7115C13.3721 11.7381 13.3453 11.7648 13.3453 11.7914V11.818V11.8445V11.8979V14.7482L12.2263 15.3612ZM13.8512 12.3245L18.4863 14.9084V20.156L13.8512 17.519V12.3245ZM19.019 20.1294V14.9084L23.4409 12.3512V17.4923L19.019 20.1294ZM3.56901 15.894C3.51568 15.9739 3.43578 16.0272 3.35588 16.0272C3.30256 16.0272 3.27599 16.0272 3.22266 16.0007L2.05054 15.3347C1.91731 15.2548 1.89074 15.095 1.94407 14.9884C2.02397 14.8551 2.18377 14.8286 2.29042 14.8819L3.46254 15.5478C3.59576 15.6276 3.64891 15.7874 3.56901 15.894L3.56901 15.894ZM17.0478 15.9206C16.9945 16.0005 16.9146 16.0538 16.8347 16.0538C16.7813 16.0538 16.7548 16.0538 16.7014 16.0272L15.5293 15.3613C15.3961 15.2814 15.3695 15.1216 15.4228 15.0149C15.5027 14.8817 15.6625 14.8551 15.7692 14.9085L16.9413 15.5744C17.1011 15.6276 17.1277 15.7874 17.0478 15.9206H17.0478Z" stroke="#C88719" stroke-width="0.8" mask="url(#path-1-outside-1_1033_842)"/>
</g>
<defs>
<clipPath id="clip0_1033_842">
<rect width="24" height="24" fill="white"/>
</clipPath>
</defs>
</svg>
