<svg width="24" height="24" viewBox="0 0 24 24" fill="none" xmlns="http://www.w3.org/2000/svg">
<path d="M21.4286 2.57139H20.5714V2.14282C20.5714 1.37732 20.1629 0.669811 19.5 0.287133C18.8371 -0.095711 18.0201 -0.095711 17.3571 0.287133C16.6942 0.669786 16.2857 1.37732 16.2857 2.14282V2.57139H6.85714C6.62985 2.57139 6.41173 2.6617 6.25102 2.82241C6.09031 2.98313 6 3.20124 6 3.42854V4.71425C6 4.95092 5.8081 5.14282 5.57143 5.14282C5.33476 5.14282 5.14286 4.95092 5.14286 4.71425V2.14282C5.14286 1.90615 5.33476 1.71425 5.57143 1.71425C5.8081 1.71425 6 1.90615 6 2.14282H7.71429C7.71429 1.37732 7.30581 0.669811 6.64286 0.287133C5.97992 -0.095711 5.16294 -0.095711 4.5 0.287133C3.83706 0.669786 3.42857 1.37732 3.42857 2.14282V2.57139H2.57143C1.88934 2.57139 1.23541 2.84231 0.753061 3.32446C0.270916 3.80679 0 4.46073 0 5.14282V21.4285C0 22.1106 0.270916 22.7646 0.753061 23.2469C1.2354 23.729 1.88934 24 2.57143 24H21.4286C22.1107 24 22.7646 23.729 23.2469 23.2469C23.7291 22.7646 24 22.1106 24 21.4285V10.2857C24 9.60359 23.7291 8.94966 23.2469 8.46731C22.7646 7.98517 22.1107 7.71425 21.4286 7.71425H1.71429V5.14282C1.71429 4.91553 1.80459 4.69741 1.96531 4.5367C2.12602 4.37599 2.34413 4.28568 2.57143 4.28568H3.42857V4.71425C3.42857 5.47975 3.83705 6.18726 4.5 6.56994C5.16294 6.95278 5.97992 6.95278 6.64286 6.56994C7.3058 6.18729 7.71429 5.47975 7.71429 4.71425V4.28568H16.2857V4.71425C16.2857 5.47975 16.6942 6.18726 17.3571 6.56994C18.0201 6.95278 18.8371 6.95278 19.5 6.56994C20.1629 6.18729 20.5714 5.47975 20.5714 4.71425H18.8571C18.8571 4.95092 18.6652 5.14282 18.4286 5.14282C18.1919 5.14282 18 4.95092 18 4.71425V2.14282C18 1.90615 18.1919 1.71425 18.4286 1.71425C18.6652 1.71425 18.8571 1.90615 18.8571 2.14282V3.42854C18.8571 3.65583 18.9475 3.87395 19.1082 4.03466C19.2689 4.19537 19.487 4.28568 19.7143 4.28568H21.4286C21.6559 4.28568 21.874 4.37599 22.0347 4.5367C22.1954 4.69741 22.2857 4.91553 22.2857 5.14282V6.85711H24V5.14282C24 4.46073 23.7291 3.80681 23.2469 3.32446C22.7646 2.84231 22.1107 2.57139 21.4286 2.57139ZM21.4286 9.42854C21.6559 9.42854 21.874 9.51885 22.0347 9.67956C22.1954 9.84027 22.2857 10.0584 22.2857 10.2857V21.4285C22.2857 21.6558 22.1954 21.8739 22.0347 22.0347C21.874 22.1954 21.6559 22.2857 21.4286 22.2857H2.57143C2.34413 22.2857 2.12602 22.1954 1.96531 22.0347C1.80459 21.8739 1.71429 21.6558 1.71429 21.4285V9.42854H21.4286Z" fill="#C88719"/>
<path d="M6.00014 15.4285C6.68223 15.4285 7.33616 15.1576 7.81851 14.6754C8.30065 14.1931 8.57157 13.5392 8.57157 12.8571C8.57157 12.175 8.30065 11.5211 7.81851 11.0387C7.33617 10.5566 6.68223 10.2856 6.00014 10.2856C5.31805 10.2856 4.66412 10.5566 4.18177 11.0387C3.69963 11.521 3.42871 12.175 3.42871 12.8571C3.42871 13.5392 3.69963 14.1931 4.18177 14.6754C4.66411 15.1576 5.31805 15.4285 6.00014 15.4285ZM6.00014 11.9999C6.22743 11.9999 6.44555 12.0902 6.60626 12.251C6.76697 12.4117 6.85728 12.6298 6.85728 12.8571C6.85728 13.0844 6.76697 13.3025 6.60626 13.4632C6.44555 13.6239 6.22743 13.7142 6.00014 13.7142C5.77284 13.7142 5.55473 13.6239 5.39402 13.4632C5.23331 13.3025 5.143 13.0844 5.143 12.8571C5.143 12.6298 5.23331 12.4117 5.39402 12.251C5.55473 12.0902 5.77284 11.9999 6.00014 11.9999Z" fill="#C88719"/>
<path d="M12.0001 15.4285C12.6822 15.4285 13.3362 15.1576 13.8185 14.6754C14.3007 14.1931 14.5716 13.5392 14.5716 12.8571C14.5716 12.175 14.3007 11.5211 13.8185 11.0387C13.3362 10.5566 12.6822 10.2856 12.0001 10.2856C11.318 10.2856 10.6641 10.5566 10.1818 11.0387C9.69963 11.521 9.42871 12.175 9.42871 12.8571C9.42871 13.5392 9.69963 14.1931 10.1818 14.6754C10.6641 15.1576 11.318 15.4285 12.0001 15.4285ZM12.0001 11.9999C12.2274 11.9999 12.4456 12.0902 12.6063 12.251C12.767 12.4117 12.8573 12.6298 12.8573 12.8571C12.8573 13.0844 12.767 13.3025 12.6063 13.4632C12.4456 13.6239 12.2274 13.7142 12.0001 13.7142C11.7728 13.7142 11.5547 13.6239 11.394 13.4632C11.2333 13.3025 11.143 13.0844 11.143 12.8571C11.143 12.6298 11.2333 12.4117 11.394 12.251C11.5547 12.0902 11.7728 11.9999 12.0001 11.9999Z" fill="#C88719"/>
<path d="M18.0001 15.4285C18.6822 15.4285 19.3362 15.1576 19.8185 14.6754C20.3007 14.1931 20.5716 13.5392 20.5716 12.8571C20.5716 12.175 20.3007 11.5211 19.8185 11.0387C19.3362 10.5566 18.6822 10.2856 18.0001 10.2856C17.318 10.2856 16.6641 10.5566 16.1818 11.0387C15.6996 11.521 15.4287 12.175 15.4287 12.8571C15.4287 13.5392 15.6996 14.1931 16.1818 14.6754C16.6641 15.1576 17.318 15.4285 18.0001 15.4285ZM18.0001 11.9999C18.2274 11.9999 18.4456 12.0902 18.6063 12.251C18.767 12.4117 18.8573 12.6298 18.8573 12.8571C18.8573 13.0844 18.767 13.3025 18.6063 13.4632C18.4456 13.6239 18.2274 13.7142 18.0001 13.7142C17.7728 13.7142 17.5547 13.6239 17.394 13.4632C17.2333 13.3025 17.143 13.0844 17.143 12.8571C17.143 12.6298 17.2333 12.4117 17.394 12.251C17.5547 12.0902 17.7728 11.9999 18.0001 11.9999Z" fill="#C88719"/>
<path d="M6.00014 21.4285C6.68223 21.4285 7.33616 21.1576 7.81851 20.6754C8.30065 20.1931 8.57157 19.5392 8.57157 18.8571C8.57157 18.175 8.30065 17.5211 7.81851 17.0387C7.33617 16.5566 6.68223 16.2856 6.00014 16.2856C5.31805 16.2856 4.66412 16.5566 4.18177 17.0387C3.69963 17.521 3.42871 18.175 3.42871 18.8571C3.42871 19.5392 3.69963 20.1931 4.18177 20.6754C4.66411 21.1576 5.31805 21.4285 6.00014 21.4285ZM6.00014 17.9999C6.22743 17.9999 6.44555 18.0902 6.60626 18.251C6.76697 18.4117 6.85728 18.6298 6.85728 18.8571C6.85728 19.0844 6.76697 19.3025 6.60626 19.4632C6.44555 19.6239 6.22743 19.7142 6.00014 19.7142C5.77284 19.7142 5.55473 19.6239 5.39402 19.4632C5.23331 19.3025 5.143 19.0844 5.143 18.8571C5.143 18.6298 5.23331 18.4117 5.39402 18.251C5.55473 18.0902 5.77284 17.9999 6.00014 17.9999Z" fill="#C88719"/>
<path d="M12.0001 21.4285C12.6822 21.4285 13.3362 21.1576 13.8185 20.6754C14.3007 20.1931 14.5716 19.5392 14.5716 18.8571C14.5716 18.175 14.3007 17.5211 13.8185 17.0387C13.3362 16.5566 12.6822 16.2856 12.0001 16.2856C11.318 16.2856 10.6641 16.5566 10.1818 17.0387C9.69963 17.521 9.42871 18.175 9.42871 18.8571C9.42871 19.5392 9.69963 20.1931 10.1818 20.6754C10.6641 21.1576 11.318 21.4285 12.0001 21.4285ZM12.0001 17.9999C12.2274 17.9999 12.4456 18.0902 12.6063 18.251C12.767 18.4117 12.8573 18.6298 12.8573 18.8571C12.8573 19.0844 12.767 19.3025 12.6063 19.4632C12.4456 19.6239 12.2274 19.7142 12.0001 19.7142C11.7728 19.7142 11.5547 19.6239 11.394 19.4632C11.2333 19.3025 11.143 19.0844 11.143 18.8571C11.143 18.6298 11.2333 18.4117 11.394 18.251C11.5547 18.0902 11.7728 17.9999 12.0001 17.9999Z" fill="#C88719"/>
<path d="M18.0001 21.4285C18.6822 21.4285 19.3362 21.1576 19.8185 20.6754C20.3007 20.1931 20.5716 19.5392 20.5716 18.8571C20.5716 18.175 20.3007 17.5211 19.8185 17.0387C19.3362 16.5566 18.6822 16.2856 18.0001 16.2856C17.318 16.2856 16.6641 16.5566 16.1818 17.0387C15.6996 17.521 15.4287 18.175 15.4287 18.8571C15.4287 19.5392 15.6996 20.1931 16.1818 20.6754C16.6641 21.1576 17.318 21.4285 18.0001 21.4285ZM18.0001 17.9999C18.2274 17.9999 18.4456 18.0902 18.6063 18.251C18.767 18.4117 18.8573 18.6298 18.8573 18.8571C18.8573 19.0844 18.767 19.3025 18.6063 19.4632C18.4456 19.6239 18.2274 19.7142 18.0001 19.7142C17.7728 19.7142 17.5547 19.6239 17.394 19.4632C17.2333 19.3025 17.143 19.0844 17.143 18.8571C17.143 18.6298 17.2333 18.4117 17.394 18.251C17.5547 18.0902 17.7728 17.9999 18.0001 17.9999Z" fill="#C88719"/>
</svg>
