<svg width="48" height="48" viewBox="0 0 48 48" fill="none" xmlns="http://www.w3.org/2000/svg">
<g clip-path="url(#clip0_551_831)">
<path fill-rule="evenodd" clip-rule="evenodd" d="M29.299 26.0366C28.507 27.1663 27.5754 28.191 26.5293 29.0857L34.0603 36.468L36.9273 33.5134L29.299 26.0366Z" fill="#666666"/>
<path fill-rule="evenodd" clip-rule="evenodd" d="M29.3501 25.9858C29.2021 26.4716 28.926 26.8407 28.5303 27.0852L36.0114 34.5172L36.9276 33.5133L29.3501 25.9858Z" fill="#424242"/>
<path fill-rule="evenodd" clip-rule="evenodd" d="M43.5976 46.05L46.8333 42.7154C47.4016 42.1298 47.3872 41.1859 46.8017 40.6176L37.8396 31.921C37.2541 31.3527 36.3098 31.367 35.7416 31.9525L32.5059 35.2871C31.9377 35.8726 31.9519 36.8169 32.5375 37.3851L41.4997 46.0815C42.0853 46.6496 43.0293 46.6357 43.5976 46.05Z" fill="#666666"/>
<path fill-rule="evenodd" clip-rule="evenodd" d="M36.5137 31.9211L45.4757 40.6177C46.0612 41.186 46.0756 42.1299 45.5073 42.7154L42.2716 46.05C42.152 46.1733 42.0158 46.2712 41.8698 46.3437C42.4325 46.6235 43.138 46.5237 43.5975 46.05L46.8332 42.7154C47.4015 42.1298 47.3871 41.186 46.8016 40.6176L37.8396 31.921C37.3773 31.4724 36.6915 31.3868 36.1436 31.6588C36.2766 31.7251 36.4017 31.8125 36.5137 31.9211Z" fill="#666666"/>
<path d="M28.6098 29.3605C34.9829 22.9871 34.9828 12.654 28.6094 6.2809C22.236 -0.0922404 11.903 -0.0920611 5.52982 6.2813C-0.843318 12.6547 -0.843138 22.9877 5.53022 29.3609C11.9036 35.734 22.2367 35.7338 28.6098 29.3605Z" fill="#424242"/>
<path d="M28.4756 20.5164C29.9629 14.2176 26.0625 7.90572 19.7637 6.41839C13.4649 4.93105 7.15306 8.83148 5.66572 15.1302C4.17838 21.429 8.07881 27.7409 14.3776 29.2282C20.6763 30.7156 26.9882 26.8151 28.4756 20.5164Z" fill="#ECEFF1"/>
<path fill-rule="evenodd" clip-rule="evenodd" d="M17.4513 8.5693L24.8905 12.8644C25.1334 13.0046 25.2725 13.2454 25.2725 13.5259V22.116C25.2725 22.3965 25.1334 22.6373 24.8905 22.7775L17.4513 27.0725C17.2084 27.2128 16.9303 27.2128 16.6874 27.0725L9.24815 22.7775C9.00524 22.6372 8.86621 22.3965 8.86621 22.116V13.5259C8.86621 13.2454 9.00524 13.0045 9.24815 12.8644L16.6874 8.5693C16.9303 8.42905 17.2084 8.42905 17.4513 8.5693Z" fill="#666666"/>
<path fill-rule="evenodd" clip-rule="evenodd" d="M25.1726 13.1426C25.2375 13.255 25.2723 13.3847 25.2725 13.5245V22.1175C25.272 22.3974 25.1331 22.6376 24.8905 22.7776L17.4513 27.0727C17.3298 27.1428 17.1996 27.1779 17.0693 27.1779V17.8211L25.1726 13.1426Z" fill="#666666"/>
<path fill-rule="evenodd" clip-rule="evenodd" d="M17.452 8.5693L24.8913 12.8644C25.0128 12.9345 25.1082 13.0297 25.1734 13.1425L17.0701 17.8209L8.9668 13.1425C9.03195 13.0297 9.12739 12.9345 9.24889 12.8644L16.6881 8.5693C16.931 8.42905 17.2091 8.42905 17.452 8.5693Z" fill="#424242"/>
<path fill-rule="evenodd" clip-rule="evenodd" d="M11.7783 14.7663L14.1572 16.1398L22.3604 11.4037L19.9814 10.0303L11.7783 14.7663Z" fill="#D1D1D6"/>
<path fill-rule="evenodd" clip-rule="evenodd" d="M13.8707 19.7044L11.9693 18.6065C11.8478 18.5364 11.7783 18.416 11.7783 18.2758V14.7664L14.1572 16.1398V19.539C14.1572 19.6091 14.1225 19.6693 14.0618 19.7044C14.001 19.7394 13.9315 19.7394 13.8707 19.7044Z" fill="#ECEFF1"/>
<path fill-rule="evenodd" clip-rule="evenodd" d="M35.7861 10.2615C35.3719 10.2615 35.0361 9.92566 35.0361 9.51147C35.0361 9.09729 35.3719 8.76147 35.7861 8.76147H46.5001C46.9143 8.76147 47.2501 9.09729 47.2501 9.51147C47.2501 9.92566 46.9143 10.2615 46.5001 10.2615H35.7861ZM35.7861 21.652C35.3719 21.652 35.0361 21.3162 35.0361 20.902C35.0361 20.4878 35.3719 20.152 35.7861 20.152H46.5001C46.9143 20.152 47.2501 20.4878 47.2501 20.902C47.2501 21.3162 46.9143 21.652 46.5001 21.652H35.7861ZM35.7861 15.9568C35.3719 15.9568 35.0361 15.621 35.0361 15.2068C35.0361 14.7926 35.3719 14.4568 35.7861 14.4568H43.3799C43.7941 14.4568 44.1299 14.7926 44.1299 15.2068C44.1299 15.621 43.7941 15.9568 43.3799 15.9568H35.7861Z" fill="#666666"/>
</g>
<defs>
<clipPath id="clip0_551_831">
<rect width="48" height="48" fill="white"/>
</clipPath>
</defs>
</svg>
