<svg width="25" height="24" viewBox="0 0 25 24" fill="none" xmlns="http://www.w3.org/2000/svg">
<path d="M4.77027 10.3308L1.75098 7.33374L2.95835 6.13525L4.77027 7.93383L6.58218 6.13525L7.78956 7.33374L4.77027 10.3308Z" fill="#C88719"/>
<path d="M7.78866 7.33327L6.58128 6.13478C6.81988 5.89911 7.00899 5.61879 7.13768 5.31006C7.26637 5.00133 7.33207 4.67032 7.33098 4.33621C7.33098 3.65645 7.06458 3.01906 6.58128 2.53763C5.6147 1.57817 3.92574 1.57817 2.95916 2.53763C2.72026 2.77317 2.53083 3.05342 2.40184 3.36216C2.27286 3.6709 2.20689 4.00198 2.20775 4.33621C2.20775 5.01428 2.47416 5.65336 2.95745 6.13478L1.75008 7.33327C1.35267 6.94039 1.03759 6.47326 0.823037 5.95886C0.60848 5.44445 0.498692 4.89296 0.500012 4.33621C0.500012 3.20384 0.944025 2.13927 1.75008 1.33915C3.36048 -0.262789 6.17655 -0.262789 7.78695 1.33915C8.59471 2.14096 9.03873 3.20553 9.03873 4.33621C9.03873 5.46689 8.59471 6.53145 7.78866 7.33327Z" fill="#C88719"/>
<path d="M4.76891 4.94175C5.24049 4.94175 5.62278 4.56228 5.62278 4.09417C5.62278 3.62606 5.24049 3.24658 4.76891 3.24658C4.29733 3.24658 3.91504 3.62606 3.91504 4.09417C3.91504 4.56228 4.29733 4.94175 4.76891 4.94175Z" fill="#C88719"/>
<path d="M15.4424 20.4338H17.1501V23.8242H15.4424V20.4338ZM15.4424 17.0435H17.1501V18.7387H15.4424V17.0435ZM15.4424 11.958H17.1501V15.3483H15.4424V11.958ZM15.4424 8.56765H17.1501V10.2628H15.4424V8.56765ZM15.4424 3.48214H17.1501V6.87248H15.4424V3.48214ZM15.4424 0.0917969H17.1501V1.78697H15.4424V0.0917969Z" fill="#C88719"/>
<path d="M8.0918 23.8066L10.8514 0.000789342L12.5479 0.194569L9.78835 24.0004L8.0918 23.8066Z" fill="#C88719"/>
<path d="M20.0469 0.193359L21.7434 -0.000214897L24.5001 23.806L22.8035 23.9995L20.0469 0.193359Z" fill="#C88719"/>
</svg>
