<svg width="24" height="24" viewBox="0 0 24 24" fill="none" xmlns="http://www.w3.org/2000/svg">
<path d="M4 13C4.26522 13 4.51957 12.8946 4.70711 12.7071C4.89464 12.5196 5 12.2652 5 12V6C5 5.73478 5.10536 5.48043 5.29289 5.29289C5.48043 5.10536 5.73478 5 6 5L18 5C18.2652 5 18.5196 5.10536 18.7071 5.29289C18.8946 5.48043 19 5.73478 19 6V18C19 18.2652 18.8946 18.5196 18.7071 18.7071C18.5196 18.8946 18.2652 19 18 19H12C11.7348 19 11.4804 19.1054 11.2929 19.2929C11.1054 19.4804 11 19.7348 11 20C11 20.2652 11.1054 20.5196 11.2929 20.7071C11.4804 20.8946 11.7348 21 12 21H18C18.7956 21 19.5587 20.6839 20.1213 20.1213C20.6839 19.5587 21 18.7956 21 18L21 6C21 5.20435 20.6839 4.44129 20.1213 3.87868C19.5587 3.31607 18.7956 3 18 3L6 3C5.20435 3 4.44129 3.31607 3.87868 3.87868C3.31607 4.44129 3 5.20435 3 6L3 12C3 12.2652 3.10536 12.5196 3.29289 12.7071C3.48043 12.8946 3.73478 13 4 13Z" fill="#C88719"/>
<path d="M8.0058 13.0042H9.5858L3.2958 19.2842C3.20207 19.3771 3.12768 19.4877 3.07691 19.6096C3.02614 19.7314 3 19.8621 3 19.9942C3 20.1262 3.02614 20.2569 3.07691 20.3787C3.12768 20.5006 3.20207 20.6112 3.2958 20.7042C3.38876 20.7979 3.49936 20.8723 3.62122 20.923C3.74308 20.9738 3.87379 20.9999 4.0058 20.9999C4.13781 20.9999 4.26852 20.9738 4.39038 20.923C4.51223 20.8723 4.62284 20.7979 4.7158 20.7042L11.0058 14.4242V16.0042C11.0058 16.2694 11.1112 16.5237 11.2987 16.7113C11.4862 16.8988 11.7406 17.0042 12.0058 17.0042C12.271 17.0042 12.5254 16.8988 12.7129 16.7113C12.9004 16.5237 13.0058 16.2694 13.0058 16.0042V12.0042C13.0058 11.7389 12.9004 11.4846 12.7129 11.297C12.5254 11.1095 12.271 11.0042 12.0058 11.0042H8.0058C7.74058 11.0042 7.48623 11.1095 7.29869 11.297C7.11116 11.4846 7.0058 11.7389 7.0058 12.0042C7.0058 12.2694 7.11116 12.5237 7.29869 12.7113C7.48623 12.8988 7.74058 13.0042 8.0058 13.0042Z" fill="#C88719"/>
</svg>
