<svg width="24" height="24" viewBox="0 0 24 24" fill="none" xmlns="http://www.w3.org/2000/svg">
<path d="M20.7998 3.51562C20.7998 1.57711 19.0054 0 16.7998 0C14.5942 0 12.7998 1.57711 12.7998 3.51562C12.7998 5.45414 14.5942 7.03125 16.7998 7.03125C19.0054 7.03125 20.7998 5.45414 20.7998 3.51562ZM16.7998 5.625C15.4764 5.625 14.3998 4.67873 14.3998 3.51562C14.3998 2.35252 15.4764 1.40625 16.7998 1.40625C18.1232 1.40625 19.1998 2.35252 19.1998 3.51562C19.1998 4.67873 18.1232 5.625 16.7998 5.625Z" fill="#C88719"/>
<path d="M1.6 23.2969C1.6 23.6852 1.95819 24 2.4 24H21.6C22.0418 24 22.4 23.6852 22.4 23.2969V16.8704C23.4042 15.6952 24 14.2357 24 12.6562C24 9.55463 21.129 7.03125 17.6 7.03125H13.6C12.9859 7.03125 12.4249 7.23502 12 7.56966C11.5751 7.23502 11.0141 7.03125 10.4 7.03125H6.4C2.87104 7.03125 0 9.55463 0 12.6562C0 14.2357 0.595787 15.6952 1.6 16.8704V23.2969ZM3.2 18.2777C4.53797 19.1625 6.20048 19.6875 8 19.6875V22.5938H3.2V18.2777ZM11.2 17.5781C11.2 16.7404 10.6414 16.0152 9.83445 15.675C9.97931 15.5476 10.1794 15.4688 10.4 15.4688H13.6C13.8206 15.4688 14.0207 15.5476 14.1655 15.675C13.3586 16.0152 12.8 16.7404 12.8 17.5781C12.8 18.4948 13.4689 19.2763 14.4 19.5666V22.5938H9.6V19.5666C10.5311 19.2763 11.2 18.4948 11.2 17.5781ZM16 22.5938V19.6875C17.7995 19.6875 19.462 19.1625 20.8 18.2777V22.5938H16ZM12 9.84375C12.8822 9.84375 13.6 10.4746 13.6 11.25C13.6 12.0254 12.8822 12.6562 12 12.6562C11.1178 12.6562 10.4 12.0254 10.4 11.25C10.4 10.4746 11.1178 9.84375 12 9.84375ZM6.4 8.4375H10.4C10.5965 8.4375 10.7764 8.50031 10.9158 8.604C9.68336 8.99531 8.8 10.0335 8.8 11.25C8.8 12.8008 10.2355 14.0625 12 14.0625C13.7645 14.0625 15.2 12.8008 15.2 11.25C15.2 10.0335 14.3166 8.99531 13.0842 8.604C13.2236 8.50031 13.4035 8.4375 13.6 8.4375H17.6C20.2467 8.4375 22.4 10.33 22.4 12.6562C22.4 15.7579 19.529 18.2812 16 18.2812H15.2C14.7589 18.2812 14.4 17.9658 14.4 17.5781C14.4 17.1904 14.7589 16.875 15.2 16.875H16C18.6467 16.875 20.8 14.9825 20.8 12.6562C20.8 12.2679 20.4418 11.9531 20 11.9531C19.5582 11.9531 19.2 12.2679 19.2 12.6562C19.2 14.2071 17.7645 15.4688 16 15.4688H15.8624C15.5322 14.6504 14.6429 14.0625 13.6 14.0625H10.4C9.35707 14.0625 8.46784 14.6504 8.1376 15.4688H8C6.23552 15.4688 4.8 14.2071 4.8 12.6562C4.8 12.2679 4.44181 11.9531 4 11.9531C3.55819 11.9531 3.2 12.2679 3.2 12.6562C3.2 14.9825 5.35328 16.875 8 16.875H8.8C9.24112 16.875 9.6 17.1904 9.6 17.5781C9.6 17.9658 9.24112 18.2812 8.8 18.2812H8C4.47104 18.2812 1.6 15.7579 1.6 12.6562C1.6 10.33 3.75328 8.4375 6.4 8.4375V8.4375Z" fill="#C88719"/>
<path d="M11.1992 3.51562C11.1992 1.57711 9.40482 0 7.19922 0C4.99362 0 3.19922 1.57711 3.19922 3.51562C3.19922 5.45414 4.99362 7.03125 7.19922 7.03125C9.40482 7.03125 11.1992 5.45414 11.1992 3.51562ZM7.19922 5.625C5.87586 5.625 4.79922 4.67873 4.79922 3.51562C4.79922 2.35252 5.87586 1.40625 7.19922 1.40625C8.52258 1.40625 9.59922 2.35252 9.59922 3.51562C9.59922 4.67873 8.52258 5.625 7.19922 5.625Z" fill="#C88719"/>
</svg>
