<svg width="61" height="61" viewBox="0 0 61 61" fill="none" xmlns="http://www.w3.org/2000/svg">
<path d="M45.687 9.53161C46.2357 9.85757 46.7932 10.1791 47.1915 10.6416C47.1738 11.0336 46.8773 10.9588 46.603 10.9279C45.1162 10.1571 43.3596 9.9809 41.6295 9.73864C40.7711 9.61971 39.8419 9.68578 39.0675 9.3334C38.2357 8.93256 37.2445 9.07351 36.3065 9.02506C36.041 9.01185 35.7622 9.06911 35.5012 9.02065C35.2888 8.98101 34.9569 8.98542 35.0233 8.72113C35.0808 8.49208 35.3817 8.43482 35.625 8.43482C36.4923 8.43041 37.3507 8.48327 38.2135 8.52291C38.5144 8.53613 38.802 8.57577 39.072 8.37315C39.7622 8.21458 40.3419 8.5097 40.9923 8.51851C41.2445 8.55375 41.5277 8.55375 41.5498 8.84006C41.4923 8.9678 41.3065 8.9678 41.1826 9.07792C41.7003 8.88851 42.0764 9.07792 42.4702 9.20125C42.572 9.2453 42.5454 9.0603 42.5144 9.16161C42.5056 9.18363 42.4835 9.17923 42.4348 9.16601C42.1206 9.08673 41.9392 8.87089 41.7003 8.71672C41.4392 8.57137 41.3286 8.32029 41.1295 8.12208C41.0985 8.03839 40.9702 8.16172 41.0852 8.11767C41.1118 8.10886 41.1206 8.12648 41.1383 8.16172C41.2357 8.33351 41.4127 8.52291 40.9392 8.5097C40.0764 8.52732 39.572 8.17493 39.302 7.53183C39.0985 7.0429 38.7843 6.59361 38.572 6.23242C38.4392 6.06063 38.3153 6.22361 38.4082 6.14873C38.4392 6.1223 38.4658 6.1267 38.4879 6.15754C38.9215 6.70373 39.1295 7.36445 39.5631 7.91505C39.6959 8.08243 39.6428 8.25863 39.3507 8.29827C39.1295 8.3291 38.9436 8.40398 38.7578 8.50089C38.1826 8.55375 37.6295 8.47005 37.0631 8.45684C36.8242 8.45244 36.5144 8.4172 36.5675 8.16612C36.6206 7.91946 36.9481 7.95029 37.1781 7.91946C37.479 7.88422 37.7666 7.98553 38.0897 7.89303C38.2003 7.58469 37.9702 7.37767 37.8419 7.15743C37.2888 6.20599 36.9525 5.17527 36.5144 4.18419C36.395 3.91109 36.3109 3.62037 36.5852 3.32525C36.7401 3.16668 38.1428 4.11371 38.718 4.71276C39.9304 5.2017 40.7755 6.06063 41.7976 6.73897C41.9613 6.84909 42.1826 6.92397 42.3065 7.08695C42.2888 7.1354 42.249 7.21028 42.2755 7.23231C43.3021 8.10446 43.8419 9.46113 45.687 9.53161Z" fill="#F2D0AB"/>
<path d="M39.1034 9.25898C41.214 9.53208 43.3866 9.6378 45.3822 10.2413C45.8335 10.3778 46.3335 10.4527 46.6698 10.761C46.5813 10.8932 46.6964 10.9769 46.7893 10.946C47.6167 10.6641 47.8291 11.0605 47.9309 11.5891C47.8999 11.6596 47.8468 11.7125 47.7672 11.7433C47.2406 11.805 46.8247 11.4746 46.2848 11.5803C46.1565 11.5803 46.0592 11.5363 45.9884 11.4526C45.6477 11.0385 45.0282 11.0826 44.5194 10.9504C44.4397 10.9416 44.3601 10.9284 44.2804 10.9196C43.4353 10.7434 42.5149 10.7434 41.714 10.4527C41.2539 10.0386 40.6919 10.3293 40.1565 10.4527C38.2716 10.2192 36.3556 10.1355 34.4308 10.0915C33.1875 10.0651 31.9308 10.1003 30.6875 10.0827C30.4264 10.0122 30.1609 9.98577 29.8821 10.1091C28.2361 10.2545 26.5945 10.4527 24.9662 10.598C25.3866 10.8976 26.1255 10.7963 26.3556 11.3292C25.6874 11.7697 25.2051 11.3909 24.7582 11.1619C24.1388 10.8403 23.5812 10.8095 22.9529 11.2544C22.7184 11.3733 22.5635 11.2544 22.3954 11.1751C21.6299 11.2191 20.9972 11.5142 20.5547 12.0604C20.1078 12.611 20.0503 12.219 19.9131 11.9635C20.0237 11.3469 20.5812 11.0473 21.183 10.783C21.4972 10.6685 21.8113 10.554 22.1078 10.4042C23.5635 9.78756 25.1078 9.58494 26.6388 9.33827C29.5901 8.9991 32.5237 8.87136 35.4397 8.99029C36.3866 9.02993 37.3379 9.01231 38.2804 9.07839C38.5769 9.09601 38.891 9.06517 39.1034 9.25898Z" fill="#7A5832"/>
<path d="M44.692 14.5493C44.3823 14.677 44.0681 14.7519 43.7407 14.7035C42.4442 14.6947 41.1522 15.0558 39.8557 15.0999C39.7097 15.1043 39.5548 15.1351 39.4088 15.1439C39.1433 15.1572 38.8115 15.2056 38.7009 14.981C38.5637 14.7123 38.7141 14.4524 39.0548 14.2718C41.1035 14.1573 43.1478 14.0295 45.1876 13.6243C46.3336 13.3952 47.431 13.0561 48.2805 12.2632C48.3823 12.228 48.4797 12.228 48.5726 12.2676C49.0637 12.7301 48.6522 13.0913 48.2053 13.404C47.4443 13.9282 46.515 14.0427 45.6345 14.263C45.3115 14.3379 44.9796 14.3599 44.692 14.5493Z" fill="#745242"/>
<path d="M19.9216 11.9633C20.0764 11.9325 20.103 12.4831 20.3906 11.9589C20.7756 11.263 21.7092 11.1793 22.3995 10.8269C22.4747 10.7872 22.4747 10.9678 22.457 11.0603C22.2225 11.4127 21.6649 11.47 21.4393 11.8356C20.8817 11.8884 20.9614 12.1924 21.0145 12.4831C21.1074 13.2495 21.7313 13.6019 22.5278 13.7517C23.8198 13.9983 25.0057 14.5181 26.4216 14.4476C26.6605 14.4344 26.8729 14.5269 27.0322 14.6767C27.103 14.7736 27.1163 14.8793 27.0455 14.9938C24.78 14.7119 22.426 14.6326 20.6428 13.3508C20.134 12.9808 19.8906 12.5404 19.9216 11.9633Z" fill="#503725"/>
<path d="M27.0411 14.9895C27.0146 14.9014 26.9836 14.8089 26.957 14.7208C26.8199 14.4786 27.0544 14.3728 27.2535 14.2495C28.665 14.2539 30.0721 14.2759 31.4216 14.549C31.5765 14.7164 31.6163 14.897 31.4703 15.1129C30.3464 15.2186 29.2933 14.9895 28.2048 14.9279C27.957 14.9146 27.6561 14.668 27.4305 15.0424C27.28 15.0908 27.1517 15.0644 27.0411 14.9895Z" fill="#745243"/>
<path d="M26.984 7.50589C29.6345 6.03028 32.2805 4.55468 34.9354 3.08788C35.4929 2.77954 36.0858 2.47121 36.6301 2.97335C36.5991 3.04824 36.5416 3.09669 36.4531 3.11871C35.8336 3.07907 35.2849 3.28609 34.7761 3.62086C32.5637 4.90706 30.2893 6.10516 28.0592 7.36053C27.7716 7.52351 27.484 7.6953 27.1256 7.66887C27.015 7.65565 26.9663 7.60279 26.984 7.50589Z" fill="#7A5832"/>
<path d="M45.6877 9.53209C44.9664 9.97697 44.4443 9.56732 44.0638 9.27661C43.4001 8.77006 42.9664 8.0741 42.1611 7.66886C41.8248 7.50147 41.9885 7.25481 42.3116 7.07861C42.4089 7.13588 42.5018 7.19754 42.5992 7.25481C43.0638 7.77017 43.7496 8.0785 44.2939 8.51458L44.285 8.51017C44.6965 8.8141 45.0682 9.15327 45.5505 9.39113C45.5992 9.44399 45.6434 9.48804 45.6877 9.53209Z" fill="#F3DCC1"/>
<path d="M44.6914 14.5495C45.4746 14.0253 46.4259 13.968 47.2976 13.6817C47.8507 13.5011 48.2534 13.2412 48.541 12.8052C48.6914 12.5761 48.6206 12.4308 48.4657 12.281C48.4082 12.1312 48.5764 11.8934 48.5941 11.9198C48.864 12.2502 48.8684 11.7744 49.0188 11.8009C49.4525 12.7479 49.3065 13.0695 48.2135 13.6024C47.0985 14.1442 45.8949 14.3468 44.6914 14.5495Z" fill="#4A3020"/>
<path d="M26.984 7.50586C26.9973 7.5455 27.0105 7.58515 27.0194 7.62479C27.0503 8.01241 26.6433 8.12694 26.3557 8.29872C24.9353 9.12242 23.5105 9.95052 21.9663 10.5892C21.745 10.8183 21.453 10.7522 21.1875 10.783C23.0503 9.59373 25.0636 8.61146 26.984 7.50586Z" fill="#7A5832"/>
<path d="M49.0193 11.801C48.8467 11.9596 49.0149 12.1314 48.9352 12.2944C48.7582 12.3957 48.7228 11.6733 48.4618 12.2812L48.4087 12.2635C48.1742 12.171 48.0281 11.9993 47.8556 11.8495C47.8202 11.7922 47.8202 11.735 47.86 11.6689C47.5812 11.3738 47.6255 10.7131 46.7494 11.0742C46.5945 11.1403 46.506 10.9245 46.6653 10.7615C46.8556 10.8056 47.068 10.9377 47.1874 10.6426C47.8865 10.9377 48.5193 11.3033 49.0193 11.801Z" fill="#745242"/>
<path d="M44.2972 8.52296C43.607 8.21903 42.9255 7.90188 42.6025 7.26318C43.2309 7.61997 43.5362 7.94152 44.2972 8.52296Z" fill="#F2D0AB"/>
<path d="M45.5545 9.39561C44.9705 9.25906 44.559 8.95072 44.2891 8.51465C44.8333 8.69525 45.0236 8.99037 45.5545 9.39561Z" fill="#F2D0AB"/>
<path d="M36.5329 3.08801C36.5816 3.15849 36.6258 3.22896 36.6745 3.29944C36.5462 3.63861 36.6347 3.93373 36.7762 4.23326C37.3382 5.40493 37.7541 6.62946 38.4178 7.7615C38.4754 7.8584 38.4842 7.98174 38.5329 8.14471C37.8869 8.20198 37.3072 7.98174 36.4621 8.21079C37.3559 8.29888 38.0373 8.36495 38.7143 8.43103C38.9001 8.29448 39.0108 8.36936 39.1081 8.49269C38.3824 8.88472 37.6789 8.57638 36.9621 8.64686C36.3603 8.70412 35.7718 8.48388 34.9134 8.79662C36.2585 8.84948 37.3736 8.89353 38.4842 8.94198C38.763 8.9552 39.1745 8.82305 39.1037 9.26353C35.0329 9.07853 30.9444 9.06972 26.8028 9.50139C26.7983 9.08734 27.2762 8.98163 27.555 8.7702C28.4444 8.09626 29.3603 7.44435 30.2851 6.81006C30.5196 6.65589 30.9267 6.79685 31.0461 6.44446C31.8072 5.67362 32.6656 4.98648 33.6169 4.38742C33.8116 4.26409 34.0904 4.17159 34.2674 4.35659C34.4134 4.50635 34.2497 4.69135 34.1391 4.84552C33.8824 5.21112 33.5815 5.53267 33.0771 5.70005C32.586 5.86303 32.2099 6.12732 32.2187 6.61185C32.1922 6.97304 31.8647 7.20649 31.6169 7.47519C31.4488 7.65578 31.1568 7.7659 31.0992 8.06983C31.7364 8.23722 32.2762 8.05662 32.6258 7.55888C33.4444 6.3872 34.0639 5.14505 34.8957 3.97778C35.0594 3.74873 34.8293 3.61218 34.8028 3.42718C35.3515 3.0836 35.8913 2.73122 36.5329 3.08801Z" fill="#F9DCBA"/>
<path d="M39.1076 8.48806C38.9749 8.46604 38.8466 8.44842 38.7138 8.42639C38.8377 8.0608 39.2536 8.30306 39.497 8.10044C39.1784 7.40889 38.612 6.81424 38.3643 5.8584C39.382 6.83186 39.2802 8.36913 41.0413 8.53651L41.0457 8.53211C40.3554 8.75235 39.7846 8.28985 39.1076 8.48806Z" fill="#D2B18D"/>
<path d="M41.8297 8.60303C42.2634 8.77041 42.3961 9.29018 43.0554 9.20649C42.3297 9.39589 41.7545 9.13601 40.9492 9.05232C41.259 8.95101 41.3917 8.90696 41.5289 8.86291C41.6262 8.77481 41.6882 8.65589 41.8297 8.60303Z" fill="#CEAB88"/>
<path d="M41.8292 8.60278C41.7628 8.7173 41.8292 8.93754 41.5283 8.86266C41.3646 8.75254 41.2053 8.63802 41.0416 8.5279L41.0371 8.5323C41.3601 8.2548 40.7495 8.15789 40.9752 7.87158C41.2672 8.12266 41.546 8.36051 41.8292 8.60278Z" fill="#CDA987"/>
<path d="M34.8061 3.41846C35.0141 3.51536 35.5982 3.35239 35.2265 3.85453C34.3725 5.0174 33.7088 6.25074 32.9698 7.45325C32.6424 7.98623 32.1557 8.37826 31.3946 8.3254C31.1689 8.30778 30.8503 8.43992 30.7397 8.24611C30.607 8.01706 30.8813 7.82766 31.0804 7.66908C31.2132 7.56337 31.3813 7.48408 31.5318 7.39158C31.8238 7.18015 32.2309 7.01718 32.0716 6.61634C31.6026 5.99526 32.5539 5.59883 32.7663 5.568C33.6203 5.45788 33.7707 4.87644 34.1158 4.40954C32.9344 4.94692 32.0229 5.76181 31.1114 6.5767C30.3371 6.92027 29.4787 6.73967 28.784 7.02598C29.2884 6.95991 29.8725 6.66039 30.4521 6.92027C29.5804 7.52813 28.6733 8.10075 27.8548 8.75266C27.5185 9.02136 27.107 9.19755 26.7972 9.48826C25.1733 9.78779 23.5406 10.0477 21.9609 10.5762C23.2928 9.64684 24.8194 8.98612 26.2132 8.1404C26.4875 7.97302 26.691 7.8629 27.0318 7.62063C29.0141 6.73086 30.784 5.56359 32.6955 4.57251C33.4079 4.20251 34.1026 3.80608 34.8061 3.41846Z" fill="#F1D2AE"/>
<path d="M21.404 11.8578C21.2668 11.1354 22.0854 11.3072 22.4571 11.0562C22.6075 11.1222 22.758 11.1883 22.9084 11.2544C22.9483 11.2588 22.9881 11.2632 23.0235 11.2676C23.5677 11.4834 24.0323 11.8226 24.696 11.8446C25.3155 11.9635 25.9084 12.1353 26.5235 12.2675C26.9527 12.426 27.4217 12.4657 27.9084 12.4525C28.2049 12.4569 28.4881 12.5009 28.7713 12.5538C29.4704 12.7212 30.258 12.6243 30.9394 12.8577C31.1518 13.0691 31.227 13.3202 31.1518 13.6153C30.8288 14.047 30.3908 13.8664 30.0058 13.84C28.3155 13.7343 26.6651 13.4964 25.0058 13.2894C24.0191 13.1837 23.1208 12.8841 22.2226 12.5934C21.8288 12.4613 21.4704 12.2631 21.404 11.8578Z" fill="#B9987E"/>
<path d="M28.63 12.6902C28.4043 12.6549 28.1742 12.6241 27.9486 12.5889C27.453 12.5008 26.9397 12.4831 26.4486 12.3906C25.8468 12.3114 25.2583 12.1968 24.7273 11.9722C24.0238 11.8753 23.4707 11.5581 22.9043 11.2542L22.9131 11.2586C23.2362 10.7124 23.9884 10.5186 24.5459 10.8313C25.0857 11.1353 25.6255 11.448 26.3778 11.3467C26.422 11.3379 26.4663 11.3291 26.5105 11.3203C27.7096 11.4128 28.8822 11.589 30.0902 11.6638C30.3291 11.6771 30.5503 11.7255 30.7008 11.8885C30.8733 12.1264 30.9663 12.3774 30.8424 12.677C30.4441 13.0073 30.0592 12.7606 29.6742 12.7474C29.3247 12.7298 28.9751 12.7034 28.63 12.6902Z" fill="#B9977E"/>
<path d="M39.4707 13.5845C39.5813 13.3511 39.6919 13.1132 39.807 12.8797C40.1433 12.5626 40.5858 12.5802 40.9928 12.5494C41.8911 12.4833 42.7804 12.3203 43.6787 12.2058C44.5902 12.0913 45.4442 11.8358 46.2849 11.4922C46.9176 11.0958 47.2406 11.6244 47.7185 11.6949C48.0017 12.1485 47.5238 12.3115 47.1743 12.5053C46.2849 12.9987 45.2716 13.1264 44.3026 13.3114C42.9663 13.5669 41.6123 13.6462 40.2627 13.7695C39.9619 13.7959 39.6477 13.8312 39.4707 13.5845Z" fill="#BB997F"/>
<path d="M30.5593 9.97694C32.9089 9.78753 35.2186 9.90205 37.524 10.0166C38.2054 10.0518 38.8779 10.1047 39.5594 10.1487C39.847 10.1663 40.1877 10.1003 40.2496 10.4394L40.2452 10.435C39.5992 10.8315 38.8956 10.7125 38.2231 10.7522C35.9399 10.8975 33.6921 10.739 31.4177 10.7918C30.9841 10.8006 30.608 10.6773 30.3823 10.3646C30.3292 10.2148 30.2717 10.0562 30.5593 9.97694Z" fill="#BB997E"/>
<path d="M26.373 11.3422C25.8509 11.0427 25.1031 11.0559 24.5898 10.5274C26.4571 10.2587 28.2137 9.98557 29.9837 10.0076C30.227 10.0957 30.2713 10.2675 30.2359 10.4745C29.8288 10.8489 29.404 10.6199 28.9925 10.6066C28.6562 10.5978 28.3199 10.5538 27.9925 10.4965C28.758 10.6375 29.5589 10.6287 30.3332 10.7388C30.5412 10.9546 30.6164 11.2057 30.5279 11.4964C30.3111 11.8003 30.0014 11.6946 29.727 11.6814C28.5899 11.6286 27.4704 11.5052 26.3598 11.3378L26.373 11.3422Z" fill="#B9977D"/>
<path d="M39.9799 12.6773C39.9091 12.3689 40.1215 12.1002 40.2542 11.8183C40.9312 11.281 41.7587 11.488 42.5065 11.3382C43.2233 11.1973 43.918 11.0475 44.5905 10.7788C45.002 10.8669 45.418 10.9506 45.8295 11.0431C46.0463 11.0915 46.3118 11.1312 46.0994 11.4263C45.4313 12.1839 44.418 12.1531 43.5374 12.3293C42.3649 12.5672 41.1658 12.7037 39.9799 12.6773Z" fill="#B9977E"/>
<path d="M40.3828 11.4793C40.5111 10.823 40.7722 10.2768 41.7545 10.3209C42.5687 10.5719 43.5111 10.5014 44.3032 10.8142C43.0554 11.5542 41.7235 11.585 40.3828 11.4793Z" fill="#B7987F"/>
<path d="M30.1171 10.5454C30.0729 10.3648 30.0286 10.1842 29.9844 10.0036C30.1968 9.70852 30.387 9.66448 30.5552 9.97722C30.4313 10.0785 30.4578 10.1886 30.4932 10.2988C31.0729 10.9727 31.095 11.8493 31.4224 12.6157C31.4446 12.6509 31.4623 12.6862 31.4844 12.7214C31.4977 12.7566 31.5109 12.7963 31.5242 12.8315C31.533 12.8668 31.5375 12.9064 31.5463 12.9416C31.5817 13.4526 31.7145 13.9415 31.949 14.3996C31.9844 14.4613 32.0109 14.5318 32.0286 14.6023C32.0463 14.7564 31.9932 14.8974 31.8339 15.0075C31.7145 15.0515 31.6348 15.2409 31.4623 15.1132C31.4047 14.9238 31.3516 14.7344 31.2941 14.545C31.0773 14.4349 30.9755 14.2675 30.9446 14.0561C30.9313 13.9327 30.98 13.8094 31.0375 13.6905C30.949 13.4218 30.8605 13.1531 30.7764 12.8844C30.6923 12.8359 30.6835 12.7699 30.7454 12.6906C30.6658 12.4131 30.5861 12.1356 30.5065 11.8625C30.3959 11.7832 30.3605 11.6819 30.418 11.5585C30.3339 11.2854 30.2543 11.0167 30.1702 10.7437C30.0861 10.6908 30.0684 10.6291 30.1171 10.5454Z" fill="#472B16"/>
<path d="M39.4708 13.5845C41.9929 13.4348 44.5151 13.2982 46.962 12.3864C47.3381 12.2455 47.7142 12.1089 47.7186 11.6949C47.7673 11.6861 47.816 11.6773 47.8647 11.6685C47.8912 11.7257 47.9133 11.783 47.9399 11.8402C48.1036 12.4833 47.462 12.6639 46.9664 12.8754C46.0638 13.2542 45.0903 13.3951 44.1301 13.5625C42.7761 13.8004 41.4222 13.9281 40.0682 14.0162C39.8027 14.0338 39.5195 14.0735 39.3115 13.9017C39.3646 13.8004 39.4177 13.6903 39.4708 13.5845Z" fill="#84634A"/>
<path d="M39.9793 12.6772C41.0722 12.5451 42.1695 12.4306 43.2625 12.2676C44.2448 12.1222 45.2182 11.9108 46.0943 11.4219C46.1563 11.4439 46.2182 11.4659 46.2758 11.4879C45.3731 12.3821 44.1253 12.2984 43.0058 12.5055C41.9483 12.7037 40.8687 12.7565 39.7979 12.8755C39.8642 12.8138 39.9217 12.7433 39.9793 12.6772Z" fill="#826149"/>
<path d="M40.3822 11.4792C41.7097 11.4351 43.0283 11.3162 44.3026 10.814C44.3999 10.8008 44.4929 10.792 44.5902 10.7788C43.8114 11.5893 42.7274 11.4439 41.7583 11.6377C41.2628 11.7346 40.7539 11.7611 40.2539 11.8183C40.2937 11.7038 40.338 11.5937 40.3822 11.4792Z" fill="#8A674D"/>
<path d="M36.0459 15.1702C34.9131 15.1834 33.7892 15.1702 32.6565 15.179C32.3556 15.179 32.068 15.157 31.8379 15.0072C31.8689 14.8927 31.8998 14.7738 31.9308 14.6592C32.1122 14.4698 32.36 14.4566 32.5945 14.4522C34.4397 14.417 36.2848 14.3994 38.1299 14.3685C38.2804 14.3641 38.422 14.3994 38.537 14.4698C38.4087 14.8839 38.1698 15.1526 37.599 15.0909C37.3998 15.0689 37.1875 15.1394 37.0813 15.3376" fill="#735140"/>
<path d="M39.3117 13.9061C41.1701 13.6947 43.0329 13.5933 44.8869 13.2189C45.7232 13.0472 46.5639 12.8886 47.3205 12.4922C47.5993 12.3468 47.9223 12.175 47.94 11.8446C48.3161 11.8138 48.3648 12.0385 48.4135 12.2675C47.9887 13.2586 46.8471 13.448 45.9488 13.6638C43.7586 14.1924 41.5285 14.4259 39.3072 14.4126C39.2276 14.4126 39.1524 14.3598 39.0771 14.329C39.1568 14.1836 39.232 14.047 39.3117 13.9061Z" fill="#BA9980"/>
<path d="M40.1653 10.7831C40.0547 11.0342 39.9397 11.2852 39.8291 11.5363C39.4707 11.7389 39.0768 11.7786 38.6875 11.783C36.4751 11.8138 34.2538 11.9107 32.0503 11.8446C31.7804 11.8358 31.506 11.8402 31.2582 11.7742C30.7715 11.6508 30.7627 11.2412 30.8113 10.924C30.8689 10.5364 31.3158 10.7214 31.5591 10.717C34.3025 10.6862 37.0282 10.8051 39.7892 10.5893C39.9707 10.5761 40.1565 10.5761 40.1653 10.7831Z" fill="#BB997E"/>
<path d="M39.6564 11.6997C39.7184 12.0961 39.6033 12.4573 39.1918 12.748C39.1476 12.7657 39.1033 12.7833 39.0635 12.8009C36.4839 12.9815 33.9086 13.1533 31.3954 12.8273C31.2228 12.7436 31.2272 12.5851 31.183 12.4441C30.975 11.7614 30.975 11.7614 31.86 11.7702C34.4529 11.8054 37.0547 11.7438 39.6564 11.6997Z" fill="#BB997F"/>
<path d="M39.1869 12.7476C39.3418 13.0251 39.094 13.2805 39.0144 13.5492C38.7799 13.884 38.4082 13.8752 38.0453 13.9016C36.2046 14.0426 34.386 13.9633 32.5586 13.9721C31.5276 13.9765 31.5188 13.928 31.417 12.9766V12.9722C32.9834 12.8004 34.5099 12.981 36.0675 12.8885C37.1117 12.8268 38.156 12.8224 39.2002 12.7564L39.1869 12.7476Z" fill="#BB997F"/>
<path d="M39.6569 11.6991C37.8427 11.9546 36.0639 11.8444 34.2719 11.8797C33.2542 11.9017 32.2409 11.8841 31.2143 11.8797C31.1214 12.2497 31.3382 12.5184 31.3958 12.8223C30.7719 12.0867 30.7807 11.1441 30.502 10.2939C30.794 10.6067 31.2276 10.6111 31.6878 10.6023C34.5418 10.5582 37.3737 10.7124 40.2498 10.4349C40.2232 10.5494 40.1967 10.6639 40.1701 10.7741C39.5462 10.6067 38.8737 10.7785 38.2276 10.7785C36.0462 10.7785 33.8648 10.7829 31.6789 10.8137C31.4267 10.8181 30.9666 10.5847 30.9046 11.0604C30.8559 11.4128 31.0639 11.611 31.5772 11.6242C34.3161 11.7035 37.0772 11.6154 39.8338 11.5273C39.7719 11.589 39.7144 11.6418 39.6569 11.6991Z" fill="#806047"/>
<path d="M38.5411 14.4703C36.3243 14.695 34.1384 14.576 31.9349 14.6553C31.9083 14.6201 31.8862 14.5848 31.8641 14.5452C31.5853 14.162 31.5145 13.858 32.3021 13.8669C34.3862 13.8933 36.4747 13.9065 38.5765 13.7876C38.7225 13.7788 38.7889 13.8316 38.7933 13.9461C38.7048 14.1223 38.6252 14.2985 38.5411 14.4703Z" fill="#B89981"/>
<path d="M38.7897 13.95C36.6172 13.9589 34.4402 13.9809 32.2676 13.9677C31.5552 13.9633 31.8605 14.298 31.8649 14.5447C31.5065 14.0778 31.2764 13.5756 31.4225 12.9678C31.4446 13.5977 31.8694 13.8003 32.6039 13.7783C34.5419 13.7254 36.4711 13.721 38.4092 13.6858C38.6083 13.6814 38.8163 13.5933 39.0198 13.5404C39.0287 13.7078 38.9181 13.8311 38.7897 13.95Z" fill="#7F5F45"/>
<path d="M31.143 13.972C31.1961 14.1614 31.2448 14.3508 31.2979 14.5402C29.9085 14.6327 28.5766 14.4345 27.2271 14.3288C26.6873 14.6063 26.2315 14.3552 25.758 14.2891C24.3952 14.0909 23.0589 13.831 21.8244 13.3333C21.3377 13.1395 20.9571 12.8884 20.7846 12.4479C20.7271 12.0691 20.5545 11.611 21.3996 11.8533C22.3377 12.6681 23.7005 12.7915 24.9395 13.1218C26.6297 13.4786 28.382 13.6372 30.1386 13.7693C30.4837 13.8046 30.8643 13.7826 31.143 13.972Z" fill="#BA9780"/>
<path d="M20.7891 12.4526C21.5413 13.1706 22.6077 13.4393 23.6917 13.6992C24.8466 13.9767 26.0324 14.1705 27.2316 14.3291C27.1386 14.4568 27.0501 14.589 26.9572 14.7167C26.236 14.6374 25.5147 14.5581 24.7935 14.4744C23.8953 14.3731 23.1077 14.0251 22.2271 13.8666C21.3953 13.7168 20.8068 13.2587 20.7891 12.4526Z" fill="#715041"/>
<path d="M30.457 6.92854C29.9084 6.97258 29.3597 7.01223 28.5986 7.06949C29.5367 6.64663 30.342 6.70389 31.1163 6.58496C31.0632 6.76115 31.0632 6.76115 30.457 6.92854Z" fill="#D7B594"/>
<path d="M32.0765 6.62474C32.1915 6.5939 32.3066 6.55867 32.4172 6.52783C32.103 6.81414 32.2358 7.39558 31.5322 7.39998C31.7181 7.1401 31.8951 6.88022 32.0765 6.62474Z" fill="#D6B18E"/>
<path d="M31.143 13.9722C29.4218 13.7916 27.6651 13.7387 25.9749 13.4392C25.6076 13.3731 25.2049 13.3731 24.9395 13.1265C26.4749 13.285 28.0103 13.4524 29.5501 13.6022C30.0412 13.6506 30.5457 13.6594 31.0457 13.6815C31.0766 13.7828 31.112 13.8797 31.143 13.9722Z" fill="#825F45"/>
<path d="M30.7489 12.6859C30.7577 12.752 30.771 12.8137 30.7799 12.8797C30.0277 12.9458 29.3064 12.8929 28.625 12.6903C29.3684 12.4525 30.0232 12.8357 30.7489 12.6859Z" fill="#7D5B43"/>
<path d="M22.8994 11.25C23.5056 11.4879 24.1162 11.7301 24.7224 11.968C23.926 12.0076 23.3375 11.7433 22.8994 11.25Z" fill="#7A583E"/>
<path d="M26.4443 12.3903C26.993 12.3111 27.493 12.3771 27.9443 12.5886C27.3957 12.6723 26.8868 12.637 26.4443 12.3903Z" fill="#79583F"/>
<path d="M30.4223 11.5498C30.4533 11.6511 30.4843 11.7524 30.5108 11.8537C29.1214 11.7039 27.6612 11.7744 26.3604 11.3339C27.7409 11.2943 29.0285 11.6775 30.4223 11.5498Z" fill="#826046"/>
<path d="M30.1165 10.5454C30.1342 10.6114 30.1564 10.6731 30.1741 10.7392C29.3024 10.8096 28.4794 10.7127 27.7139 10.4308C28.5325 10.4 29.2979 10.6114 30.1165 10.5454Z" fill="#7E5C43"/>
<path d="M39.2058 12.7519C37.7323 13.0998 36.281 12.9237 34.8208 13.0117C33.6836 13.0822 32.5553 12.9853 31.4226 12.9677C31.4093 12.9237 31.396 12.8752 31.3916 12.8267C32.8783 12.8091 34.3651 12.7783 35.8429 12.7827C36.9624 12.7871 38.1084 12.5757 39.2058 12.7519Z" fill="#7F5E44"/>
<path d="M45.6791 18.7646C45.8384 18.4827 47.5862 17.5842 48.1526 17.2714C49.1172 16.7384 49.9092 16.3332 50.8473 15.7694C51.834 15.1791 53.1437 15.5579 53.6393 16.5755C54.5066 18.3594 55.3606 20.1566 56.219 21.9449C56.834 23.2179 57.4446 24.5041 58.0818 25.7683C58.3694 26.3409 58.8694 26.6228 59.5022 26.3893C60.0818 26.1779 60.2544 25.6934 60.157 25.1031C60.1039 24.7816 60.073 24.46 60.0199 24.1385C59.4137 20.5794 58.7765 17.0247 58.219 13.4613C58.0331 12.2896 58.1393 11.1708 59.396 10.4484C60.2455 9.95945 60.334 9.1798 59.7101 8.37372C59.4358 8.02134 59.1792 7.65134 58.9269 7.28574C58.4358 6.57657 57.719 6.29907 57.0243 6.76157C55.5066 7.77467 54.2234 7.19324 52.9004 6.40478C49.6482 4.47548 46.3827 2.5682 43.126 0.647711C42.4977 0.277708 41.8472 -0.0614612 41.2676 0.634497C40.6614 1.36129 41.1924 1.87665 41.7056 2.39201C44.0242 4.73536 46.3251 7.09193 48.6349 9.44409C49.3251 10.1489 49.2455 11.4395 48.4313 11.9813C47.4844 12.6111 46.4977 13.1794 45.5331 13.7828C45.2278 13.9766 44.9667 14.0956 44.7411 13.6771C44.3561 12.9723 44.4446 12.6508 44.0419 11.8007C43.6083 10.8845 42.6703 10.1048 39.3074 10.0123C28.4047 9.70397 27.2985 10.1048 27.2985 10.1048C26.3516 11.0166 25.6569 12.8446 26.1879 14.9985C26.3162 15.5139 26.772 16.4257 25.8339 16.6988C23.8383 17.2846 23.7144 17.408 24.1171 19.4738C24.1923 19.8702 24.3118 20.2623 24.3516 20.6675C24.4313 21.5705 24.9445 22.0903 25.7985 22.2224C26.2764 22.2973 26.5021 22.4735 26.5906 22.9536C26.6879 23.4646 26.8383 23.9755 27.0463 24.46C27.2498 24.9402 27.0906 25.1736 26.679 25.4291C20.8958 28.9882 15.1171 32.5605 9.34713 36.1328C8.97987 36.3574 8.77191 36.375 8.54182 35.9345C8.02412 34.9435 7.24536 34.9611 6.38695 35.4897C4.59048 36.5997 2.78516 37.7053 0.997547 38.8329C0.00639289 39.454 -0.0644037 40.0398 0.696661 40.9031C1.00197 41.2511 1.35595 41.467 1.32498 42.0968C1.24091 43.7002 2.57277 44.8454 4.10375 44.4138C4.96216 44.1715 5.14358 44.5151 5.43561 45.1009C7.55952 49.3383 9.67899 53.5802 11.8471 57.7955C13.2852 60.5926 16.8472 60.7908 18.6348 58.2096C19.2852 57.267 19.9091 56.3023 20.7233 55.0866C20.7233 56.5798 20.7189 57.7471 20.7233 58.9144C20.7277 59.3504 20.6171 59.8526 21.2764 59.9363C21.4799 59.8878 21.6702 59.8173 21.8029 59.6764C21.8693 59.6147 21.9224 59.5354 21.9578 59.4429C22.0905 59.139 22.1259 58.8175 22.1304 58.4915C22.1613 54.8796 22.1613 51.2676 22.1304 47.6557C22.1259 47.2505 22.0861 46.8408 21.8516 46.484C21.4666 45.8982 20.7498 45.8321 20.5065 46.4664C20.1127 47.4927 19.3516 47.4575 18.5242 47.4531C17.4224 47.4443 16.325 47.4355 15.2233 47.4531C14.387 47.4663 14.0595 47.1007 14.0684 46.2814C14.0817 45.0657 14.0595 43.85 14.0728 42.6298C14.0905 40.1631 15.1171 38.3087 17.2631 36.9873C19.9755 35.3135 23.0684 34.6527 25.9932 33.5427C26.6436 33.2961 27.2808 33.578 27.8826 33.8379C29.1215 34.3664 30.3649 34.873 31.6437 35.3002C33.7322 35.9962 33.7322 36.0006 33.7366 38.1898C33.741 44.7617 33.7277 51.3381 33.7454 57.9101C33.7499 58.4695 33.626 59.0862 33.9357 59.5883V59.5927C33.9844 59.6676 34.0375 59.7381 34.1083 59.8041C34.1525 59.8526 34.2056 59.8922 34.2587 59.9363C35.1614 60.1125 35.5375 59.6676 35.5994 58.8263C35.6348 58.2977 35.6348 57.7735 35.6348 57.2449C35.6393 50.7126 35.657 44.1803 35.6171 37.648C35.6083 36.4719 36.0109 35.8773 37.1393 35.5689C38.6747 35.1505 40.1481 34.5514 41.595 33.8907C43.1349 33.1903 43.4888 33.4062 43.4977 35.08C43.5242 39.705 43.5065 44.3301 43.5065 48.9551C43.511 52.0385 43.4844 55.1218 43.5242 58.2052C43.5331 58.8483 43.3738 59.6279 44.2366 59.9451H44.2411C44.2455 59.9495 44.2543 59.9495 44.2588 59.9539H44.2897C44.2941 59.9539 44.2942 59.9539 44.2942 59.9539C44.9888 59.9539 45.2543 59.4958 45.3605 58.8923C45.4623 58.3285 45.4357 57.7603 45.4357 57.1921C45.4402 50.0916 45.4357 42.991 45.4357 35.8949C45.4357 35.45 45.4446 35.0007 45.4534 34.5558C45.4667 33.8643 45.5198 34.5426 46.1924 34.6704C47.1924 34.8598 47.0508 34.9302 47.3473 35.0712C47.9579 35.3663 48.011 35.2166 48.0021 36.2341C47.9756 38.5466 47.9933 40.8547 47.9933 43.1716C47.9977 48.1623 47.98 53.1529 48.011 58.1391C48.0154 58.8263 47.8251 59.65 48.7057 60.0464C48.7809 60.0728 48.8561 60.0948 48.9313 60.1125C49.9181 59.6764 49.8384 58.7426 49.8782 57.9277C49.9712 56.0292 49.9181 54.1308 49.9092 52.2323C49.9048 51.3601 50.1305 50.88 51.1393 50.88C52.1083 50.8844 52.4181 51.2764 52.4136 52.1882C52.4004 54.21 52.3871 56.2318 52.4225 58.2492C52.4313 58.8439 52.3473 59.487 52.9579 59.8966C54.0774 60.3327 53.8296 59.4782 53.8296 58.9408C53.8429 53.5405 53.8473 48.1358 53.8296 42.7355C53.8207 40.0002 53.5774 37.7229 51.3561 36.1019C50.7322 35.6438 50.3782 35.5469 49.6614 34.9655C49.011 34.4457 47.511 33.763 46.9358 33.4987C46.2145 33.1683 46.0729 33.0846 45.5773 32.8292C45.2234 32.6486 45.157 32.653 44.7411 32.4019C43.8074 31.8337 44.3074 32.0671 43.0021 31.4593C42.0375 31.01 42.2233 31.0981 41.1658 30.7104C40.7986 30.5783 40.8118 30.4153 40.4667 29.8647C40.1481 29.3582 39.949 28.6314 40.303 28.1248C41.0729 27.0192 41.7809 25.5568 42.4844 24.2883C42.4888 24.2883 44.9534 20.0641 45.6791 18.7646ZM22.9003 33.0009C23.918 32.3799 24.7985 31.8425 25.8162 31.2214C25.8206 32.3622 24.9224 32.8864 22.9003 33.0009ZM12.4932 45.4533C11.6746 44.1054 10.856 42.7532 10.033 41.4097C9.89581 41.1851 9.96218 41.0089 10.1436 40.8943C11.1967 40.238 12.2586 39.5993 13.3206 38.9518C12.4533 41.119 12.7852 43.2641 12.4932 45.4533Z" fill="#24252B"/>
<path d="M21.2764 59.9318C21.4003 59.7953 21.5286 59.6587 21.6525 59.5222C22.3206 59.3063 23.0109 59.3548 23.6967 59.3548C26.5684 59.3592 29.4445 59.3548 32.3162 59.3548C33.0065 59.3548 33.6968 59.346 34.2853 59.7997C34.8384 60.0243 35.1569 59.8922 35.1481 59.2491C35.1437 58.9628 35.1481 58.6809 35.1481 58.3946C35.1481 51.2059 35.1614 44.0173 35.1304 36.8287C35.126 35.9477 35.1791 34.6879 36.0862 34.4721C38.1083 33.9964 38.9977 32.6705 40.8693 31.7588C42.1039 31.5826 44.595 32.9789 44.595 34.3488C44.595 42.4316 44.5906 50.5144 44.6039 58.5972C44.6039 59.0553 44.6039 59.8481 44.6304 59.9715L44.2366 59.9847C36.741 60.0023 29.2454 60.0199 21.7498 60.0331C21.5861 60.0375 21.4312 59.9715 21.2764 59.9318Z" fill="white"/>
<path d="M44.5821 59.9713C44.5732 59.5044 44.5865 59.1212 44.5909 58.5838C44.6219 55.7867 44.675 52.9853 44.5821 50.1882C44.5511 49.2897 45.0732 48.9857 46.9892 48.9813C52.9936 48.9725 52.9803 48.9285 52.998 51.8797C53.0113 54.5358 53.06 57.1963 53.0954 59.8523C50.0069 60.4294 47.7325 59.9449 44.5821 59.9713Z" fill="#EFAFA1"/>
<path d="M34.2854 59.8041C30.4048 59.8173 26.5243 59.8305 22.6437 59.8393C22.2809 59.8393 21.9048 59.8657 21.6526 59.5222C21.6305 55.668 21.6128 51.8094 21.5906 47.9552C21.5906 47.5896 21.5995 47.224 21.5818 46.8584C21.5641 46.5412 21.5951 46.136 21.1172 46.1624C20.6349 46.1888 20.688 46.6117 20.7322 46.9068C20.865 47.8054 20.449 47.9816 19.6305 47.9552C17.9181 47.8979 16.2057 47.9067 14.4933 47.9508C13.803 47.9684 13.5729 47.7614 13.5906 47.061C13.6393 45.396 13.5331 43.7266 13.6349 42.066C13.772 39.8503 14.7012 38.1016 16.6703 36.8331C19.6349 34.9214 23.0552 34.243 26.2499 32.9612C26.7057 32.7762 26.7322 32.5912 27.126 32.534C28.7499 32.3093 31.1836 33.7497 33.219 35.3178C34.0774 35.5424 34.2455 35.9741 34.2411 36.7802C34.2101 43.9688 34.2234 51.1531 34.2278 58.3417C34.2278 58.8306 34.2677 59.3151 34.2854 59.8041Z" fill="white"/>
<path d="M42.2491 16.7076C42.342 19.8262 42.6163 22.9668 40.842 25.8079C40.0809 27.028 39.1738 28.1072 38.0367 28.9838C36.0809 30.4902 33.5322 30.5651 31.5809 29.0807C29.1915 27.2615 27.6473 24.9049 27.311 21.8568C27.0986 20.3812 27.1827 18.8968 27.2446 17.4256C27.2933 16.3332 28.1517 16.5622 28.8729 16.7208C29.5676 17.5709 30.5322 17.2758 31.4526 17.3066C31.0013 16.941 30.2933 17.2141 29.9658 16.6415C30.103 16.0557 30.6384 15.9632 31.0809 15.8266C33.0234 15.2232 34.9659 14.6109 36.8995 13.981C37.873 13.6639 38.7314 13.7828 39.5101 14.4832C40.3818 15.2716 41.3685 15.9235 42.2491 16.7076Z" fill="#F0AFA1"/>
<path d="M20.7233 51.2765C21.1171 54.4127 18.887 56.3552 17.2188 58.4431C16.1215 59.8174 13.6436 59.346 12.8118 57.7515C10.4666 53.263 8.24536 48.7085 5.9489 44.1936C5.72323 43.7531 5.82058 43.524 6.20554 43.3214C6.24093 43.3038 6.28076 43.2862 6.31173 43.2641C9.002 41.3789 9.002 41.3789 10.6834 44.1583C10.9578 44.6076 11.2011 45.0789 11.4976 45.515C12.2985 46.669 12.9401 47.8583 12.7233 49.3428C12.6702 49.6951 12.679 50.1576 13.1879 50.1753C13.6525 50.1929 13.6259 49.7744 13.5994 49.4573C13.5507 48.8803 13.8649 48.7966 14.3427 48.801C16.2188 48.8186 18.095 48.8274 19.9711 48.7966C20.564 48.7878 20.7675 48.9992 20.7277 49.5718C20.6923 50.1356 20.7233 50.7082 20.7233 51.2765Z" fill="#F0AFA1"/>
<path d="M10.1706 36.657C15.1043 33.5869 20.0335 30.5167 24.9672 27.4466C25.2769 27.2528 25.5866 27.059 25.9008 26.8695C27.7282 25.7375 27.9141 25.808 28.9273 27.7021C29.3079 28.4112 28.6707 28.4553 28.361 28.6447C24.9141 30.7986 21.4494 32.9261 17.9937 35.0625C13.5999 37.7758 9.20605 40.4848 4.8255 43.2113C4.06886 43.6826 3.36089 43.9073 2.60426 43.2554C2.51576 42.8105 2.88302 42.7004 3.16178 42.5947C4.84762 41.9648 6.24586 40.8372 7.79011 39.965C8.83436 39.3748 9.60428 38.6303 9.79454 37.4014C9.83437 37.1195 9.99808 36.8861 10.1706 36.657Z" fill="#FFB74D"/>
<path d="M44.3467 33.626C49.7317 35.313 52.6653 37.3436 52.9175 40.0482C53.1564 42.6162 52.9175 45.1974 53.0326 47.7698C53.0679 48.5979 52.3821 48.7344 50.8157 48.7476C44.3467 48.8005 44.3511 48.8225 44.3511 45.77C44.3467 41.8277 44.3467 37.8898 44.3467 33.626Z" fill="white"/>
<path d="M52.9937 14.7873C52.4406 14.8093 52.1309 14.7432 51.8919 14.4833C51.7813 14.3644 51.6574 14.2543 51.5689 14.1221C49.1618 10.5983 49.0512 11.1665 52.361 9.1271C54.8964 7.5634 54.8211 7.33875 56.6176 9.91115C57.8477 11.6775 57.8654 11.9065 56.0601 13.0033C54.9937 13.6464 54.0114 14.4569 52.9937 14.7873Z" fill="#FFB74D"/>
<path d="M58.9623 25.5434C58.2765 24.1471 57.5818 22.7552 56.9048 21.3544C56.0552 19.6013 55.2499 17.8262 54.3561 16.0995C54.011 15.4344 54.1039 15.104 54.7588 14.7781C55.5906 14.364 56.3783 13.8707 57.188 13.4126C57.657 14.2451 57.6039 15.1877 57.7632 16.0819C58.3119 19.1873 58.8296 22.2971 59.3606 25.4025C59.2234 25.4509 59.0951 25.495 58.9623 25.5434Z" fill="#FFB74D"/>
<path d="M42.1302 1.02246C45.7807 3.172 49.4311 5.32154 53.1524 7.51072C52.2851 8.34323 51.2895 8.74407 50.4311 9.34752C50.1877 9.51931 49.9355 9.58098 49.6745 9.31229C47.0771 6.64298 44.4709 3.97808 41.8691 1.31318C41.9576 1.21627 42.0461 1.11937 42.1302 1.02246Z" fill="#FFB74D"/>
<path d="M29.0335 17.1525C27.4936 16.7076 27.3476 16.8133 27.3388 18.355C27.3299 19.5223 27.3211 20.6939 27.3078 21.8612C26.8963 19.9804 27.1706 18.0819 27.1352 16.1878C27.1308 15.9147 27.2326 15.7121 27.5511 15.7209C30.0158 15.7782 32.1397 14.4788 34.4671 13.9854C34.5866 13.959 34.6972 13.9106 34.8078 13.8577C36.9848 12.8182 39.0025 12.6596 40.6397 14.8444C40.8167 15.0822 41.1707 15.2849 41.4627 15.3245C42.4007 15.439 42.4008 16.0116 42.2503 16.7032C40.8388 16.6988 40.237 15.4214 39.2636 14.7475C38.6043 14.2894 38.0512 13.9898 37.2768 14.2762C34.8786 15.1527 32.3432 15.624 30.0246 16.7296C29.8963 17.3419 29.5158 17.3595 29.0335 17.1525Z" fill="#F0AFA1"/>
<path d="M2.56351 40.8944C1.95732 40.8724 1.39537 40.6829 1.19625 40.0795C0.992711 39.4628 1.65643 39.4056 1.98829 39.1985C3.4529 38.2603 4.9352 37.3441 6.43078 36.4631C6.81574 36.2385 7.22724 35.5558 7.74937 36.2781C8.19627 36.8904 8.06796 37.4983 7.59008 38.0445C7.45733 38.1942 7.28034 38.3044 7.10777 38.4101C5.93963 39.1369 4.76706 39.8548 3.59449 40.5728C3.2759 40.7622 2.94404 40.8988 2.56351 40.8944Z" fill="#EFAEA1"/>
<path d="M10.1696 36.6567C10.2626 38.2072 9.66079 39.3216 8.27141 40.1233C6.39972 41.2025 4.65192 42.5019 2.59882 43.2595C1.85988 42.1451 1.97935 42.2112 3.08997 41.6386C5.2006 40.5462 7.57671 39.7665 8.8776 37.5069C9.12981 37.062 9.66521 36.8285 10.1696 36.6567Z" fill="#DC8668"/>
<path d="M46.1211 14.4566C46.9662 13.9104 47.8335 13.3906 48.6521 12.8092C49.1919 12.4259 49.5105 12.5669 49.8158 13.0779C50.0193 13.4214 50.245 13.7694 50.5105 14.0645C50.9795 14.5843 50.7804 14.8706 50.2494 15.1657C49.3689 15.6591 48.5149 16.1964 47.6521 16.7118C46.6344 16.3947 46.1476 15.6811 46.1211 14.4566Z" fill="#FFB74D"/>
<path d="M26.3254 19.4119C26.3254 19.8567 26.3343 20.2972 26.321 20.7421C26.3166 21.0152 26.3653 21.3412 25.9405 21.3588C25.613 21.372 25.3741 21.1914 25.3077 20.8963C25.113 20.0329 24.9051 19.1696 24.7989 18.2974C24.7281 17.7204 25.2148 17.5795 25.6883 17.5442C26.2679 17.4958 26.3387 17.8746 26.321 18.3239C26.3122 18.6851 26.3254 19.0507 26.3254 19.4119Z" fill="#D08A80"/>
<path d="M57.5557 7.42676C57.9849 7.42676 59.2194 8.85391 59.1796 9.28118C59.1176 9.91987 58.5158 10.0344 58.0734 10.2723C57.9362 10.3471 56.4495 8.40903 56.5158 8.1976C56.6751 7.67343 57.1884 7.59414 57.5557 7.42676Z" fill="#FFB74D"/>
<path d="M43.2061 19.4432C43.2061 19.0776 43.2194 18.712 43.2061 18.3464C43.1884 17.8839 43.2725 17.5403 43.861 17.5844C44.3831 17.624 44.7636 17.8354 44.684 18.3993C44.5689 19.2009 44.3787 19.9894 44.2105 20.7823C44.1353 21.1435 43.8875 21.3769 43.5203 21.3373C43.1132 21.2932 43.2238 20.9188 43.2149 20.6589C43.1928 20.2537 43.2061 19.8484 43.2061 19.4432Z" fill="#DB9085"/>
<path d="M39.5469 29.2396C36.7505 32.3494 33.5956 32.6005 30.2239 30.9663C29.5469 30.3496 28.8743 29.7374 28.1619 29.0854C27.6177 31.2746 27.6133 31.2834 29.1664 31.9838C29.6885 32.2217 30.2283 32.4155 30.7593 32.6269C31.6531 33.3405 32.808 33.4814 33.5469 34.5386C33.7903 34.8866 34.0513 34.891 34.3257 34.5474C35.5735 32.9793 37.3345 32.715 38.8744 31.9045C40.3655 31.1249 40.3876 31.1909 39.5469 29.2396Z" fill="#F0AFA1"/>
<path d="M46.1214 14.4565C46.586 15.2406 46.9046 16.1216 47.6524 16.7162C47.2453 17.1435 46.8692 17.2272 46.5285 16.6325C46.2718 16.1832 45.9931 15.7516 45.7231 15.3155C45.4267 14.831 45.6435 14.5843 46.1214 14.4565Z" fill="#DA8667"/>
<path d="M35.6124 21.0857C36.0947 20.6496 36.4752 20.7113 36.4398 21.3984C36.4 22.1825 36.7496 22.3058 37.431 22.3719C38.6876 22.4952 39.2496 23.6096 38.7186 24.7637C38.4664 25.3055 38.0106 25.3363 37.4885 25.2923C35.6611 25.1337 33.8336 25.1249 32.0106 25.3011C31.3823 25.3628 30.7805 25.2967 30.7805 24.5302C30.7805 23.7638 30.3159 22.7243 31.608 22.4556C32.3204 22.3058 33.1257 22.4424 33.0372 21.2266C32.9929 20.6496 33.5549 20.7906 33.9088 21.1165C33.9398 21.143 33.9708 21.1694 34.0062 21.1914C34.4619 21.4733 34.1168 22.4336 34.8292 22.3675C35.4177 22.297 35.192 21.4293 35.6124 21.0857Z" fill="#26272E"/>
<path d="M35.6122 21.0859C35.6078 21.8524 35.9175 22.9448 34.7538 22.9536C33.5458 22.9668 33.9264 21.8568 33.9042 21.108C34.4706 21.0992 35.0414 21.0947 35.6122 21.0859Z" fill="#E5998C"/>
<path d="M38.7945 17.5927C38.4007 17.6456 38.0024 17.7029 37.5998 17.7425C37.3564 17.7689 37.0777 17.7777 37.029 17.4562C36.9847 17.1787 37.1706 17.0289 37.4272 16.9452C38.2591 16.6677 39.0865 16.6237 39.9272 16.9144C40.2016 17.0069 40.5202 17.1038 40.4582 17.4562C40.3918 17.8394 40.0423 17.7557 39.7679 17.7249C39.4449 17.6852 39.1263 17.6368 38.7945 17.5927Z" fill="#383237"/>
<path d="M34.8472 27.1161C34.7278 27.1073 34.6835 27.1117 34.6481 27.0985C34.0862 26.8959 33.0109 27.1954 33.0729 26.4025C33.1392 25.5656 34.0021 26.3673 34.5021 26.2351C34.887 26.1338 35.3074 26.1647 35.7056 26.0986C35.9977 26.0501 36.3118 25.9356 36.4136 26.31C36.5375 26.7461 36.1702 26.8518 35.8516 26.9267C35.4977 27.0104 35.1348 27.0632 34.8472 27.1161Z" fill="#312E33"/>
<path d="M29.0332 17.1524C29.365 17.0115 29.6969 16.8705 30.0243 16.734C30.7102 16.7076 31.3916 16.712 32.0464 16.9542C32.2898 17.0423 32.5022 17.1789 32.4358 17.4652C32.4093 17.5841 32.2057 17.7647 32.1172 17.7471C31.1615 17.5621 30.2146 17.659 29.2544 17.7295C28.9712 17.7515 28.9845 17.3991 29.0332 17.1524Z" fill="#353034"/>
<path d="M30.2676 18.8481C30.2809 18.5222 30.2764 18.1478 30.7278 18.161C31.2499 18.1786 31.1968 18.6147 31.1968 18.9671C31.1968 19.293 31.157 19.663 30.7189 19.6542C30.1747 19.641 30.2941 19.1873 30.2676 18.8481Z" fill="#42393D"/>
<path d="M38.3301 18.9185C38.3655 18.619 38.2372 18.1917 38.7195 18.1785C39.1973 18.1653 39.1442 18.5794 39.1487 18.8877C39.1531 19.2004 39.2062 19.6145 38.7504 19.6321C38.2593 19.6541 38.3611 19.2225 38.3301 18.9185Z" fill="#27262D"/>
<path d="M37.0102 24.504C35.4836 24.1648 33.9969 24.1428 32.5013 24.4731C32.1783 24.5436 31.8243 24.4952 31.7624 24.0547C31.7093 23.7111 31.7624 23.4204 32.1562 23.275C32.665 23.0856 33.1385 22.9227 33.6341 23.3499C34.3863 23.993 35.1872 23.9886 35.9482 23.3543C36.3465 23.0196 36.7358 23.0284 37.196 23.1869C37.6341 23.3367 37.9217 23.5305 37.8288 24.0503C37.7358 24.5701 37.3199 24.4599 37.0102 24.504Z" fill="#343C48"/>
<path d="M52.7855 49.3869H44.7456C44.5863 49.3869 44.458 49.2591 44.458 49.1006V48.3473C44.458 48.1888 44.5863 48.061 44.7456 48.061H52.7855C52.9448 48.061 53.0731 48.1888 53.0731 48.3473V49.1006C53.0731 49.2591 52.9448 49.3869 52.7855 49.3869Z" fill="#24252B"/>
<path d="M37.8606 3.81006L37.7633 3.75279C37.3872 3.49291 37.0067 3.23303 36.6305 2.97314C36.5996 3.01279 36.5686 3.05243 36.5332 3.08767C36.604 3.18457 36.6571 3.25065 36.6748 3.2991C36.9845 3.51053 37.2412 3.69553 37.5509 3.90696L37.5996 3.9422L48.6085 11.8488L48.7678 11.611L37.8606 3.81006Z" fill="#7A5832"/>
<path d="M53.7986 59.5132H20.71V60.2312H53.7986V59.5132Z" fill="#24252B"/>
</svg>
