<svg width="24" height="24" viewBox="0 0 24 24" fill="none" xmlns="http://www.w3.org/2000/svg">
<path d="M7.95313 7.3335C7.95313 6.93793 7.83583 6.55126 7.61607 6.22236C7.3963 5.89346 7.08395 5.63711 6.71849 5.48574C6.35304 5.33436 5.95091 5.29476 5.56295 5.37193C5.17498 5.4491 4.81862 5.63958 4.53891 5.91928C4.25921 6.19899 4.06873 6.55535 3.99156 6.94332C3.91438 7.33128 3.95399 7.73341 4.10537 8.09886C4.25674 8.46432 4.51309 8.77667 4.84199 8.99644C5.17088 9.2162 5.55756 9.3335 5.95313 9.3335C6.48356 9.3335 6.99227 9.12278 7.36734 8.74771C7.74241 8.37264 7.95313 7.86393 7.95313 7.3335ZM4.88646 7.3335C4.88646 7.12253 4.94902 6.9163 5.06622 6.74089C5.18343 6.56548 5.35002 6.42876 5.54493 6.34803C5.73984 6.26729 5.95431 6.24617 6.16122 6.28733C6.36814 6.32848 6.5582 6.43007 6.70737 6.57925C6.85655 6.72843 6.95814 6.91849 6.9993 7.1254C7.04045 7.33231 7.01933 7.54679 6.9386 7.74169C6.85786 7.9366 6.72115 8.10319 6.54573 8.2204C6.37032 8.33761 6.16409 8.40016 5.95313 8.40016C5.67023 8.40016 5.39892 8.28778 5.19888 8.08774C4.99884 7.88771 4.88646 7.6164 4.88646 7.3335Z" fill="#C88719"/>
<path d="M11.5863 13.8466L8.91962 11.1799C8.79471 11.0558 8.62575 10.9861 8.44962 10.9861C8.2735 10.9861 8.10453 11.0558 7.97962 11.1799L3.94629 15.2666V17.1533L8.47296 12.6266L10.6663 14.7866L8.16629 17.2866H9.99962L15.633 11.6533L19.9996 15.9999V14.1199L16.1263 10.2466C16.0014 10.1224 15.8324 10.0527 15.6563 10.0527C15.4802 10.0527 15.3112 10.1224 15.1863 10.2466L11.5863 13.8466Z" fill="#C88719"/>
<path d="M21.333 8.81317V19.9998H2.66634V3.99984H14.9997C15.0014 3.549 15.0642 3.10048 15.1863 2.6665H2.66634C2.31272 2.6665 1.97358 2.80698 1.72353 3.05703C1.47348 3.30708 1.33301 3.64622 1.33301 3.99984V19.9998C1.33301 20.3535 1.47348 20.6926 1.72353 20.9426C1.97358 21.1927 2.31272 21.3332 2.66634 21.3332H21.333C21.6866 21.3332 22.0258 21.1927 22.2758 20.9426C22.5259 20.6926 22.6663 20.3535 22.6663 19.9998V8.2265C22.2531 8.48653 21.8039 8.68421 21.333 8.81317Z" fill="#C88719"/>
<path d="M20.0003 7.33317C21.8413 7.33317 23.3337 5.84079 23.3337 3.99984C23.3337 2.15889 21.8413 0.666504 20.0003 0.666504C18.1594 0.666504 16.667 2.15889 16.667 3.99984C16.667 5.84079 18.1594 7.33317 20.0003 7.33317Z" fill="#C88719"/>
</svg>
