<svg width="48" height="48" viewBox="0 0 48 48" fill="none" xmlns="http://www.w3.org/2000/svg">
<path d="M23.2193 28.7807L23.219 28.7804C23.1171 28.6776 23.0364 28.5557 22.9817 28.4217C22.927 28.2878 22.8992 28.1444 22.9 27.9998V28L23.2193 28.7807ZM23.2193 28.7807L26.219 31.7804L23.2193 28.7807ZM27.7807 31.7807C27.8837 31.6785 27.9654 31.557 28.0212 31.423C28.077 31.289 28.1058 31.1452 28.1058 31C28.1058 30.8548 28.077 30.711 28.0212 30.577C27.9654 30.443 27.8836 30.3214 27.7806 30.2192L26.2193 31.7807C26.3215 31.8837 26.443 31.9654 26.577 32.0212C26.711 32.077 26.8548 32.1058 27 32.1058C27.1452 32.1058 27.289 32.077 27.423 32.0212C27.557 31.9654 27.6785 31.8837 27.7807 31.7807ZM27.7807 31.7807C27.7808 31.7806 27.7809 31.7805 27.781 31.7804L27.71 31.71L27.7804 31.781C27.7805 31.7809 27.7806 31.7808 27.7807 31.7807ZM20.54 8.64637L20.54 8.64633C20.2858 8.12266 19.8893 7.68114 19.3959 7.3723C18.9025 7.06347 18.3321 6.89979 17.75 6.9C17.75 6.9 17.75 6.9 17.75 6.9L7 6.9C6.17783 6.9 5.38933 7.22661 4.80797 7.80797C4.22661 8.38933 3.9 9.17783 3.9 10V38C3.9 38.8222 4.22661 39.6107 4.80797 40.192C5.38933 40.7734 6.17783 41.1 7 41.1H41C41.8222 41.1 42.6107 40.7734 43.192 40.192C43.7734 39.6107 44.1 38.8222 44.1 38V14C44.1 13.1778 43.7734 12.3893 43.192 11.808C42.6107 11.2266 41.8222 10.9 41 10.9H21.6326L20.54 8.64637ZM17.75 9.1L17.7502 9.1C17.9189 9.09966 18.0843 9.14673 18.2275 9.23585C18.3706 9.32492 18.4859 9.45241 18.5601 9.60379C18.5601 9.60386 18.5602 9.60393 18.5602 9.604L21.35 15.3537L21.44 15.31L21.35 15.3537C21.6042 15.8773 22.0007 16.3189 22.4941 16.6277C22.9875 16.9365 23.5579 17.1002 24.14 17.1C24.14 17.1 24.14 17.1 24.14 17.1H39C39.2917 17.1 39.5715 16.9841 39.7778 16.7778C39.9841 16.5715 40.1 16.2917 40.1 16C40.1 15.7083 39.9841 15.4285 39.7778 15.2222C39.5715 15.0159 39.2917 14.9 39 14.9L24.14 14.9L24.1398 14.9C23.9711 14.9003 23.8057 14.8533 23.6625 14.7642C23.5194 14.6751 23.4041 14.5476 23.3299 14.3963C23.3299 14.3962 23.3298 14.3961 23.3298 14.396L22.6998 13.1H41C41.2387 13.1 41.4676 13.1948 41.6364 13.3636C41.8052 13.5324 41.9 13.7613 41.9 14V38C41.9 38.2387 41.8052 38.4676 41.6364 38.6364C41.4676 38.8052 41.2387 38.9 41 38.9H7C6.76131 38.9 6.53239 38.8052 6.3636 38.6364C6.19482 38.4676 6.1 38.2387 6.1 38V10C6.1 9.76131 6.19482 9.53239 6.3636 9.3636C6.53239 9.19482 6.76131 9.1 7 9.1L17.75 9.1ZM22.9 24L22.9 27.9994L27.7804 30.219L25.1 27.5485V24C25.1 23.7083 24.9841 23.4285 24.7778 23.2222C24.5715 23.0159 24.2917 22.9 24 22.9C23.7083 22.9 23.4285 23.0159 23.2222 23.2222C23.0159 23.4285 22.9 23.7083 22.9 24ZM24 19.9C22.398 19.9 20.8319 20.3751 19.4999 21.2651C18.1678 22.1551 17.1296 23.4202 16.5166 24.9003C15.9035 26.3803 15.7431 28.009 16.0556 29.5802C16.3682 31.1515 17.1396 32.5948 18.2724 33.7276C19.4052 34.8604 20.8485 35.6318 22.4198 35.9444C23.991 36.2569 25.6197 36.0965 27.0997 35.4834C28.5798 34.8704 29.8449 33.8322 30.7349 32.5001C31.6249 31.1681 32.1 29.602 32.1 28C32.1 25.8517 31.2466 23.7915 29.7276 22.2724C28.2085 20.7534 26.1483 19.9 24 19.9ZM24 33.9C22.8331 33.9 21.6924 33.554 20.7221 32.9057C19.7519 32.2574 18.9957 31.3359 18.5491 30.2578C18.1026 29.1797 17.9857 27.9935 18.2134 26.849C18.441 25.7045 19.0029 24.6532 19.8281 23.8281C20.6532 23.0029 21.7045 22.441 22.849 22.2134C23.9935 21.9857 25.1797 22.1026 26.2578 22.5491C27.3359 22.9957 28.2574 23.7519 28.9057 24.7221C29.554 25.6924 29.9 26.8331 29.9 28C29.9 29.5648 29.2784 31.0655 28.1719 32.1719C27.0655 33.2784 25.5648 33.9 24 33.9Z" fill="#424242" stroke="black" stroke-width="0.2"/>
</svg>
