<svg width="24" height="24" viewBox="0 0 24 24" fill="none" xmlns="http://www.w3.org/2000/svg">
<path d="M11 11H13.12L19.28 4.84L17.16 2.72L11 8.88V11ZM20.71 2L20 1.29C19.9075 1.1973 19.7976 1.12375 19.6766 1.07357C19.5557 1.02339 19.426 0.997559 19.295 0.997559C19.164 0.997559 19.0343 1.02339 18.9134 1.07357C18.7924 1.12375 18.6825 1.1973 18.59 1.29L17.87 2.01L19.99 4.13L20.71 3.41C20.8027 3.31749 20.8763 3.2076 20.9264 3.08663C20.9766 2.96565 21.0024 2.83597 21.0024 2.705C21.0024 2.57403 20.9766 2.44435 20.9264 2.32338C20.8763 2.2024 20.8027 2.09252 20.71 2ZM17.9 9.05C17.96 9.41 18 9.79 18 10.2C18 11.91 16.92 14.84 12 19.34C7.08 14.85 6 11.91 6 10.2C6 6.17 9.09 4 12 4C12.32 4 12.65 4.03 12.97 4.08L14.62 2.43C13.7743 2.15128 12.8904 2.0062 12 2C7.8 2 4 5.22 4 10.2C4 13.52 6.67 17.45 12 22C17.33 17.45 20 13.52 20 10.2C20 9.19 19.84 8.26 19.55 7.4L17.9 9.05Z" fill="#C88719"/>
</svg>
