<svg width="12" height="12" viewBox="0 0 12 12" fill="none" xmlns="http://www.w3.org/2000/svg">
<path d="M10.9765 8.41364C10.8062 8.32015 10.5925 8.38233 10.4991 8.55249C10.4056 8.72267 10.4677 8.93642 10.6379 9.02988C11.0567 9.25995 11.2969 9.51499 11.2969 9.72963C11.2969 9.99216 10.9249 10.399 9.88095 10.7537C8.84958 11.1041 7.47129 11.2971 6 11.2971C4.52871 11.2971 3.15042 11.1041 2.11905 10.7537C1.07508 10.3991 0.703125 9.99216 0.703125 9.72963C0.703125 9.51499 0.943313 9.25995 1.36209 9.02986C1.53227 8.93639 1.59443 8.72264 1.50094 8.55246C1.40745 8.38231 1.19377 8.32013 1.02354 8.41362C0.556617 8.67014 0 9.10669 0 9.72963C0 10.2071 0.328406 10.888 1.89286 11.4195C2.99517 11.794 4.45378 12.0002 6 12.0002C7.54622 12.0002 9.00483 11.794 10.1071 11.4195C11.6716 10.888 12 10.2071 12 9.72963C12 9.10669 11.4434 8.67014 10.9765 8.41364Z" fill="#424242"/>
<path d="M3.3461 10.245C4.05977 10.4466 5.00241 10.5576 6.00035 10.5576C6.9983 10.5576 7.94093 10.4466 8.6546 10.245C9.52772 9.99836 9.97043 9.64131 9.97043 9.18386C9.97043 8.72638 9.52772 8.36938 8.6546 8.12275C8.46077 8.068 8.24998 8.01997 8.02587 7.979C7.90416 8.18929 7.77663 8.40573 7.6433 8.62841C7.89136 8.66563 8.12426 8.71126 8.33576 8.76514C8.97832 8.92881 9.21307 9.11305 9.26133 9.18388C9.21305 9.25473 8.97834 9.43897 8.33578 9.60261C7.7276 9.75751 6.94512 9.84587 6.12098 9.85377C6.08107 9.85672 6.04085 9.85839 6.00035 9.85839C5.95983 9.85839 5.91963 9.85672 5.8797 9.85377C5.05556 9.84587 4.27308 9.75753 3.6649 9.60261C3.02234 9.43897 2.78761 9.25471 2.73935 9.18388C2.78761 9.11305 3.02236 8.92881 3.66492 8.76514C3.87642 8.71128 4.10932 8.66563 4.35741 8.62841C4.22407 8.40575 4.09655 8.18926 3.97484 7.979C3.75073 8.02 3.53991 8.068 3.3461 8.12275C2.47298 8.36938 2.03027 8.7264 2.03027 9.18386C2.03027 9.64131 2.47298 9.99833 3.3461 10.245Z" fill="#424242"/>
<path d="M6.00055 9.15548C6.31351 9.15548 6.59778 8.99601 6.76105 8.7289C7.90503 6.85725 9.26867 4.39055 9.26867 3.2681C9.26867 1.46606 7.80261 0 6.00055 0C4.19848 0 2.73242 1.46606 2.73242 3.2681C2.73242 4.39055 4.09609 6.85725 5.24005 8.7289C5.40331 8.99601 5.68761 9.15548 6.00055 9.15548ZM4.68695 3.04371C4.68695 2.31942 5.27623 1.73016 6.00055 1.73016C6.72486 1.73016 7.31415 2.31942 7.31415 3.04371C7.31415 3.76802 6.72486 4.35729 6.00055 4.35729C5.27623 4.35729 4.68695 3.76805 4.68695 3.04371Z" fill="#424242"/>
</svg>
