<svg width="24" height="22" viewBox="0 0 24 22" fill="none" xmlns="http://www.w3.org/2000/svg">
<path d="M21 4H18V3C18 2.20435 17.6839 1.44129 17.1213 0.87868C16.5587 0.316071 15.7956 0 15 0H9C8.20435 0 7.44129 0.316071 6.87868 0.87868C6.31607 1.44129 6 2.20435 6 3V4H3C2.20435 4 1.44129 4.31607 0.87868 4.87868C0.316071 5.44129 0 6.20435 0 7V19C0 19.7956 0.316071 20.5587 0.87868 21.1213C1.44129 21.6839 2.20435 22 3 22H21C21.7956 22 22.5587 21.6839 23.1213 21.1213C23.6839 20.5587 24 19.7956 24 19V7C24 6.20435 23.6839 5.44129 23.1213 4.87868C22.5587 4.31607 21.7956 4 21 4ZM8 3C8 2.73478 8.10536 2.48043 8.29289 2.29289C8.48043 2.10536 8.73478 2 9 2H15C15.2652 2 15.5196 2.10536 15.7071 2.29289C15.8946 2.48043 16 2.73478 16 3V4H8V3ZM22 19C22 19.2652 21.8946 19.5196 21.7071 19.7071C21.5196 19.8946 21.2652 20 21 20H3C2.73478 20 2.48043 19.8946 2.29289 19.7071C2.10536 19.5196 2 19.2652 2 19V7C2 6.73478 2.10536 6.48043 2.29289 6.29289C2.48043 6.10536 2.73478 6 3 6H21C21.2652 6 21.5196 6.10536 21.7071 6.29289C21.8946 6.48043 22 6.73478 22 7V19ZM20 17C20 17.2652 19.8946 17.5196 19.7071 17.7071C19.5196 17.8946 19.2652 18 19 18H15C14.7348 18 14.4804 17.8946 14.2929 17.7071C14.1054 17.5196 14 17.2652 14 17C14 16.7348 14.1054 16.4804 14.2929 16.2929C14.4804 16.1054 14.7348 16 15 16H19C19.2652 16 19.5196 16.1054 19.7071 16.2929C19.8946 16.4804 20 16.7348 20 17ZM20 13C20 13.2652 19.8946 13.5196 19.7071 13.7071C19.5196 13.8946 19.2652 14 19 14H15C14.7348 14 14.4804 13.8946 14.2929 13.7071C14.1054 13.5196 14 13.2652 14 13C14 12.7348 14.1054 12.4804 14.2929 12.2929C14.4804 12.1054 14.7348 12 15 12H19C19.2652 12 19.5196 12.1054 19.7071 12.2929C19.8946 12.4804 20 12.7348 20 13ZM20 9C20 9.26522 19.8946 9.51957 19.7071 9.70711C19.5196 9.89464 19.2652 10 19 10H15C14.7348 10 14.4804 9.89464 14.2929 9.70711C14.1054 9.51957 14 9.26522 14 9C14 8.73478 14.1054 8.48043 14.2929 8.29289C14.4804 8.10536 14.7348 8 15 8H19C19.2652 8 19.5196 8.10536 19.7071 8.29289C19.8946 8.48043 20 8.73478 20 9ZM10.77 12.14C10.9229 11.7794 11.0011 11.3916 11 11C11 10.2044 10.6839 9.44129 10.1213 8.87868C9.55871 8.31607 8.79565 8 8 8C7.20435 8 6.44129 8.31607 5.87868 8.87868C5.31607 9.44129 5 10.2044 5 11C4.9989 11.3916 5.07714 11.7794 5.23 12.14C4.84146 12.5082 4.53201 12.9516 4.32054 13.4434C4.10906 13.9351 4 14.4647 4 15V17C4 17.2652 4.10536 17.5196 4.29289 17.7071C4.48043 17.8946 4.73478 18 5 18H11C11.2652 18 11.5196 17.8946 11.7071 17.7071C11.8946 17.5196 12 17.2652 12 17V15C12 14.4647 11.8909 13.9351 11.6795 13.4434C11.468 12.9516 11.1585 12.5082 10.77 12.14ZM8 10C8.19542 10.0007 8.38634 10.0587 8.54917 10.1668C8.71199 10.2749 8.83959 10.4283 8.91619 10.608C8.99278 10.7878 9.01502 10.9861 8.98015 11.1784C8.94529 11.3707 8.85484 11.5486 8.72 11.69C8.62672 11.7868 8.51488 11.8638 8.39117 11.9163C8.26746 11.9689 8.13442 11.996 8 11.996C7.86558 11.996 7.73254 11.9689 7.60883 11.9163C7.48512 11.8638 7.37328 11.7868 7.28 11.69C7.14516 11.5486 7.05471 11.3707 7.01985 11.1784C6.98498 10.9861 7.00722 10.7878 7.08381 10.608C7.16041 10.4283 7.28801 10.2749 7.45083 10.1668C7.61366 10.0587 7.80458 10.0007 8 10ZM10 16H6V15C6.00461 14.4885 6.20501 13.9983 6.56 13.63H6.66C6.82049 13.7112 6.9878 13.7781 7.16 13.83H7.29C7.51981 13.9122 7.75788 13.9692 8 14C8.23919 13.9953 8.4772 13.9651 8.71 13.91H8.84C9.0122 13.8581 9.17951 13.7912 9.34 13.71H9.44C9.77667 14.058 9.97565 14.5164 10 15V16Z" fill="#C88719"/>
</svg>
