<svg width="48" height="48" viewBox="0 0 48 48" fill="none" xmlns="http://www.w3.org/2000/svg">
<g clip-path="url(#clip0_551_804)">
<path fill-rule="evenodd" clip-rule="evenodd" d="M8.21719 16.9819C8.21719 16.9819 7.6067 13.6263 7.1642 11.1948C6.7757 9.05576 4.9127 7.50024 2.7377 7.50024C2.0507 7.50024 1.49121 7.50024 1.49121 7.50024V10.5003C1.49121 10.5003 2.0507 10.5003 2.7377 10.5003C3.4622 10.5003 4.08321 11.0193 4.21371 11.7318C4.65471 14.1633 5.26521 17.5189 5.26521 17.5189C5.41371 18.3334 6.1952 18.8749 7.0097 18.7264C7.8242 18.5779 8.36569 17.7964 8.21719 16.9819Z" fill="#424242"/>
<path fill-rule="evenodd" clip-rule="evenodd" d="M2.53007 7.50024H1.50033C0.672422 7.50024 0 8.17225 0 9.00026C0 9.82827 0.672422 10.5003 1.50033 10.5003H2.53007C3.35799 10.5003 4.03041 9.82827 4.03041 9.00026C4.03041 8.17225 3.35799 7.50024 2.53007 7.50024Z" fill="#424242"/>
<path fill-rule="evenodd" clip-rule="evenodd" d="M31.8647 38.9995C29.3815 38.9995 27.3652 41.0158 27.3652 43.4991C27.3652 45.9843 29.3815 48.0006 31.8647 48.0006C34.3499 48.0006 36.3662 45.9843 36.3662 43.4991C36.3662 41.0158 34.3499 38.9995 31.8647 38.9995ZM31.8647 42.0005C32.6931 42.0005 33.3652 42.6726 33.3652 43.4991C33.3652 44.3275 32.6931 44.9996 31.8647 44.9996C31.0383 44.9996 30.3662 44.3275 30.3662 43.4991C30.3662 42.6726 31.0383 42.0005 31.8647 42.0005Z" fill="#424242"/>
<path fill-rule="evenodd" clip-rule="evenodd" d="M12.3667 38.9995C9.88345 38.9995 7.86719 41.0158 7.86719 43.4991C7.86719 45.9843 9.88345 48.0006 12.3667 48.0006C14.8518 48.0006 16.8681 45.9843 16.8681 43.4991C16.8681 41.0158 14.8518 38.9995 12.3667 38.9995ZM12.3667 42.0005C13.1951 42.0005 13.8672 42.6726 13.8672 43.4991C13.8672 44.3275 13.1951 44.9996 12.3667 44.9996C11.5402 44.9996 10.8681 44.3275 10.8681 43.4991C10.8681 42.6726 11.5402 42.0005 12.3667 42.0005Z" fill="#424242"/>
<path fill-rule="evenodd" clip-rule="evenodd" d="M12.3662 33.0005H9.3662C8.17221 33.0005 7.0277 33.4745 6.18471 34.319C5.34021 35.162 4.86621 36.3065 4.86621 37.5005H6.36621H4.86621C4.86621 38.6946 5.34021 39.8391 6.18471 40.6821C7.0277 41.5266 8.17221 42.0006 9.3662 42.0006C16.1072 42.0006 31.8662 42.0006 31.8662 42.0006C32.6942 42.0006 33.3662 41.3286 33.3662 40.5006C33.3662 39.6726 32.6942 39.0006 31.8662 39.0006C31.8662 39.0006 16.1072 39.0006 9.3662 39.0006C8.9687 39.0006 8.5862 38.8431 8.3057 38.5611C8.0237 38.2806 7.86621 37.898 7.86621 37.5005H6.36621H7.86621C7.86621 37.103 8.0237 36.7205 8.3057 36.44C8.5862 36.158 8.9687 36.0005 9.3662 36.0005H12.3662C13.1942 36.0005 13.8662 35.3285 13.8662 34.5005C13.8662 33.6725 13.1942 33.0005 12.3662 33.0005Z" fill="#424242"/>
<path fill-rule="evenodd" clip-rule="evenodd" d="M19.8662 15.0003V34.5005C19.8662 35.3285 20.5382 36.0005 21.3662 36.0005C22.1942 36.0005 22.8662 35.3285 22.8662 34.5005V15.0003C22.8662 14.1723 22.1942 13.5002 21.3662 13.5002C20.5382 13.5002 19.8662 14.1723 19.8662 15.0003Z" fill="#424242"/>
<path fill-rule="evenodd" clip-rule="evenodd" d="M11.6264 15.1727L13.8764 34.673C13.9709 35.495 14.7149 36.086 15.5384 35.99C16.3604 35.8955 16.9514 35.1515 16.8554 34.328L14.6054 14.8277C14.5109 14.0057 13.7669 13.4147 12.9434 13.5107C12.1214 13.6052 11.5304 14.3492 11.6264 15.1727Z" fill="#424242"/>
<path fill-rule="evenodd" clip-rule="evenodd" d="M28.8554 34.6716L30.4139 21.1714C30.5084 20.3479 29.9174 19.6039 29.0954 19.5094C28.2734 19.4134 27.5279 20.0044 27.4334 20.8264L25.8764 34.3265C25.7804 35.15 26.3714 35.8941 27.1934 35.9886C28.0169 36.0846 28.7609 35.4936 28.8554 34.6716Z" fill="#424242"/>
<path fill-rule="evenodd" clip-rule="evenodd" d="M8.61647 30.0005H34.1165C34.9438 30.0005 35.6167 29.3285 35.6167 28.5005C35.6167 27.6725 34.9438 27.0005 34.1165 27.0005H8.61647C7.78914 27.0005 7.11621 27.6725 7.11621 28.5005C7.11621 29.3285 7.78914 30.0005 8.61647 30.0005Z" fill="#424242"/>
<path fill-rule="evenodd" clip-rule="evenodd" d="M7.86621 22.5017H28.5002C29.3282 22.5017 30.0002 21.8297 30.0002 21.0017C30.0002 20.1737 29.3282 19.5017 28.5002 19.5017H7.86621C7.03821 19.5017 6.36621 20.1737 6.36621 21.0017C6.36621 21.8297 7.03821 22.5017 7.86621 22.5017Z" fill="#424242"/>
<path fill-rule="evenodd" clip-rule="evenodd" d="M36.0005 -0.000488281C29.3779 -0.000488281 24 5.37749 24 12.0002C24 18.6229 29.3779 24.0009 36.0005 24.0009C42.6232 24.0009 48.0011 18.6229 48.0011 12.0002C48.0011 5.37749 42.6232 -0.000488281 36.0005 -0.000488281ZM36.0005 3.00064C40.968 3.00064 45 7.03269 45 12.0002C45 16.9677 40.968 20.9998 36.0005 20.9998C31.0331 20.9998 27.0011 16.9677 27.0011 12.0002C27.0011 7.03269 31.0331 3.00064 36.0005 3.00064Z" fill="#424242"/>
<path fill-rule="evenodd" clip-rule="evenodd" d="M34.5 7.5002V16.5003C34.5 17.3283 35.172 18.0008 36 18.0008C36.828 18.0008 37.5 17.3283 37.5 16.5003V7.5002C37.5 6.67219 36.828 5.99976 36 5.99976C35.172 5.99976 34.5 6.67219 34.5 7.5002Z" fill="#424242"/>
<path fill-rule="evenodd" clip-rule="evenodd" d="M34.9395 6.43942L31.9395 9.43946C31.3538 10.0252 31.3542 10.9752 31.9397 11.5606C32.5251 12.1461 33.4751 12.1466 34.0608 11.5608L37.0608 8.56077C37.6466 7.97501 37.6461 7.02507 37.0607 6.43958C36.4752 5.85409 35.5253 5.85366 34.9395 6.43942Z" fill="#424242"/>
<path fill-rule="evenodd" clip-rule="evenodd" d="M34.9392 8.56077L37.9392 11.5608C38.5249 12.1466 39.4749 12.1461 40.0603 11.5606C40.6458 10.9752 40.6462 10.0252 40.0605 9.43946L37.0605 6.43942C36.4747 5.85366 35.5248 5.85409 34.9393 6.43958C34.3539 7.02507 34.3534 7.97501 34.9392 8.56077Z" fill="#424242"/>
<path fill-rule="evenodd" clip-rule="evenodd" d="M10.653 33.0005H31.443C32.2035 33.0005 32.8455 32.429 32.9325 31.673L34.0125 22.3174C34.107 21.4938 34.851 20.9043 35.6745 20.9988C36.4965 21.0933 37.0875 21.8388 36.9915 22.6609L35.913 32.0165C35.6505 34.2875 33.7275 36.0005 31.443 36.0005H9.36605C8.62505 36.0005 7.99655 35.4605 7.88405 34.7285L4.88406 15.2283C4.81656 14.7963 4.94256 14.3553 5.22756 14.0238C5.51256 13.6907 5.92806 13.5002 6.36606 13.5002H25.935C26.763 13.5002 27.435 14.1723 27.435 15.0003C27.435 15.8283 26.763 16.5003 25.935 16.5003H8.11505L10.653 33.0005Z" fill="#424242"/>
<path fill-rule="evenodd" clip-rule="evenodd" d="M24.4985 15.4293C25.9235 20.2099 30.251 23.7455 35.432 23.987C36.26 24.026 36.962 23.3854 37.001 22.5589C37.04 21.7324 36.3995 21.0289 35.573 20.9899C31.6865 20.8084 28.442 18.1579 27.374 14.5713C27.137 13.7778 26.3015 13.3263 25.508 13.5633C24.7145 13.7988 24.2615 14.6358 24.4985 15.4293Z" fill="#424242"/>
</g>
<defs>
<clipPath id="clip0_551_804">
<rect width="48" height="48" fill="white"/>
</clipPath>
</defs>
</svg>
