<svg width="60" height="60" viewBox="0 0 60 60" fill="none" xmlns="http://www.w3.org/2000/svg">
<g clip-path="url(#clip0_558_1606)">
<mask id="path-1-outside-1_558_1606" maskUnits="userSpaceOnUse" x="10.6465" y="-1" width="50" height="57" fill="black">
<rect fill="white" x="10.6465" y="-1" width="50" height="57"/>
<path d="M21.6068 50.3997C23.8324 49.4998 25.8183 49.0194 27.8882 48.9682C28.1839 48.9618 28.4796 48.9297 28.7691 48.9682C29.2298 49.0258 29.9613 48.7472 29.9177 49.5991C29.8835 50.3165 29.2485 50.1339 28.7878 50.1339C26.7801 50.1371 24.8129 50.4029 22.9328 51.1716C21.2986 51.8409 19.8419 52.7697 18.8552 54.3293C18.6279 54.6848 18.4007 55.1236 17.9151 54.8033C17.3797 54.451 17.6755 54.0219 17.9338 53.6376C20.2746 50.1339 22.8207 46.7936 25.6159 43.6583C25.8401 43.4085 26.1078 43.1747 26.2634 42.8832C26.6992 42.0602 26.668 41.109 26.2914 40.3692C26.0611 39.9208 25.4385 40.6094 24.9529 40.6542C22.8394 40.8432 21.7375 42.1595 20.8753 44.0874C19.5337 47.0882 17.828 49.8969 15.4281 52.1804C15.2662 52.3341 15.0919 52.4718 14.9269 52.6191C14.6499 52.8657 14.3386 53.0034 14.0523 52.6928C13.7223 52.3373 13.8842 51.9754 14.1955 51.7128C15.3067 50.7744 16.1004 49.6215 16.5393 48.206C17.1307 46.3004 17.1152 44.4077 16.4397 42.5277C16.2996 42.1338 16.0475 41.7015 16.6234 41.4869C17.1463 41.2915 17.3175 41.7239 17.4794 42.121C18.0645 43.5398 18.1766 45.0322 18.077 46.8064C19.2505 45.0546 20.1189 43.3956 20.7477 41.6438C21.1399 40.5485 20.3461 39.6198 19.7578 38.7711C19.1789 37.9384 18.5626 37.1378 18.2233 36.1642C17.5852 34.3387 17.4358 32.5196 18.5719 30.8319C18.9299 30.3002 18.6964 30.0504 18.3789 29.6981C17.2615 28.4587 15.8016 27.6773 14.5472 26.6204C12.5053 24.8974 11.4096 22.7421 11.6897 19.9719C11.7364 19.5139 11.7333 18.8381 12.4057 18.9118C13.1247 18.9919 12.8694 19.6068 12.8165 20.0839C12.5395 22.5147 13.5667 24.3562 15.3689 25.7814C16.7665 26.8863 18.2887 27.8246 19.6178 29.3427C19.5462 27.4019 19.7641 25.6981 20.3742 24.068C20.5516 23.5972 20.2248 23.3826 20.0037 23.0944C19.1291 21.9671 18.326 20.7917 17.7564 19.4658C17.3953 18.6268 17.1401 17.7557 17.1183 16.8301C17.1089 16.4106 17.0903 15.9366 17.6692 15.9014C18.2762 15.8629 18.242 16.3273 18.2606 16.7596C18.3447 18.6588 19.3314 20.132 20.452 21.7845C20.6761 20.4843 21.0403 19.4594 21.7002 18.5851C21.971 18.2264 21.7749 17.9542 21.6628 17.6468C20.9718 15.7572 21.0527 13.9318 22.111 12.1991C22.3134 11.8661 22.4379 11.581 22.2791 11.1551C21.6597 9.51537 21.806 7.86604 22.441 6.28075C22.6558 5.74271 22.5686 5.39363 22.3103 4.94527C21.7375 3.95246 21.4512 2.85077 21.3453 1.70424C21.3049 1.27189 21.1866 0.705027 21.8185 0.615354C22.497 0.519276 22.4254 1.09895 22.4752 1.54091C22.6122 2.80593 22.9608 3.99089 23.795 5.14383C24.2277 3.3824 24.8347 1.81633 26.0081 0.519276C26.6182 -0.153269 26.9855 -0.198105 27.5707 0.535289C28.6259 1.85796 29.3917 3.28952 29.5224 5.01893C29.5566 5.45448 29.5753 5.7267 30.1356 5.55696C30.7706 5.36481 30.9542 5.88363 31.1036 6.37042C31.5954 7.97813 31.4678 9.58903 31.0974 11.1967C31.0414 11.4433 30.8328 11.6675 31.0103 12.023C32.6724 11.0526 33.544 9.48975 34.1261 7.72512C34.3969 6.90526 34.5432 6.04376 34.7113 5.19187C34.7953 4.77233 34.7922 4.31115 35.3711 4.34638C35.9843 4.38481 35.919 4.87481 35.863 5.27834C35.4801 7.91407 34.7206 10.3769 32.716 12.2344C32.4296 12.5002 32.2118 12.7404 32.2491 13.1888C32.411 15.0815 31.9908 16.8749 31.3184 18.6172C31.169 19.0015 31.032 19.2577 31.5705 19.4306C32.0779 19.5939 31.9627 20.0968 31.941 20.5003C31.8351 22.3834 31.2624 24.1224 30.3223 25.7718C31.2499 25.5956 32.2678 24.7533 33.1487 23.4883C34.3377 21.7781 35.2653 19.9302 35.891 17.9286C36.0342 17.4642 36.0497 16.8365 36.7625 17.0863C37.3882 17.3073 37.1174 17.8613 36.9835 18.2489C35.81 21.6949 34.3222 24.9263 31.1254 26.9247C30.892 27.072 30.7457 27.2418 30.7114 27.5332C30.4406 29.6757 29.6407 31.6133 28.4796 33.4035C28.7753 33.6085 29.0337 33.6694 29.3232 33.474C29.5068 33.3491 29.7558 33.1249 29.899 33.1762C31.1908 33.6277 31.3495 32.4171 31.8943 31.7798C32.1869 31.4372 32.4079 30.992 32.7658 30.755C34.6023 29.5316 35.5112 27.7894 36.0591 25.6276C36.5944 23.5171 37.9609 21.7909 39.4083 20.2024C39.732 19.847 40.0807 19.0175 40.7125 19.6132C41.3413 20.2056 40.5756 20.6028 40.2519 20.9711C38.6799 22.7677 37.3882 24.7277 36.7252 27.0752C36.6256 27.4275 36.5726 27.7958 36.4295 28.478C37.0738 27.7414 37.4847 27.2097 37.9609 26.7421C38.4901 26.2201 39.0037 25.5348 39.648 25.3202C41.1172 24.827 41.5965 23.6548 42.1164 22.3674C43.4206 19.1328 45.6711 16.6476 48.2826 14.4794C48.6063 14.2104 49.0297 13.7588 49.4281 14.2392C49.8763 14.7804 49.3596 15.0879 48.9799 15.405C46.3465 17.6179 44.1739 20.2024 42.8012 23.61C43.8128 22.9855 44.7155 22.3834 45.6617 21.8614C46.4399 21.4322 47.3021 20.9647 47.5542 22.5628C48.9021 21.2881 50.2032 20.2505 51.8747 19.9046C52.3883 19.7989 52.9081 19.5267 53.4435 19.9911C53.8139 20.3113 53.9882 19.7829 54.1656 19.6004C55.4885 18.2328 57.0044 17.1952 58.788 16.6027C59.1957 16.4682 59.7685 16.1255 59.9677 16.8942C60.1451 17.5827 59.5506 17.5635 59.1584 17.7076C57.7639 18.22 56.497 18.9342 55.3236 20.164C56.4908 20.196 57.4993 20.132 58.486 20.401C59.7747 20.7501 59.893 20.9102 59.3545 22.1784C58.8627 23.341 58.1499 24.3434 57.1974 25.1633C56.8923 25.4259 56.4192 25.6084 56.7865 26.2201C56.9826 26.5468 56.6464 26.8638 56.441 27.1168C55.364 28.4299 54.0629 29.3907 52.3634 29.6149C51.8093 29.6885 51.4576 29.8967 51.109 30.3643C50.3401 31.3891 49.2974 32.0873 47.8811 32.6061C49.6927 33.2786 51.277 33.2338 52.8801 32.8847C53.0949 32.8367 53.3096 32.7694 53.5213 32.7086C53.9384 32.5901 54.4271 32.3115 54.6045 32.9936C54.7477 33.5445 54.2964 33.7046 53.9042 33.8263C51.6474 34.5309 49.3814 34.5917 47.2025 33.6181C46.415 33.2658 46.029 33.3619 45.6213 34.0825C45.2851 34.675 44.8026 35.2066 44.1956 35.4724C42.7514 36.1065 41.6432 37.189 40.4697 38.201C39.5608 38.9857 38.4714 39.4533 37.3788 39.9561C39.7258 40.4941 41.9327 40.1386 44.0027 38.8704C44.1614 38.7743 44.3015 38.6526 44.4571 38.5501C44.8182 38.3131 45.1979 37.8968 45.5746 38.4797C45.9512 39.0593 45.4158 39.3027 45.0859 39.5461C43.2183 40.9264 41.1016 41.5285 38.8325 41.3844C37.7991 41.3172 37.0551 41.4132 36.2396 42.2523C34.7517 43.7864 32.7316 44.1483 30.783 43.5526C28.5761 42.8768 26.9482 43.2387 25.7187 45.3044C25.3794 45.8745 24.8564 46.3324 24.2495 47.0338C25.9397 46.3901 27.4338 45.8937 29.0026 45.6919C30.8391 45.4549 32.6755 45.4229 34.5089 45.7047C34.9447 45.772 35.6108 45.6855 35.533 46.4189C35.4552 47.1587 34.8389 46.9313 34.3875 46.8769C31.2219 46.4734 28.131 46.7328 25.1615 47.9946C23.932 48.507 22.7865 49.1667 21.6068 50.3997Z"/>
</mask>
<path d="M21.6068 50.3997C23.8324 49.4998 25.8183 49.0194 27.8882 48.9682C28.1839 48.9618 28.4796 48.9297 28.7691 48.9682C29.2298 49.0258 29.9613 48.7472 29.9177 49.5991C29.8835 50.3165 29.2485 50.1339 28.7878 50.1339C26.7801 50.1371 24.8129 50.4029 22.9328 51.1716C21.2986 51.8409 19.8419 52.7697 18.8552 54.3293C18.6279 54.6848 18.4007 55.1236 17.9151 54.8033C17.3797 54.451 17.6755 54.0219 17.9338 53.6376C20.2746 50.1339 22.8207 46.7936 25.6159 43.6583C25.8401 43.4085 26.1078 43.1747 26.2634 42.8832C26.6992 42.0602 26.668 41.109 26.2914 40.3692C26.0611 39.9208 25.4385 40.6094 24.9529 40.6542C22.8394 40.8432 21.7375 42.1595 20.8753 44.0874C19.5337 47.0882 17.828 49.8969 15.4281 52.1804C15.2662 52.3341 15.0919 52.4718 14.9269 52.6191C14.6499 52.8657 14.3386 53.0034 14.0523 52.6928C13.7223 52.3373 13.8842 51.9754 14.1955 51.7128C15.3067 50.7744 16.1004 49.6215 16.5393 48.206C17.1307 46.3004 17.1152 44.4077 16.4397 42.5277C16.2996 42.1338 16.0475 41.7015 16.6234 41.4869C17.1463 41.2915 17.3175 41.7239 17.4794 42.121C18.0645 43.5398 18.1766 45.0322 18.077 46.8064C19.2505 45.0546 20.1189 43.3956 20.7477 41.6438C21.1399 40.5485 20.3461 39.6198 19.7578 38.7711C19.1789 37.9384 18.5626 37.1378 18.2233 36.1642C17.5852 34.3387 17.4358 32.5196 18.5719 30.8319C18.9299 30.3002 18.6964 30.0504 18.3789 29.6981C17.2615 28.4587 15.8016 27.6773 14.5472 26.6204C12.5053 24.8974 11.4096 22.7421 11.6897 19.9719C11.7364 19.5139 11.7333 18.8381 12.4057 18.9118C13.1247 18.9919 12.8694 19.6068 12.8165 20.0839C12.5395 22.5147 13.5667 24.3562 15.3689 25.7814C16.7665 26.8863 18.2887 27.8246 19.6178 29.3427C19.5462 27.4019 19.7641 25.6981 20.3742 24.068C20.5516 23.5972 20.2248 23.3826 20.0037 23.0944C19.1291 21.9671 18.326 20.7917 17.7564 19.4658C17.3953 18.6268 17.1401 17.7557 17.1183 16.8301C17.1089 16.4106 17.0903 15.9366 17.6692 15.9014C18.2762 15.8629 18.242 16.3273 18.2606 16.7596C18.3447 18.6588 19.3314 20.132 20.452 21.7845C20.6761 20.4843 21.0403 19.4594 21.7002 18.5851C21.971 18.2264 21.7749 17.9542 21.6628 17.6468C20.9718 15.7572 21.0527 13.9318 22.111 12.1991C22.3134 11.8661 22.4379 11.581 22.2791 11.1551C21.6597 9.51537 21.806 7.86604 22.441 6.28075C22.6558 5.74271 22.5686 5.39363 22.3103 4.94527C21.7375 3.95246 21.4512 2.85077 21.3453 1.70424C21.3049 1.27189 21.1866 0.705027 21.8185 0.615354C22.497 0.519276 22.4254 1.09895 22.4752 1.54091C22.6122 2.80593 22.9608 3.99089 23.795 5.14383C24.2277 3.3824 24.8347 1.81633 26.0081 0.519276C26.6182 -0.153269 26.9855 -0.198105 27.5707 0.535289C28.6259 1.85796 29.3917 3.28952 29.5224 5.01893C29.5566 5.45448 29.5753 5.7267 30.1356 5.55696C30.7706 5.36481 30.9542 5.88363 31.1036 6.37042C31.5954 7.97813 31.4678 9.58903 31.0974 11.1967C31.0414 11.4433 30.8328 11.6675 31.0103 12.023C32.6724 11.0526 33.544 9.48975 34.1261 7.72512C34.3969 6.90526 34.5432 6.04376 34.7113 5.19187C34.7953 4.77233 34.7922 4.31115 35.3711 4.34638C35.9843 4.38481 35.919 4.87481 35.863 5.27834C35.4801 7.91407 34.7206 10.3769 32.716 12.2344C32.4296 12.5002 32.2118 12.7404 32.2491 13.1888C32.411 15.0815 31.9908 16.8749 31.3184 18.6172C31.169 19.0015 31.032 19.2577 31.5705 19.4306C32.0779 19.5939 31.9627 20.0968 31.941 20.5003C31.8351 22.3834 31.2624 24.1224 30.3223 25.7718C31.2499 25.5956 32.2678 24.7533 33.1487 23.4883C34.3377 21.7781 35.2653 19.9302 35.891 17.9286C36.0342 17.4642 36.0497 16.8365 36.7625 17.0863C37.3882 17.3073 37.1174 17.8613 36.9835 18.2489C35.81 21.6949 34.3222 24.9263 31.1254 26.9247C30.892 27.072 30.7457 27.2418 30.7114 27.5332C30.4406 29.6757 29.6407 31.6133 28.4796 33.4035C28.7753 33.6085 29.0337 33.6694 29.3232 33.474C29.5068 33.3491 29.7558 33.1249 29.899 33.1762C31.1908 33.6277 31.3495 32.4171 31.8943 31.7798C32.1869 31.4372 32.4079 30.992 32.7658 30.755C34.6023 29.5316 35.5112 27.7894 36.0591 25.6276C36.5944 23.5171 37.9609 21.7909 39.4083 20.2024C39.732 19.847 40.0807 19.0175 40.7125 19.6132C41.3413 20.2056 40.5756 20.6028 40.2519 20.9711C38.6799 22.7677 37.3882 24.7277 36.7252 27.0752C36.6256 27.4275 36.5726 27.7958 36.4295 28.478C37.0738 27.7414 37.4847 27.2097 37.9609 26.7421C38.4901 26.2201 39.0037 25.5348 39.648 25.3202C41.1172 24.827 41.5965 23.6548 42.1164 22.3674C43.4206 19.1328 45.6711 16.6476 48.2826 14.4794C48.6063 14.2104 49.0297 13.7588 49.4281 14.2392C49.8763 14.7804 49.3596 15.0879 48.9799 15.405C46.3465 17.6179 44.1739 20.2024 42.8012 23.61C43.8128 22.9855 44.7155 22.3834 45.6617 21.8614C46.4399 21.4322 47.3021 20.9647 47.5542 22.5628C48.9021 21.2881 50.2032 20.2505 51.8747 19.9046C52.3883 19.7989 52.9081 19.5267 53.4435 19.9911C53.8139 20.3113 53.9882 19.7829 54.1656 19.6004C55.4885 18.2328 57.0044 17.1952 58.788 16.6027C59.1957 16.4682 59.7685 16.1255 59.9677 16.8942C60.1451 17.5827 59.5506 17.5635 59.1584 17.7076C57.7639 18.22 56.497 18.9342 55.3236 20.164C56.4908 20.196 57.4993 20.132 58.486 20.401C59.7747 20.7501 59.893 20.9102 59.3545 22.1784C58.8627 23.341 58.1499 24.3434 57.1974 25.1633C56.8923 25.4259 56.4192 25.6084 56.7865 26.2201C56.9826 26.5468 56.6464 26.8638 56.441 27.1168C55.364 28.4299 54.0629 29.3907 52.3634 29.6149C51.8093 29.6885 51.4576 29.8967 51.109 30.3643C50.3401 31.3891 49.2974 32.0873 47.8811 32.6061C49.6927 33.2786 51.277 33.2338 52.8801 32.8847C53.0949 32.8367 53.3096 32.7694 53.5213 32.7086C53.9384 32.5901 54.4271 32.3115 54.6045 32.9936C54.7477 33.5445 54.2964 33.7046 53.9042 33.8263C51.6474 34.5309 49.3814 34.5917 47.2025 33.6181C46.415 33.2658 46.029 33.3619 45.6213 34.0825C45.2851 34.675 44.8026 35.2066 44.1956 35.4724C42.7514 36.1065 41.6432 37.189 40.4697 38.201C39.5608 38.9857 38.4714 39.4533 37.3788 39.9561C39.7258 40.4941 41.9327 40.1386 44.0027 38.8704C44.1614 38.7743 44.3015 38.6526 44.4571 38.5501C44.8182 38.3131 45.1979 37.8968 45.5746 38.4797C45.9512 39.0593 45.4158 39.3027 45.0859 39.5461C43.2183 40.9264 41.1016 41.5285 38.8325 41.3844C37.7991 41.3172 37.0551 41.4132 36.2396 42.2523C34.7517 43.7864 32.7316 44.1483 30.783 43.5526C28.5761 42.8768 26.9482 43.2387 25.7187 45.3044C25.3794 45.8745 24.8564 46.3324 24.2495 47.0338C25.9397 46.3901 27.4338 45.8937 29.0026 45.6919C30.8391 45.4549 32.6755 45.4229 34.5089 45.7047C34.9447 45.772 35.6108 45.6855 35.533 46.4189C35.4552 47.1587 34.8389 46.9313 34.3875 46.8769C31.2219 46.4734 28.131 46.7328 25.1615 47.9946C23.932 48.507 22.7865 49.1667 21.6068 50.3997Z" fill="#010201"/>
<path d="M21.6068 50.3997C23.8324 49.4998 25.8183 49.0194 27.8882 48.9682C28.1839 48.9618 28.4796 48.9297 28.7691 48.9682C29.2298 49.0258 29.9613 48.7472 29.9177 49.5991C29.8835 50.3165 29.2485 50.1339 28.7878 50.1339C26.7801 50.1371 24.8129 50.4029 22.9328 51.1716C21.2986 51.8409 19.8419 52.7697 18.8552 54.3293C18.6279 54.6848 18.4007 55.1236 17.9151 54.8033C17.3797 54.451 17.6755 54.0219 17.9338 53.6376C20.2746 50.1339 22.8207 46.7936 25.6159 43.6583C25.8401 43.4085 26.1078 43.1747 26.2634 42.8832C26.6992 42.0602 26.668 41.109 26.2914 40.3692C26.0611 39.9208 25.4385 40.6094 24.9529 40.6542C22.8394 40.8432 21.7375 42.1595 20.8753 44.0874C19.5337 47.0882 17.828 49.8969 15.4281 52.1804C15.2662 52.3341 15.0919 52.4718 14.9269 52.6191C14.6499 52.8657 14.3386 53.0034 14.0523 52.6928C13.7223 52.3373 13.8842 51.9754 14.1955 51.7128C15.3067 50.7744 16.1004 49.6215 16.5393 48.206C17.1307 46.3004 17.1152 44.4077 16.4397 42.5277C16.2996 42.1338 16.0475 41.7015 16.6234 41.4869C17.1463 41.2915 17.3175 41.7239 17.4794 42.121C18.0645 43.5398 18.1766 45.0322 18.077 46.8064C19.2505 45.0546 20.1189 43.3956 20.7477 41.6438C21.1399 40.5485 20.3461 39.6198 19.7578 38.7711C19.1789 37.9384 18.5626 37.1378 18.2233 36.1642C17.5852 34.3387 17.4358 32.5196 18.5719 30.8319C18.9299 30.3002 18.6964 30.0504 18.3789 29.6981C17.2615 28.4587 15.8016 27.6773 14.5472 26.6204C12.5053 24.8974 11.4096 22.7421 11.6897 19.9719C11.7364 19.5139 11.7333 18.8381 12.4057 18.9118C13.1247 18.9919 12.8694 19.6068 12.8165 20.0839C12.5395 22.5147 13.5667 24.3562 15.3689 25.7814C16.7665 26.8863 18.2887 27.8246 19.6178 29.3427C19.5462 27.4019 19.7641 25.6981 20.3742 24.068C20.5516 23.5972 20.2248 23.3826 20.0037 23.0944C19.1291 21.9671 18.326 20.7917 17.7564 19.4658C17.3953 18.6268 17.1401 17.7557 17.1183 16.8301C17.1089 16.4106 17.0903 15.9366 17.6692 15.9014C18.2762 15.8629 18.242 16.3273 18.2606 16.7596C18.3447 18.6588 19.3314 20.132 20.452 21.7845C20.6761 20.4843 21.0403 19.4594 21.7002 18.5851C21.971 18.2264 21.7749 17.9542 21.6628 17.6468C20.9718 15.7572 21.0527 13.9318 22.111 12.1991C22.3134 11.8661 22.4379 11.581 22.2791 11.1551C21.6597 9.51537 21.806 7.86604 22.441 6.28075C22.6558 5.74271 22.5686 5.39363 22.3103 4.94527C21.7375 3.95246 21.4512 2.85077 21.3453 1.70424C21.3049 1.27189 21.1866 0.705027 21.8185 0.615354C22.497 0.519276 22.4254 1.09895 22.4752 1.54091C22.6122 2.80593 22.9608 3.99089 23.795 5.14383C24.2277 3.3824 24.8347 1.81633 26.0081 0.519276C26.6182 -0.153269 26.9855 -0.198105 27.5707 0.535289C28.6259 1.85796 29.3917 3.28952 29.5224 5.01893C29.5566 5.45448 29.5753 5.7267 30.1356 5.55696C30.7706 5.36481 30.9542 5.88363 31.1036 6.37042C31.5954 7.97813 31.4678 9.58903 31.0974 11.1967C31.0414 11.4433 30.8328 11.6675 31.0103 12.023C32.6724 11.0526 33.544 9.48975 34.1261 7.72512C34.3969 6.90526 34.5432 6.04376 34.7113 5.19187C34.7953 4.77233 34.7922 4.31115 35.3711 4.34638C35.9843 4.38481 35.919 4.87481 35.863 5.27834C35.4801 7.91407 34.7206 10.3769 32.716 12.2344C32.4296 12.5002 32.2118 12.7404 32.2491 13.1888C32.411 15.0815 31.9908 16.8749 31.3184 18.6172C31.169 19.0015 31.032 19.2577 31.5705 19.4306C32.0779 19.5939 31.9627 20.0968 31.941 20.5003C31.8351 22.3834 31.2624 24.1224 30.3223 25.7718C31.2499 25.5956 32.2678 24.7533 33.1487 23.4883C34.3377 21.7781 35.2653 19.9302 35.891 17.9286C36.0342 17.4642 36.0497 16.8365 36.7625 17.0863C37.3882 17.3073 37.1174 17.8613 36.9835 18.2489C35.81 21.6949 34.3222 24.9263 31.1254 26.9247C30.892 27.072 30.7457 27.2418 30.7114 27.5332C30.4406 29.6757 29.6407 31.6133 28.4796 33.4035C28.7753 33.6085 29.0337 33.6694 29.3232 33.474C29.5068 33.3491 29.7558 33.1249 29.899 33.1762C31.1908 33.6277 31.3495 32.4171 31.8943 31.7798C32.1869 31.4372 32.4079 30.992 32.7658 30.755C34.6023 29.5316 35.5112 27.7894 36.0591 25.6276C36.5944 23.5171 37.9609 21.7909 39.4083 20.2024C39.732 19.847 40.0807 19.0175 40.7125 19.6132C41.3413 20.2056 40.5756 20.6028 40.2519 20.9711C38.6799 22.7677 37.3882 24.7277 36.7252 27.0752C36.6256 27.4275 36.5726 27.7958 36.4295 28.478C37.0738 27.7414 37.4847 27.2097 37.9609 26.7421C38.4901 26.2201 39.0037 25.5348 39.648 25.3202C41.1172 24.827 41.5965 23.6548 42.1164 22.3674C43.4206 19.1328 45.6711 16.6476 48.2826 14.4794C48.6063 14.2104 49.0297 13.7588 49.4281 14.2392C49.8763 14.7804 49.3596 15.0879 48.9799 15.405C46.3465 17.6179 44.1739 20.2024 42.8012 23.61C43.8128 22.9855 44.7155 22.3834 45.6617 21.8614C46.4399 21.4322 47.3021 20.9647 47.5542 22.5628C48.9021 21.2881 50.2032 20.2505 51.8747 19.9046C52.3883 19.7989 52.9081 19.5267 53.4435 19.9911C53.8139 20.3113 53.9882 19.7829 54.1656 19.6004C55.4885 18.2328 57.0044 17.1952 58.788 16.6027C59.1957 16.4682 59.7685 16.1255 59.9677 16.8942C60.1451 17.5827 59.5506 17.5635 59.1584 17.7076C57.7639 18.22 56.497 18.9342 55.3236 20.164C56.4908 20.196 57.4993 20.132 58.486 20.401C59.7747 20.7501 59.893 20.9102 59.3545 22.1784C58.8627 23.341 58.1499 24.3434 57.1974 25.1633C56.8923 25.4259 56.4192 25.6084 56.7865 26.2201C56.9826 26.5468 56.6464 26.8638 56.441 27.1168C55.364 28.4299 54.0629 29.3907 52.3634 29.6149C51.8093 29.6885 51.4576 29.8967 51.109 30.3643C50.3401 31.3891 49.2974 32.0873 47.8811 32.6061C49.6927 33.2786 51.277 33.2338 52.8801 32.8847C53.0949 32.8367 53.3096 32.7694 53.5213 32.7086C53.9384 32.5901 54.4271 32.3115 54.6045 32.9936C54.7477 33.5445 54.2964 33.7046 53.9042 33.8263C51.6474 34.5309 49.3814 34.5917 47.2025 33.6181C46.415 33.2658 46.029 33.3619 45.6213 34.0825C45.2851 34.675 44.8026 35.2066 44.1956 35.4724C42.7514 36.1065 41.6432 37.189 40.4697 38.201C39.5608 38.9857 38.4714 39.4533 37.3788 39.9561C39.7258 40.4941 41.9327 40.1386 44.0027 38.8704C44.1614 38.7743 44.3015 38.6526 44.4571 38.5501C44.8182 38.3131 45.1979 37.8968 45.5746 38.4797C45.9512 39.0593 45.4158 39.3027 45.0859 39.5461C43.2183 40.9264 41.1016 41.5285 38.8325 41.3844C37.7991 41.3172 37.0551 41.4132 36.2396 42.2523C34.7517 43.7864 32.7316 44.1483 30.783 43.5526C28.5761 42.8768 26.9482 43.2387 25.7187 45.3044C25.3794 45.8745 24.8564 46.3324 24.2495 47.0338C25.9397 46.3901 27.4338 45.8937 29.0026 45.6919C30.8391 45.4549 32.6755 45.4229 34.5089 45.7047C34.9447 45.772 35.6108 45.6855 35.533 46.4189C35.4552 47.1587 34.8389 46.9313 34.3875 46.8769C31.2219 46.4734 28.131 46.7328 25.1615 47.9946C23.932 48.507 22.7865 49.1667 21.6068 50.3997Z" stroke="black" mask="url(#path-1-outside-1_558_1606)"/>
<path d="M50.6728 12.5452C50.8969 12.2954 51.1864 12.1769 51.4634 12.3435C51.7902 12.5388 51.8618 12.8911 51.6346 13.221C51.4385 13.5092 51.1397 13.5572 50.8595 13.3523C50.5887 13.1537 50.5483 12.8623 50.6728 12.5452Z" fill="#464646"/>
<path d="M36.7478 15.4915C36.4738 15.2897 36.3805 15.0335 36.5268 14.7197C36.6731 14.409 36.9159 14.2873 37.2365 14.4378C37.5415 14.5788 37.6754 14.851 37.5602 15.1648C37.4201 15.5395 37.0902 15.5684 36.7478 15.4915Z" fill="#383938"/>
<path d="M18.4684 13.916C18.2474 14.1273 17.9984 14.3003 17.7027 14.1209C17.3696 13.9128 17.3354 13.5669 17.5315 13.2626C17.7058 12.9904 17.9891 12.936 18.2848 13.1377C18.5898 13.3427 18.5587 13.6181 18.4684 13.916Z" fill="#313131"/>
<path d="M23.1875 34.3486C20.5666 31.7256 20.3176 28.6127 21.1954 25.1987C24.2614 27.9946 24.8808 30.8929 23.1875 34.3486Z" fill="#FFCF67"/>
<path d="M26.8486 21.1028C26.9638 19.5015 27.0105 18.0668 27.1879 16.648C27.3529 15.3221 29.4415 13.5863 30.7022 13.5479C31.1161 13.5351 31.1099 13.7497 31.1006 14.0283C31.0414 15.8378 30.6337 17.548 29.7715 19.1364C29.5909 19.4663 29.3232 19.6072 28.9995 19.7257C28.2587 19.9947 27.6299 20.4623 26.8486 21.1028Z" fill="#ED9D3E"/>
<path d="M25.9307 27.824C26.1237 26.5238 26.2637 25.3228 26.491 24.141C26.8053 22.5013 28.5796 20.8552 30.1608 20.6086C30.5935 20.5413 30.7709 20.5798 30.7055 21.0986C30.441 23.145 29.6784 24.9993 28.3679 26.5174C27.8263 27.1387 26.8396 27.3564 25.9307 27.824Z" fill="#ED9D3E"/>
<path d="M24.741 27.7952C24.1247 26.511 23.3465 25.8032 22.6928 24.993C21.4727 23.4749 21.2983 21.643 22.1543 20.0417C22.4314 19.5229 22.6648 19.1931 23.1473 19.8528C23.3652 20.1506 23.6515 20.3972 23.9099 20.6631C25.0025 21.7936 25.6406 23.0522 25.2266 24.7239C25.0056 25.6239 24.9309 26.559 24.741 27.7952Z" fill="#FFD067"/>
<path d="M42.0982 29.7014C41.4383 26.4924 43.2094 24.6637 45.6249 23.1937C46.3501 22.7517 46.54 22.9983 46.6427 23.7542C46.8699 25.4579 45.9953 27.6837 44.3642 28.4075C43.5362 28.7694 42.7798 29.3043 42.0982 29.7014Z" fill="#FFD067"/>
<path d="M32.4629 38.5094C34.5826 35.7648 36.8518 35.1915 40.5839 36.3829C38.7723 38.692 35.5227 39.5631 32.4629 38.5094Z" fill="#EC9D3E"/>
<path d="M36.6811 33.3779C36.0616 30.1368 37.8701 28.2569 39.9432 26.5051C40.5688 25.9766 40.8116 26.2104 40.905 26.9342C41.1571 28.9134 40.5097 30.5147 38.9876 31.7253C38.2623 32.2986 37.4841 32.8046 36.6811 33.3779Z" fill="#FECF67"/>
<path d="M23.0824 13.0103C26.2543 16.4851 26.4348 17.0423 25.5913 20.6677C21.7626 17.3594 21.8747 14.9382 23.0824 13.0103Z" fill="#FFD067"/>
<path d="M29.4381 27.7964C29.3136 29.2664 28.6599 30.5282 28.0592 31.8189C27.3744 33.2952 26.1106 33.702 24.6943 33.8877C25.4103 29.5194 26.5775 28.011 29.4381 27.7964Z" fill="#ED9D3E"/>
<path d="M37.2725 34.3957C38.586 33.4926 39.6101 32.6952 40.7182 32.0546C41.6489 31.5166 42.6014 31.9906 43.4543 32.4069C43.8963 32.6247 44.6962 32.5735 44.7274 33.0795C44.7647 33.7264 44.0737 34.1043 43.5726 34.4886C42.4613 35.3405 41.2412 35.3309 39.993 34.9466C39.2148 34.7064 38.4459 34.4534 37.2725 34.3957Z" fill="#EC9D3E"/>
<path d="M25.9686 2.53714C26.6752 1.33616 26.89 1.32976 27.5592 2.57877C27.8238 3.06877 28.0417 3.6004 28.1849 4.14164C28.6455 5.85823 28.2191 7.07842 26.8962 8.10966C26.5289 8.39469 26.4791 8.06162 26.3328 7.87907C24.7298 5.87745 24.6551 4.77255 25.9686 2.53714Z" fill="#EB9C3E"/>
<path d="M35.1327 30.272C35.8828 32.5458 35.391 34.3425 33.6884 35.726C33.0876 36.216 32.5025 36.7284 31.8955 37.244C31.1049 34.6211 32.2005 32.2544 35.1327 30.272Z" fill="#FECF67"/>
<path d="M19.2163 32.0337C22.1765 34.3139 23.4838 36.0209 21.6038 39.4509C20.1595 37.2219 18.1362 35.1722 19.2163 32.0337Z" fill="#FECF67"/>
<path d="M26.0983 14.2867C24.9902 13.3035 23.9474 12.4196 23.4432 11.0425C22.9856 9.78708 22.9545 8.54768 23.3031 7.26023C23.4992 6.53324 23.7606 6.64853 24.1684 7.05526C25.5255 8.40676 26.3847 9.96643 26.201 11.9937C26.1356 12.7046 26.1356 13.4252 26.0983 14.2867Z" fill="#FECF67"/>
<path d="M47.4766 26.6655C47.5886 26.1787 47.7287 25.8521 47.7349 25.519C47.7878 22.8128 49.8547 22.0666 51.7347 21.1443C52.267 20.8816 52.4569 21.1122 52.3946 21.6983C52.211 23.4693 51.6133 24.9105 49.8235 25.567C49.0672 25.8425 48.3543 26.2492 47.4766 26.6655Z" fill="#FDCE67"/>
<path d="M42.8262 30.7872C45.9949 28.334 46.3466 28.2795 49.9511 29.6631C48.6998 31.7511 46.054 32.1899 42.8262 30.7872Z" fill="#EC9D3E"/>
<path d="M27.2744 14.1141C27.3336 12.5865 27.3336 11.3759 27.4363 10.1717C27.5421 8.92912 28.2113 7.99396 29.1669 7.25736C29.7366 6.81861 30.1288 6.73534 30.2159 7.6737C30.3622 9.25899 30.1101 10.761 29.5 12.215C29.1016 13.1533 28.0931 13.2334 27.2744 14.1141Z" fill="#EC9D3E"/>
<path d="M27.7927 34.7769C26.9554 35.8754 26.3577 37.0635 26.1772 38.4407C26.1181 38.8922 25.7414 39.0203 25.4239 39.1869C24.6333 39.6032 23.7493 39.664 22.8809 39.9363C23.6746 35.7825 25.1531 34.2292 27.7927 34.7769Z" fill="#ED9D3E"/>
<path d="M27.7506 41.1153C27.0378 38.4507 27.6043 36.3594 29.335 34.9311C29.7894 34.5564 29.9482 34.5596 30.1661 35.1392C30.9598 37.2594 30.7668 38.2169 29.1202 39.8311C28.6782 40.2634 28.3171 40.795 27.7506 41.1153Z" fill="#FECF67"/>
<path d="M28.8721 41.9352C30.721 39.45 32.3956 39.229 35.7916 40.936C34.5278 42.6462 32.6945 42.9184 28.8721 41.9352Z" fill="#EC9D3E"/>
<path d="M57.8139 22.7455C57.3625 23.2387 56.9392 23.7639 56.4567 24.2187C55.635 24.9905 54.0195 25.093 53.1417 24.4653C53.0701 24.4141 52.9705 24.2796 52.9923 24.2347C53.3472 23.4148 53.1697 22.3067 54.2436 21.868C55.1836 21.4837 56.1361 21.2851 57.1478 21.3876C58.3897 21.5093 58.4395 21.6054 57.8139 22.7455Z" fill="#EC9D3E"/>
<path d="M48.3564 27.6452C49.5766 26.8542 50.8124 26.3354 51.989 25.7397C52.9539 25.2497 54.0963 25.8357 55.0332 26.361C55.525 26.6364 54.9896 26.9503 54.7997 27.1392C53.1905 28.7469 50.6972 28.9551 48.3564 27.6452Z" fill="#EC9C3E"/>
<path d="M28.8868 31.7556L28.8868 31.7557C31.5707 34.8081 33.4088 38.2865 33.6209 42.512M28.8868 31.7556L33.3713 42.5245M28.8868 31.7556C28.7374 31.5858 28.5588 31.4408 28.3397 31.3869C28.1118 31.3309 27.8848 31.3839 27.6649 31.5205C27.3971 31.675 27.2567 31.8905 27.2477 32.1478C27.2398 32.3757 27.3387 32.5949 27.4295 32.7653L27.4294 32.7653L27.4308 32.7678C27.5951 33.0679 27.813 33.3324 28.0135 33.5759C28.0503 33.6206 28.0866 33.6646 28.1218 33.708C29.7393 35.7211 30.9801 37.9117 31.5237 40.4724C31.9876 42.6646 31.8673 44.7934 31.0112 46.8612M28.8868 31.7556L31.0112 46.8612M33.6209 42.512L33.3713 42.5245M33.6209 42.512C33.6209 42.5119 33.6209 42.5119 33.6209 42.5118L33.3713 42.5245M33.6209 42.512C33.7012 44.0817 33.4279 45.6019 32.8716 47.1332M33.3713 42.5245C33.4531 44.1237 33.1592 45.675 32.5617 47.2497C32.647 47.2183 32.7312 47.1864 32.8146 47.1548C32.8337 47.1476 32.8527 47.1404 32.8716 47.1332M32.8716 47.1332C32.8339 47.2371 32.7949 47.341 32.7546 47.4449C32.6538 47.4826 32.5496 47.521 32.4406 47.559L33.8133 47.0882C35.0397 46.8096 36.0606 47.3573 36.5057 48.4878C36.9415 49.5991 36.5742 50.7905 35.5533 51.4598C34.0772 52.4264 32.5966 53.3883 31.1156 54.3505C30.1481 54.9791 29.1803 55.6078 28.2135 56.2381L28.2117 56.2393C27.3407 56.8057 26.4698 57.3722 25.6051 57.9419C24.416 58.7233 23.1274 59.1172 21.708 59.1044M32.8716 47.1332C33.1741 47.0189 33.466 46.911 33.7577 46.8445L33.7579 46.8445C34.4213 46.6937 35.0451 46.7637 35.5686 47.0382C36.0921 47.3127 36.4965 47.782 36.7384 48.3962L36.7385 48.3965C37.2172 49.6174 36.8107 50.9343 35.6903 51.6689L35.6902 51.6689C34.214 52.6357 32.7325 53.5982 31.251 54.5607C30.2835 55.1892 29.316 55.8178 28.35 56.4475L28.3498 56.4476L28.3479 56.4489C27.4769 57.0154 26.6066 57.5815 25.7426 58.1506L25.7424 58.1508C24.5135 58.9584 23.1766 59.3677 21.7058 59.3544M21.7058 59.3544L21.708 59.1044M21.7058 59.3544C21.2977 59.3509 20.89 59.3463 20.4825 59.3418C18.6727 59.3218 16.8688 59.3019 15.0684 59.367C13.1973 59.4357 11.4417 59.0986 9.72963 58.347C8.95724 58.0088 8.17398 57.7163 7.38333 57.421C6.95855 57.2624 6.53164 57.103 6.10314 56.9353L6.10247 56.935C6.06115 56.9187 6.03046 56.9073 6.00683 56.8997C5.99731 56.9254 5.986 56.9622 5.97353 57.014L5.9735 57.0141C5.84209 57.5583 5.63136 57.9686 5.27623 58.236C4.92358 58.5016 4.46925 58.5952 3.92041 58.5986L3.9199 58.5986C3.75263 58.5993 3.58486 58.6004 3.41671 58.6015C2.79758 58.6057 2.17332 58.6098 1.54997 58.5921M21.7058 59.3544C21.7058 59.3544 21.7057 59.3544 21.7057 59.3544L21.708 59.1044M21.708 59.1044L1.54997 58.5921M1.54997 58.5921C0.539123 58.5663 -0.237073 57.7983 -0.24066 56.761L-0.240661 56.7608C-0.253113 52.3023 -0.253113 47.8438 -0.240661 43.3853L-0.24066 43.3852C-0.237092 42.3536 0.52037 41.5623 1.53793 41.5253L1.53796 41.5253C2.428 41.4931 3.32427 41.4931 4.21431 41.5253L4.21478 41.5253C4.69363 41.5436 5.10623 41.7198 5.41896 42.0311C5.72923 42.3401 5.92708 42.7676 6.00834 43.2689C6.04102 43.4661 6.09826 43.5415 6.13463 43.5722C6.17007 43.6021 6.22384 43.622 6.32499 43.6224C6.40683 43.6228 6.48963 43.6116 6.59015 43.5981C6.62384 43.5935 6.65952 43.5887 6.69782 43.584C6.81792 43.5691 6.97126 43.5541 7.11998 43.5846C7.11489 43.5611 7.10874 43.5348 7.10169 43.5054L7.10023 43.4994C7.0919 43.4646 7.08241 43.425 7.07498 43.3875C7.06737 43.3491 7.05937 43.3008 7.05865 43.2521L7.05863 43.2512C7.01427 39.4263 8.41048 36.1495 10.5903 33.185C11.7969 31.5417 13.2157 30.1117 14.7654 28.8207C14.7959 28.7952 14.8277 28.7709 14.858 28.7486C13.4271 28.9098 12.1843 29.2771 11.3298 30.5605L11.1217 30.4219M1.54997 58.5921L20.8646 20.2963C20.8646 20.2963 20.8647 20.2962 20.8648 20.2962M11.1217 30.4219L11.3303 30.5597C11.1965 30.7622 11.0136 30.9137 10.7863 30.9573C10.5565 31.0013 10.333 30.9253 10.1413 30.777C9.92126 30.6086 9.81668 30.3931 9.82479 30.1556C9.83219 29.9387 9.93295 29.7372 10.0416 29.573C10.962 28.1798 12.3148 27.5364 13.8204 27.2305L13.8207 27.2305C14.1928 27.1553 14.5788 27.0817 15.0182 27.0691C14.7895 26.8365 14.5519 26.6679 14.3037 26.5525C13.9272 26.3775 13.5091 26.317 13.0308 26.3602C11.8819 26.4667 10.7795 26.2771 9.75714 25.6804C9.75174 25.6773 9.74627 25.6741 9.74074 25.6709C9.53757 25.5529 9.25219 25.3872 9.11622 25.0566L9.11561 25.0551C8.98807 24.7392 9.08717 24.4418 9.29214 24.2305C9.44306 24.0734 9.62472 23.9859 9.82082 23.9741C10.0124 23.9627 10.1933 24.0249 10.3482 24.1217C11.253 24.6862 12.2235 24.818 13.3043 24.7127C14.2698 24.6177 15.1358 25.0149 15.8714 25.5983L15.8722 25.599C15.8763 25.6022 15.8804 25.6056 15.8844 25.609C15.8702 25.5884 15.8567 25.5669 15.8449 25.545M11.1217 30.4219C10.9038 30.7518 10.5956 30.8126 10.2937 30.5789L15.1624 28.4663C13.5795 28.6117 12.1073 28.9417 11.1217 30.4219ZM15.8449 25.545C15.3666 24.6663 14.8854 23.7613 14.6153 22.7455L14.6152 22.7451C14.4998 22.3087 14.4875 21.8728 14.537 21.4481L14.5371 21.4471C14.5947 20.9696 14.8035 20.5736 15.1458 20.3552C15.4943 20.1328 15.9307 20.1267 16.367 20.3316L16.3678 20.332C16.5956 20.44 16.7814 20.4759 16.9495 20.4628C17.1184 20.4497 17.2928 20.3854 17.4947 20.255L17.4954 20.2546C17.8668 20.0165 18.2559 19.9 18.6499 19.9089C19.0429 19.9177 19.4239 20.0508 19.7812 20.2847M15.8449 25.545C15.8449 25.5451 15.845 25.5453 15.8451 25.5454L16.0646 25.4259L15.8447 25.5447C15.8447 25.5448 15.8448 25.5449 15.8449 25.545ZM19.7812 20.2847L19.6443 20.4939L19.7811 20.2847C19.7811 20.2847 19.7812 20.2847 19.7812 20.2847ZM19.7812 20.2847C19.9912 20.4221 20.1665 20.4812 20.3265 20.4841C20.4845 20.487 20.6575 20.4355 20.8648 20.2962M20.8648 20.2962C21.2548 20.0328 21.6652 19.9019 22.0834 19.9084C22.5005 19.9149 22.9065 20.0577 23.29 20.3109L23.2902 20.311C23.4575 20.4216 23.6022 20.4703 23.7412 20.4794C23.8821 20.4886 24.0379 20.4584 24.2291 20.3786M20.8648 20.2962L24.2291 20.3786M24.2291 20.3786C24.7216 20.1715 25.1897 20.1482 25.5554 20.386C25.9168 20.621 26.0989 21.0604 26.1407 21.5953L26.1407 21.5955C26.2287 22.732 25.7515 23.6994 25.3119 24.5909C25.3007 24.6136 25.2895 24.6363 25.2784 24.6589L25.2777 24.6601C25.1655 24.8848 25.0455 25.1189 24.9043 25.3418L24.9039 25.3424C24.8716 25.3931 24.8404 25.441 24.8101 25.4874C24.751 25.5778 24.6957 25.6626 24.6439 25.7512C24.5675 25.8818 24.5137 25.997 24.4878 26.104C24.463 26.2066 24.4643 26.2993 24.4977 26.3925C24.532 26.4882 24.6072 26.6041 24.763 26.7387L24.5997 26.9279L24.7607 26.7366C24.8081 26.7765 24.8449 26.8277 24.8694 26.8766C24.8906 26.9189 24.9217 26.9969 24.9102 27.0886C24.8488 27.6834 25.0514 28.0731 25.3663 28.4085C25.5294 28.5822 25.722 28.7402 25.931 28.9047C25.9639 28.9306 25.9973 28.9568 26.0311 28.9832C26.207 29.1209 26.3921 29.2656 26.5615 29.421L24.2291 20.3786ZM26.9572 30.8982L26.9448 30.913C26.6888 31.2165 26.3818 31.3172 26.0826 31.2595C25.807 31.2063 25.578 31.0265 25.4245 30.8539L25.424 30.8533C25.0128 30.3881 24.6033 30.1416 24.1772 30.058C23.7487 29.9738 23.2699 30.0477 22.709 30.2867C22.2555 30.481 21.783 30.5339 21.3256 30.5426C21.0968 30.5469 20.8674 30.5402 20.6449 30.5332L20.6163 30.5324C20.4028 30.5257 20.1959 30.5192 19.992 30.5214C19.9911 30.5214 19.9902 30.5214 19.9894 30.5214L19.9866 30.2714L26.9572 30.8982ZM26.9572 30.8982L26.9672 30.8818M26.9572 30.8982L26.9672 30.8818M26.9672 30.8818C27.0637 30.7233 27.1196 30.5671 27.1313 30.4112M26.9672 30.8818L27.1313 30.4112M9.34185 43.9131L9.34299 43.9135C10.4566 44.2713 11.4855 44.8147 12.4537 45.4474L12.4541 45.4476C13.4987 46.1327 14.6815 46.3308 15.9274 46.4552L9.34185 43.9131ZM9.34185 43.9131C9.14444 43.8507 9.03913 43.7656 8.97626 43.6681C8.90977 43.565 8.87018 43.4162 8.86591 43.1895C8.84153 41.8094 9.05485 40.4636 9.48503 39.1703L9.34185 43.9131ZM24.1986 50.3558L24.2008 50.3764C24.2225 50.5796 24.2369 50.711 24.2563 50.8004C24.2567 50.8023 24.2571 50.8041 24.2575 50.8059C24.258 50.8057 24.2585 50.8056 24.259 50.8054C24.3441 50.778 24.4626 50.7252 24.6466 50.6425L24.6468 50.6424C25.2013 50.3939 25.756 50.1392 26.3119 49.8839C27.3949 49.3865 28.4826 48.887 29.5832 48.4269M24.1986 50.3558L29.5832 48.4269M24.1986 50.3558L24.1931 50.3359M24.1986 50.3558L24.1931 50.3359M29.5832 48.4269C30.311 48.1215 30.709 47.5899 31.0112 46.8612M29.5832 48.4269L31.0112 46.8612M24.1931 50.3359C23.9119 49.326 23.4725 48.5318 22.838 47.9644C22.2019 47.3954 21.3901 47.0728 20.3982 46.9709M24.1931 50.3359L20.3982 46.9709M27.1313 30.4112C27.1431 30.2534 27.1083 30.1122 27.0478 29.9876M27.1313 30.4112L27.0478 29.9876M27.0478 29.9876C26.9409 29.7677 26.7443 29.5881 26.5888 29.446M27.0478 29.9876L26.5888 29.446M26.5888 29.446C26.5796 29.4375 26.5705 29.4292 26.5615 29.421L26.5888 29.446ZM20.3982 46.9709C19.6882 46.8978 18.9801 46.811 18.2696 46.7238M20.3982 46.9709L18.2696 46.7238M18.2696 46.7238L18.167 46.7112M18.2696 46.7238L18.167 46.7112M18.167 46.7112C17.4229 46.62 16.6763 46.5291 15.9275 46.4552L18.167 46.7112ZM1.54701 41.7751C2.43102 41.7431 3.32125 41.7431 4.20526 41.7751L1.55635 58.3422C0.678568 58.3198 0.0124508 57.66 0.0093381 56.7601C-0.0031127 52.3021 -0.0031127 47.8441 0.0093381 43.386C0.0124508 42.4861 0.666118 41.8072 1.54701 41.7751ZM7.13577 43.7079C7.13565 43.7078 7.13573 43.7059 7.13634 43.7028C7.13619 43.7065 7.13588 43.708 7.13577 43.7079ZM7.23614 43.6098C7.23765 43.6096 7.23847 43.6097 7.2385 43.6097C7.23853 43.6098 7.23779 43.6098 7.23614 43.6098Z" fill="#010201" stroke="black" stroke-width="0.5"/>
<path d="M19.9707 30.0923C21.3652 30.0315 22.7784 30.0923 24.0577 29.3525C24.2569 29.2372 24.3783 29.4038 24.5059 29.5095C24.9261 29.8617 25.3494 30.2076 25.7541 30.5759C26.0654 30.8577 26.3829 30.957 26.7626 30.7521C27.105 31.0787 27.4505 31.4086 27.7929 31.7385C27.4816 32.1964 27.7182 32.5199 28.017 32.8658C29.7944 34.9379 31.1982 37.2309 31.8643 39.9371C32.5367 42.6817 32.381 45.3463 31.0021 47.8603C30.8465 48.1454 30.6815 48.4144 30.3609 48.5585C28.2038 49.5225 26.056 50.4993 23.8055 51.5177C23.8055 51.1078 23.8055 50.7715 23.8055 50.432C23.8709 50.2078 24.0079 50.0317 24.1604 49.8652C26.5011 47.3063 27.133 44.2414 26.6008 40.8659C26.1338 37.9067 24.7269 35.4118 22.8966 33.1284C22.0095 32.0203 21.0135 31.0339 19.9707 30.0923Z" fill="#EC9D3E"/>
<path d="M19.9717 30.0922C21.1265 30.499 21.7739 31.5302 22.5334 32.3853C23.654 33.6471 24.6189 35.0435 25.3815 36.5871C26.2375 38.3165 26.7791 40.1068 26.9223 42.0475C27.0593 43.9179 26.8196 45.6953 26.0383 47.3895C25.4967 48.5584 24.843 49.6441 23.8065 50.4319C23.2462 48.3727 21.8797 47.4824 19.8471 47.3639C18.1072 47.2614 16.3765 46.9892 14.6458 46.7586C13.684 46.6305 12.8187 46.1981 11.9938 45.6857C11.088 45.122 10.1667 44.5776 9.12701 44.3342C8.53249 44.1965 8.43288 43.8538 8.42354 43.3094C8.37997 40.5423 9.19238 38.0411 10.5744 35.7096C11.9502 33.3909 13.7587 31.4694 15.8038 29.7752C15.975 29.6311 16.1244 29.3589 16.4325 29.4998C17.5624 30.0058 18.7702 30.0346 19.9717 30.0922Z" fill="#EABC6B"/>
<path d="M5.79432 53.9286C5.78498 52.4426 5.7663 50.9598 5.77564 49.4738C5.77875 49.0158 5.66358 48.686 5.18734 48.5835C4.86984 48.0935 4.86984 47.6003 5.18734 47.1103C5.89081 46.9758 5.76319 46.4089 5.7663 45.9189C5.77253 44.9037 5.76942 44.8781 6.7468 44.9677C8.05414 45.0862 9.33968 45.4001 10.4291 46.1527C12.7294 47.738 15.3285 48.0967 17.9836 48.3112C18.8894 48.3849 19.7921 48.4842 20.6917 48.6283C22.0146 48.8365 22.8955 50.2104 22.6496 51.5491C22.5718 51.975 22.2916 51.8181 22.0893 51.8213C20.5641 51.8341 19.0389 51.8277 17.5136 51.8277C17.3424 51.8277 17.1681 51.8117 16.9969 51.8341C16.6452 51.8821 16.3837 52.0423 16.4117 52.465C16.4366 52.8333 16.6763 53.0063 17.0031 53.0063C19.07 53.0159 21.1368 53.0255 23.2036 52.9934C23.5243 52.987 23.8449 52.7629 24.1561 52.6251C26.4004 51.6259 28.6415 50.6235 30.8827 49.6211C31.3558 50.2584 31.3745 50.9918 30.9294 51.6355C30.6523 52.0327 30.2913 52.3369 29.8928 52.5931C28.3707 53.5699 26.8455 54.5435 25.3514 55.5683C24.1312 56.4074 22.7772 56.6956 21.364 56.7213C18.9548 56.7629 16.5456 56.7533 14.1364 56.7245C13.078 56.7117 12.0384 56.5163 11.0361 56.1224C9.6136 55.5619 8.18487 55.0143 6.75303 54.4698C6.41063 54.3353 6.04956 54.2296 5.79432 53.9286Z" fill="#F0AFA1"/>
<path d="M5.18558 47.1104C5.18558 47.6004 5.18558 48.0936 5.18558 48.5836C4.6533 48.7021 4.6035 49.1153 4.6035 49.5764C4.60661 51.7798 4.60661 53.98 4.6035 56.1834C4.6035 57.1217 4.5288 57.2018 3.59187 57.221C3.02536 57.2338 2.45885 57.2146 1.89234 57.2242C1.38186 57.2338 1.12973 57.0321 1.13284 56.4652C1.14529 52.2122 1.14529 47.9591 1.13284 43.7061C1.13284 43.152 1.33517 42.9278 1.87678 42.9503C2.56468 42.9791 3.2557 42.9727 3.94361 42.9535C4.41051 42.9406 4.61595 43.1328 4.60661 43.626C4.58794 44.4875 4.60973 45.349 4.60039 46.2073C4.59728 46.6557 4.69377 47.0143 5.18558 47.1104Z" fill="#EC9D3E"/>
<path d="M5.79302 53.9283C7.19373 54.3158 8.52908 54.8955 9.86754 55.4495C11.5515 56.1477 13.2573 56.5832 15.0875 56.5256C16.7373 56.4743 18.3901 56.4391 20.0367 56.532C22.4148 56.6665 24.5315 56.0676 26.4613 54.62C27.5508 53.8034 28.7274 53.1148 29.8573 52.3526C31.0681 51.5359 31.2487 51.0363 30.8876 49.6176C31.8681 49.1692 32.8393 48.6952 33.8353 48.2853C34.5699 47.9843 35.1769 48.2373 35.4477 48.8618C35.7092 49.4671 35.4882 50.1428 34.8687 50.5463C31.5537 52.7081 28.2325 54.8666 24.9174 57.0284C23.9805 57.6401 22.9627 57.9411 21.8514 57.9379C19.1185 57.9315 16.3855 57.9219 13.6557 57.9443C12.2052 57.9571 10.9539 57.275 9.64343 56.8042C8.62869 56.4391 7.64196 55.9715 6.61477 55.6609C5.92064 55.4495 5.64984 55.094 5.77123 54.383C5.78991 54.2325 5.78368 54.0788 5.79302 53.9283Z" fill="#F0AFA1"/>
<path d="M19.959 21.8836C20.0804 21.8868 20.208 21.8676 20.3263 21.8932C21.1076 22.0566 21.6896 21.0221 22.4772 21.4609C23.1651 21.8452 23.8249 22.0278 24.5782 21.7331C24.7805 21.6531 24.8459 21.8164 24.8086 21.9861C24.5129 23.3921 23.8405 24.6315 22.9845 25.7332C22.7729 26.0054 22.1597 25.9766 21.7239 26.0374C20.3823 26.2264 19.0438 26.2488 17.7334 25.81C18.5116 24.5194 19.2524 23.2127 19.959 21.8836Z" fill="#EC9D3E"/>
<path d="M20.1879 28.9779C19.1981 28.9075 18.2456 28.8306 17.3118 28.5968C16.792 28.4655 16.5274 28.1645 16.6052 27.6328C16.6892 27.0628 17.0783 26.8994 17.5857 27.0243C19.2883 27.4407 20.9879 27.4375 22.6936 27.0243C23.1636 26.909 23.5465 27.0467 23.643 27.5816C23.7333 28.0972 23.5434 28.4367 22.9987 28.584C22.0618 28.8306 21.1093 28.8914 20.1879 28.9779Z" fill="#FEDF7E"/>
<path d="M19.9593 21.8837C19.5017 23.3633 18.7827 24.6827 17.7368 25.81C16.859 24.7372 16.2583 23.517 15.9097 22.1623C15.8132 21.7908 15.8412 21.6339 16.2863 21.7908C16.7563 21.9573 17.2855 21.999 17.715 21.7011C18.3562 21.2527 18.9383 21.288 19.5484 21.7267C19.6667 21.8068 19.8223 21.8324 19.9593 21.8837Z" fill="#EABB6B"/>
<path d="M19.6934 41.1211C19.6934 40.993 19.6809 40.8649 19.6965 40.7432C19.8272 39.6063 19.6809 38.7031 18.4483 38.1715C17.5083 37.7648 17.3277 36.7431 17.4647 35.7567C17.6079 34.7351 18.1619 33.9601 19.1051 33.595C19.5471 33.4252 19.7494 33.2523 19.7058 32.7559C19.6716 32.378 19.7992 32.0225 20.2537 32.0129C20.7455 32.0033 20.8855 32.3492 20.842 32.7783C20.7984 33.2043 20.926 33.4028 21.3649 33.4733C21.8007 33.5437 22.196 33.7807 22.5508 34.0561C22.8434 34.2835 22.943 34.591 22.7189 34.9144C22.5135 35.2091 22.2302 35.1867 21.9314 35.0329C20.8513 34.4757 20.8513 34.4789 20.8513 35.7247C20.8513 35.9265 20.8638 36.1314 20.8482 36.3332C20.761 37.4157 20.7766 38.2868 22.1088 38.7512C23.2823 39.1611 23.6683 40.3685 23.5064 41.6463C23.3446 42.9273 22.6629 43.8497 21.505 44.3333C21.0567 44.519 20.7517 44.6664 20.8389 45.246C20.9011 45.6592 20.7641 46.0275 20.2661 46.0178C19.7619 46.0082 19.6716 45.6111 19.7089 45.214C19.7556 44.6856 19.5533 44.5222 19.0522 44.4902C18.4576 44.4518 17.9316 44.1411 17.4398 43.8017C17.1565 43.6063 17.0538 43.3181 17.2281 43.0138C17.4211 42.6807 17.7012 42.6519 18.053 42.8281C19.6965 43.6479 19.6996 43.6383 19.6996 41.8096C19.6934 41.5758 19.6934 41.3485 19.6934 41.1211Z" fill="#030302"/>
<path d="M20.8461 41.3174C20.8461 40.8883 20.8741 40.4559 20.8398 40.03C20.79 39.4535 20.9768 39.3702 21.4499 39.6264C22.1347 39.9979 22.4647 40.5872 22.4086 41.3526C22.3495 42.1821 21.9448 42.8226 21.2009 43.2101C20.9394 43.3447 20.8461 43.2678 20.8492 42.9828C20.8492 42.4255 20.8461 41.8715 20.8461 41.3174Z" fill="#E9BB6A"/>
<path d="M19.6946 34.6177C19.6946 35.4952 19.6853 36.2958 19.6978 37.0965C19.704 37.4872 19.6168 37.6025 19.2464 37.3783C18.7795 37.0933 18.5398 36.7026 18.5554 36.1485C18.5772 35.4632 18.8916 35.018 19.6946 34.6177Z" fill="#E9BB6B"/>
</g>
<defs>
<clipPath id="clip0_558_1606">
<rect width="60" height="60" fill="white"/>
</clipPath>
</defs>
</svg>
