<svg width="24" height="24" viewBox="0 0 24 24" fill="none" xmlns="http://www.w3.org/2000/svg">
<path d="M21.6991 17.7607C20.887 16.9425 18.9203 15.7485 17.9661 15.2673C16.7235 14.6414 16.6212 14.5902 15.6445 15.3159C14.9931 15.8001 14.5599 16.2327 13.7975 16.0701C13.035 15.9075 11.3782 14.9906 9.92748 13.5445C8.47674 12.0984 7.50668 10.3935 7.34356 9.63358C7.18043 8.87369 7.62021 8.44568 8.09987 7.79267C8.77589 6.87221 8.72475 6.7188 8.14691 5.47619C7.6964 4.50971 6.46759 2.56142 5.64634 1.75346C4.76782 0.885677 4.76782 1.03909 4.20174 1.27431C3.74088 1.46822 3.29875 1.70392 2.88089 1.97846C2.0627 2.52204 1.60861 2.97358 1.29106 3.65216C0.973499 4.33073 0.830829 5.92159 2.47077 8.90079C4.11072 11.88 5.26129 13.4034 7.64271 15.7781C10.0241 18.1529 11.8553 19.4298 14.5323 20.9311C17.8439 22.7859 19.1141 22.4243 19.7948 22.1073C20.4754 21.7902 20.929 21.3402 21.4736 20.522C21.7488 20.1049 21.985 19.6632 22.1793 19.2027C22.415 18.6387 22.5684 18.6387 21.6991 17.7607Z" stroke="#C88719" stroke-width="1.5" stroke-miterlimit="10"/>
</svg>
