<svg width="60" height="60" viewBox="0 0 60 60" fill="none" xmlns="http://www.w3.org/2000/svg">
<path fill-rule="evenodd" clip-rule="evenodd" d="M31.7297 20.3729V24.999C31.7297 25.2369 31.855 25.4406 32.067 25.548C32.2791 25.6554 32.5175 25.6359 32.7091 25.4952L46.4839 15.3893C46.6416 15.2736 46.7287 15.1082 46.735 14.9128C46.7412 14.7175 46.6649 14.5466 46.5149 14.4212L32.7401 2.8923C32.5525 2.73539 32.3064 2.70316 32.0847 2.80664C31.8631 2.91011 31.7297 3.11953 31.7297 3.36422V7.66171C10.2537 7.66171 3.20993 23.4505 9.44934 34.6787C12.9007 21.2386 24.1704 20.3729 31.7297 20.3729Z" fill="#FFB74D"/>
<path fill-rule="evenodd" clip-rule="evenodd" d="M33.5756 18.1686V22.6271L45.6952 13.7354L46.5149 14.4214C46.6648 14.5469 46.7412 14.7177 46.735 14.913C46.7287 15.1084 46.6415 15.2739 46.4839 15.3895L32.7091 25.4954C32.5173 25.636 32.2791 25.6556 32.0669 25.5482C31.8548 25.4408 31.7296 25.237 31.7296 24.9992V20.3731C24.9706 20.3731 15.2452 21.0651 10.7945 30.8193C15.3929 19.2602 25.989 18.1686 33.5756 18.1686Z" fill="#C88719"/>
<path fill-rule="evenodd" clip-rule="evenodd" d="M28.0049 39.3054V34.6793C28.0049 34.4414 27.8797 34.2378 27.6677 34.1303C27.4556 34.023 27.2172 34.0424 27.0256 34.1832L13.2508 44.2891C13.0931 44.4047 13.006 44.5702 12.9997 44.7657C12.9935 44.961 13.0697 45.1319 13.2197 45.2573L26.9945 56.7862C27.1822 56.9431 27.4283 56.9753 27.65 56.8718C27.8716 56.7684 28.0049 56.5589 28.0049 56.3143V52.0168C49.4809 52.0168 56.5247 36.228 50.2853 24.9998C46.8339 38.4398 35.5642 39.3054 28.0049 39.3054Z" fill="#FFB74D"/>
<path fill-rule="evenodd" clip-rule="evenodd" d="M26.4241 41.8314V37.3729L14.3044 46.2646L13.4847 45.5786C13.3348 45.4531 13.2584 45.2824 13.2646 45.087C13.2708 44.8917 13.3581 44.7261 13.5158 44.6105L27.2906 34.5047C27.4823 34.364 27.7205 34.3445 27.9327 34.4518C28.1449 34.5593 28.27 34.7631 28.27 35.0008V39.6269C35.029 39.6269 44.7544 38.9349 49.2051 29.1807C44.6068 40.7398 34.0108 41.8314 26.4241 41.8314Z" fill="#C88719"/>
<path fill-rule="evenodd" clip-rule="evenodd" d="M10.3719 18.4122C14.0512 12.1579 21.8444 8.57095 31.7525 8.57095C32.2704 8.57095 32.69 8.15142 32.69 7.63345V4.01927L45.6367 14.8556L32.69 24.3552V20.3574C32.69 19.8395 32.2704 19.4199 31.7525 19.4199C27.6884 19.4199 22.9565 19.6814 18.6719 21.619C14.2187 23.6316 11.0644 27.1474 9.26795 32.0849C7.53604 27.5697 7.90647 22.603 10.3719 18.4122ZM8.62893 35.1341C8.81526 35.4691 9.18839 35.6581 9.56924 35.6083C9.94846 35.5591 10.2618 35.2838 10.3564 34.9124C13.3299 23.3354 22.2429 21.4216 30.815 21.3022V26.2054C30.815 26.5582 31.0145 26.8815 31.3297 27.0408C31.6448 27.2016 32.0224 27.1695 32.307 26.9612L47.7115 15.66C47.9431 15.4897 48.0841 15.2227 48.0935 14.9341C48.1028 14.6461 47.9785 14.3708 47.7585 14.1856L32.3551 1.29361C32.1826 1.14935 31.9681 1.0747 31.7525 1.0747C31.6176 1.0747 31.4833 1.104 31.3566 1.16259C31.026 1.3174 30.8149 1.64798 30.8149 2.0122V6.70533C25.6396 6.81536 21.0814 7.83853 17.2539 9.75126C13.5823 11.5854 10.6449 14.2515 8.75537 17.4609C5.55323 22.9053 5.50518 29.5122 8.62893 35.1341ZM50.7313 27.9152C48.9347 32.8521 45.7801 36.3678 41.3268 38.3811C37.0427 40.3181 32.3103 40.5795 28.2462 40.5795C27.7288 40.5795 27.3093 40.16 27.3093 39.642V35.6449L14.362 45.144L27.3093 55.9807V52.3665C27.3093 51.8485 27.7288 51.429 28.2462 51.429C38.1543 51.429 45.9475 47.842 49.6274 41.5872C52.0928 37.3966 52.4633 32.4304 50.7313 27.9152ZM29.1837 38.6973V33.7946C29.1837 33.4419 28.9847 33.118 28.6696 32.9587C28.3539 32.7984 27.9769 32.8299 27.6923 33.0384L12.2878 44.3401C12.0556 44.5104 11.9152 44.7773 11.9058 45.0654C11.8965 45.3539 12.0208 45.6293 12.2408 45.8144L27.6442 58.706C27.924 58.9404 28.3131 58.9912 28.6426 58.8376C28.9731 58.6828 29.1837 58.3522 29.1837 57.988V53.2948C34.3588 53.1842 38.9178 52.1616 42.7447 50.2489C46.4163 48.4148 49.3543 45.7487 51.2432 42.5393C54.4461 37.0943 54.4942 30.4875 51.3698 24.8661C51.2034 24.566 50.8872 24.3829 50.5505 24.3829C50.5107 24.3829 50.4709 24.3868 50.4301 24.3913C50.0502 24.4405 49.7375 24.7158 49.6423 25.0877C46.6695 36.6642 37.7563 38.5779 29.1837 38.6973Z" fill="black"/>
</svg>
