<svg width="48" height="48" viewBox="0 0 48 48" fill="none" xmlns="http://www.w3.org/2000/svg">
<g clip-path="url(#clip0_551_798)">
<mask id="path-1-outside-1_551_798" maskUnits="userSpaceOnUse" x="-0.725586" y="-1" width="49" height="50" fill="black">
<rect fill="white" x="-0.725586" y="-1" width="49" height="50"/>
<path d="M46.8464 19.5C46.5678 19.2208 46.2368 18.9994 45.8725 18.8483C45.5081 18.6972 45.1176 18.6194 44.7232 18.6194C44.3287 18.6194 43.9382 18.6972 43.5739 18.8483C43.2095 18.9994 42.8786 19.2208 42.5999 19.5L41.0999 21L36.2729 25.827V11.25C36.2686 11.2176 36.2621 11.1855 36.2534 11.154C36.2496 11.1226 36.2436 11.0915 36.2354 11.061C36.2062 10.9334 36.1435 10.8159 36.0539 10.7205L25.5539 0.2205C25.4591 0.130562 25.3421 0.0674107 25.2149 0.0375C25.1849 0.0294071 25.1543 0.0233929 25.1234 0.0195C25.0909 0.0107119 25.0578 0.00419613 25.0244 0L4.02441 0C3.02985 0 2.07603 0.395088 1.37276 1.09835C0.669502 1.80161 0.274414 2.75544 0.274414 3.75V44.25C0.274414 45.2446 0.669502 46.1984 1.37276 46.9016C2.07603 47.6049 3.02985 48 4.02441 48H32.5244C33.0169 48 33.5045 47.903 33.9595 47.7145C34.4144 47.5261 34.8278 47.2499 35.1761 46.9016C35.5243 46.5534 35.8005 46.14 35.989 45.6851C36.1774 45.2301 36.2744 44.7425 36.2744 44.25V34.314L45.3434 25.245L46.8434 23.745C47.1225 23.4666 47.3441 23.1359 47.4953 22.7718C47.6465 22.4077 47.7245 22.0174 47.7248 21.6231C47.7251 21.2289 47.6476 20.8384 47.4969 20.4741C47.3462 20.1098 47.1251 19.7788 46.8464 19.5ZM25.7744 2.5605L33.7139 10.5H28.0244C27.4277 10.5 26.8554 10.2629 26.4334 9.84099C26.0115 9.41903 25.7744 8.84674 25.7744 8.25V2.5605ZM25.0499 10.5H7.02441C6.8255 10.5 6.63474 10.421 6.49408 10.2803C6.35343 10.1397 6.27441 9.94891 6.27441 9.75V6.75C6.27441 6.55109 6.35343 6.36032 6.49408 6.21967C6.63474 6.07902 6.8255 6 7.02441 6H24.2744V8.25C24.2791 9.06476 24.5516 9.85537 25.0499 10.5ZM34.7804 44.25C34.7804 44.8467 34.5434 45.419 34.1214 45.841C33.6994 46.2629 33.1272 46.5 32.5304 46.5H4.03041C3.43368 46.5 2.86138 46.2629 2.43942 45.841C2.01747 45.419 1.78041 44.8467 1.78041 44.25V3.75C1.78041 3.1543 2.01664 2.58291 2.4373 2.16113C2.85796 1.73934 3.42872 1.50159 4.02441 1.5H24.2744V4.5H7.02441C6.42768 4.5 5.85538 4.73705 5.43342 5.15901C5.01147 5.58097 4.77441 6.15326 4.77441 6.75V9.75C4.77441 10.3467 5.01147 10.919 5.43342 11.341C5.85538 11.7629 6.42768 12 7.02441 12H34.7744V27.3285L26.1629 35.94C26.1291 35.9806 26.0999 36.0249 26.0759 36.072C26.0609 36.096 26.0354 36.1095 26.0234 36.135L23.9024 40.377C23.842 40.5047 23.8194 40.6471 23.8375 40.7872C23.8556 40.9273 23.9135 41.0593 24.0044 41.1675L23.0714 42.1095C22.9946 42.1777 22.9326 42.261 22.8893 42.3541C22.846 42.4473 22.8223 42.5483 22.8197 42.651C22.8171 42.7537 22.8355 42.8558 22.874 42.9511C22.9125 43.0463 22.9701 43.1327 23.0433 43.2047C23.1165 43.2768 23.2037 43.333 23.2995 43.37C23.3954 43.407 23.4978 43.4239 23.6004 43.4196C23.703 43.4154 23.8037 43.3901 23.8962 43.3454C23.9886 43.3006 24.0709 43.2374 24.1379 43.1595L25.0454 42.2415L25.1024 42.2985C25.2136 42.4098 25.3571 42.4834 25.5124 42.5087C25.6677 42.534 25.8271 42.5098 25.9679 42.4395L30.2099 40.317C30.2354 40.305 30.2489 40.2795 30.2729 40.2645C30.32 40.2405 30.3643 40.2113 30.4049 40.1775L34.7744 35.8095L34.7804 44.25ZM26.9054 37.737L28.6154 39.447L25.7879 40.8615L25.5854 40.6575V40.6485H25.5764L25.4984 40.5705L26.9054 37.737ZM35.0054 33.471L29.8874 38.5875L27.7499 36.471L41.6279 22.593L43.7489 24.714L35.0054 33.471ZM45.7949 22.6815L44.8229 23.6535L42.7004 21.531L43.6724 20.559C43.8118 20.4196 43.9772 20.3091 44.1593 20.2337C44.3414 20.1582 44.5366 20.1194 44.7337 20.1194C44.9308 20.1194 45.1259 20.1582 45.308 20.2337C45.4901 20.3091 45.6555 20.4196 45.7949 20.559C45.9343 20.6984 46.0448 20.8638 46.1203 21.0459C46.1957 21.228 46.2345 21.4232 46.2345 21.6203C46.2345 21.8173 46.1957 22.0125 46.1203 22.1946C46.0448 22.3767 45.9343 22.5421 45.7949 22.6815ZM13.0244 24H31.0244C31.2233 24 31.4141 23.921 31.5547 23.7803C31.6954 23.6397 31.7744 23.4489 31.7744 23.25C31.7744 23.0511 31.6954 22.8603 31.5547 22.7197C31.4141 22.579 31.2233 22.5 31.0244 22.5H13.0244C12.8255 22.5 12.6347 22.579 12.4941 22.7197C12.3534 22.8603 12.2744 23.0511 12.2744 23.25C12.2744 23.4489 12.3534 23.6397 12.4941 23.7803C12.6347 23.921 12.8255 24 13.0244 24ZM13.0244 19.5H31.0244C31.2233 19.5 31.4141 19.421 31.5547 19.2803C31.6954 19.1397 31.7744 18.9489 31.7744 18.75C31.7744 18.5511 31.6954 18.3603 31.5547 18.2197C31.4141 18.079 31.2233 18 31.0244 18H13.0244C12.8255 18 12.6347 18.079 12.4941 18.2197C12.3534 18.3603 12.2744 18.5511 12.2744 18.75C12.2744 18.9489 12.3534 19.1397 12.4941 19.2803C12.6347 19.421 12.8255 19.5 13.0244 19.5ZM20.5244 41.8875C19.9467 41.9022 19.3798 41.729 18.9089 41.394C18.1982 40.9326 17.369 40.6871 16.5217 40.6871C15.6743 40.6871 14.8451 40.9326 14.1344 41.394C13.6635 41.729 13.0966 41.9022 12.5189 41.8875C11.9434 41.9032 11.3782 41.7321 10.9079 41.4C10.2051 40.9246 9.3728 40.6774 8.52441 40.692C8.3255 40.692 8.13474 40.771 7.99408 40.9117C7.85343 41.0523 7.77441 41.2431 7.77441 41.442C7.77441 41.6409 7.85343 41.8317 7.99408 41.9723C8.13474 42.113 8.3255 42.192 8.52441 42.192C9.10114 42.1778 9.66694 42.3509 10.1369 42.6855C10.8398 43.1609 11.672 43.4081 12.5204 43.3935C13.3695 43.4083 14.2027 43.1616 14.9069 42.687C15.384 42.3654 15.9463 42.1936 16.5217 42.1936C17.097 42.1936 17.6593 42.3654 18.1364 42.687C18.8407 43.1616 19.6738 43.4083 20.5229 43.3935C20.7218 43.3935 20.9126 43.3145 21.0532 43.1738C21.1939 43.0332 21.2729 42.8424 21.2729 42.6435C21.2729 42.4446 21.1939 42.2538 21.0532 42.1132C20.9126 41.9725 20.7218 41.8935 20.5229 41.8935L20.5244 41.8875ZM13.0244 16.5H31.0244C31.2233 16.5 31.4141 16.421 31.5547 16.2803C31.6954 16.1397 31.7744 15.9489 31.7744 15.75C31.7744 15.5511 31.6954 15.3603 31.5547 15.2197C31.4141 15.079 31.2233 15 31.0244 15H13.0244C12.8255 15 12.6347 15.079 12.4941 15.2197C12.3534 15.3603 12.2744 15.5511 12.2744 15.75C12.2744 15.9489 12.3534 16.1397 12.4941 16.2803C12.6347 16.421 12.8255 16.5 13.0244 16.5ZM13.0244 27H31.0244C31.2233 27 31.4141 26.921 31.5547 26.7803C31.6954 26.6397 31.7744 26.4489 31.7744 26.25C31.7744 26.0511 31.6954 25.8603 31.5547 25.7197C31.4141 25.579 31.2233 25.5 31.0244 25.5H13.0244C12.8255 25.5 12.6347 25.579 12.4941 25.7197C12.3534 25.8603 12.2744 26.0511 12.2744 26.25C12.2744 26.4489 12.3534 26.6397 12.4941 26.7803C12.6347 26.921 12.8255 27 13.0244 27ZM7.02441 27C7.46942 27 7.90444 26.868 8.27445 26.6208C8.64446 26.3736 8.93285 26.0222 9.10314 25.611C9.27344 25.1999 9.318 24.7475 9.23118 24.311C9.14436 23.8746 8.93007 23.4737 8.6154 23.159C8.30074 22.8443 7.89982 22.63 7.46337 22.5432C7.02691 22.4564 6.57451 22.501 6.16338 22.6713C5.75224 22.8416 5.40084 23.13 5.15361 23.5C4.90637 23.87 4.77441 24.305 4.77441 24.75C4.77441 25.3467 5.01147 25.919 5.43342 26.341C5.85538 26.7629 6.42768 27 7.02441 27ZM7.02441 24C7.17275 24 7.31775 24.044 7.44109 24.1264C7.56443 24.2088 7.66056 24.3259 7.71732 24.463C7.77409 24.6 7.78894 24.7508 7.76 24.8963C7.73106 25.0418 7.65963 25.1754 7.55474 25.2803C7.44985 25.3852 7.31622 25.4566 7.17073 25.4856C7.02525 25.5145 6.87445 25.4997 6.7374 25.4429C6.60036 25.3861 6.48322 25.29 6.40081 25.1667C6.3184 25.0433 6.27441 24.8983 6.27441 24.75C6.27441 24.5511 6.35343 24.3603 6.49408 24.2197C6.63474 24.079 6.8255 24 7.02441 24ZM9.27441 32.25C9.27441 31.805 9.14245 31.37 8.89522 31C8.64799 30.63 8.29659 30.3416 7.88545 30.1713C7.47432 30.001 7.02192 29.9564 6.58546 30.0432C6.149 30.13 5.74809 30.3443 5.43342 30.659C5.11876 30.9737 4.90446 31.3746 4.81765 31.811C4.73083 32.2475 4.77539 32.6999 4.94568 33.111C5.11598 33.5222 5.40437 33.8736 5.77438 34.1208C6.14439 34.368 6.57941 34.5 7.02441 34.5C7.62115 34.5 8.19345 34.2629 8.6154 33.841C9.03736 33.419 9.27441 32.8467 9.27441 32.25ZM7.02441 33C6.87608 33 6.73107 32.956 6.60774 32.8736C6.4844 32.7912 6.38827 32.6741 6.3315 32.537C6.27474 32.4 6.25989 32.2492 6.28883 32.1037C6.31776 31.9582 6.38919 31.8246 6.49408 31.7197C6.59897 31.6148 6.73261 31.5434 6.8781 31.5144C7.02358 31.4855 7.17438 31.5003 7.31143 31.5571C7.44847 31.6139 7.56561 31.71 7.64802 31.8333C7.73043 31.9567 7.77441 32.1017 7.77441 32.25C7.77441 32.4489 7.6954 32.6397 7.55474 32.7803C7.41409 32.921 7.22333 33 7.02441 33ZM13.0244 31.5H25.0244C25.2233 31.5 25.4141 31.421 25.5547 31.2803C25.6954 31.1397 25.7744 30.9489 25.7744 30.75C25.7744 30.5511 25.6954 30.3603 25.5547 30.2197C25.4141 30.079 25.2233 30 25.0244 30H13.0244C12.8255 30 12.6347 30.079 12.4941 30.2197C12.3534 30.3603 12.2744 30.5511 12.2744 30.75C12.2744 30.9489 12.3534 31.1397 12.4941 31.2803C12.6347 31.421 12.8255 31.5 13.0244 31.5ZM7.02441 19.5C7.46942 19.5 7.90444 19.368 8.27445 19.1208C8.64446 18.8736 8.93285 18.5222 9.10314 18.111C9.27344 17.6999 9.318 17.2475 9.23118 16.811C9.14436 16.3746 8.93007 15.9737 8.6154 15.659C8.30074 15.3443 7.89982 15.13 7.46337 15.0432C7.02691 14.9564 6.57451 15.001 6.16338 15.1713C5.75224 15.3416 5.40084 15.63 5.15361 16C4.90637 16.37 4.77441 16.805 4.77441 17.25C4.77441 17.8467 5.01147 18.419 5.43342 18.841C5.85538 19.2629 6.42768 19.5 7.02441 19.5ZM7.02441 16.5C7.17275 16.5 7.31775 16.544 7.44109 16.6264C7.56443 16.7088 7.66056 16.8259 7.71732 16.963C7.77409 17.1 7.78894 17.2508 7.76 17.3963C7.73106 17.5418 7.65963 17.6754 7.55474 17.7803C7.44985 17.8852 7.31622 17.9566 7.17073 17.9856C7.02525 18.0145 6.87445 17.9997 6.7374 17.9429C6.60036 17.8861 6.48322 17.79 6.40081 17.6667C6.3184 17.5433 6.27441 17.3983 6.27441 17.25C6.27441 17.0511 6.35343 16.8603 6.49408 16.7197C6.63474 16.579 6.8255 16.5 7.02441 16.5ZM13.0244 34.5H25.0244C25.2233 34.5 25.4141 34.421 25.5547 34.2803C25.6954 34.1397 25.7744 33.9489 25.7744 33.75C25.7744 33.5511 25.6954 33.3603 25.5547 33.2197C25.4141 33.079 25.2233 33 25.0244 33H13.0244C12.8255 33 12.6347 33.079 12.4941 33.2197C12.3534 33.3603 12.2744 33.5511 12.2744 33.75C12.2744 33.9489 12.3534 34.1397 12.4941 34.2803C12.6347 34.421 12.8255 34.5 13.0244 34.5Z"/>
</mask>
<path d="M46.8464 19.5C46.5678 19.2208 46.2368 18.9994 45.8725 18.8483C45.5081 18.6972 45.1176 18.6194 44.7232 18.6194C44.3287 18.6194 43.9382 18.6972 43.5739 18.8483C43.2095 18.9994 42.8786 19.2208 42.5999 19.5L41.0999 21L36.2729 25.827V11.25C36.2686 11.2176 36.2621 11.1855 36.2534 11.154C36.2496 11.1226 36.2436 11.0915 36.2354 11.061C36.2062 10.9334 36.1435 10.8159 36.0539 10.7205L25.5539 0.2205C25.4591 0.130562 25.3421 0.0674107 25.2149 0.0375C25.1849 0.0294071 25.1543 0.0233929 25.1234 0.0195C25.0909 0.0107119 25.0578 0.00419613 25.0244 0L4.02441 0C3.02985 0 2.07603 0.395088 1.37276 1.09835C0.669502 1.80161 0.274414 2.75544 0.274414 3.75V44.25C0.274414 45.2446 0.669502 46.1984 1.37276 46.9016C2.07603 47.6049 3.02985 48 4.02441 48H32.5244C33.0169 48 33.5045 47.903 33.9595 47.7145C34.4144 47.5261 34.8278 47.2499 35.1761 46.9016C35.5243 46.5534 35.8005 46.14 35.989 45.6851C36.1774 45.2301 36.2744 44.7425 36.2744 44.25V34.314L45.3434 25.245L46.8434 23.745C47.1225 23.4666 47.3441 23.1359 47.4953 22.7718C47.6465 22.4077 47.7245 22.0174 47.7248 21.6231C47.7251 21.2289 47.6476 20.8384 47.4969 20.4741C47.3462 20.1098 47.1251 19.7788 46.8464 19.5ZM25.7744 2.5605L33.7139 10.5H28.0244C27.4277 10.5 26.8554 10.2629 26.4334 9.84099C26.0115 9.41903 25.7744 8.84674 25.7744 8.25V2.5605ZM25.0499 10.5H7.02441C6.8255 10.5 6.63474 10.421 6.49408 10.2803C6.35343 10.1397 6.27441 9.94891 6.27441 9.75V6.75C6.27441 6.55109 6.35343 6.36032 6.49408 6.21967C6.63474 6.07902 6.8255 6 7.02441 6H24.2744V8.25C24.2791 9.06476 24.5516 9.85537 25.0499 10.5ZM34.7804 44.25C34.7804 44.8467 34.5434 45.419 34.1214 45.841C33.6994 46.2629 33.1272 46.5 32.5304 46.5H4.03041C3.43368 46.5 2.86138 46.2629 2.43942 45.841C2.01747 45.419 1.78041 44.8467 1.78041 44.25V3.75C1.78041 3.1543 2.01664 2.58291 2.4373 2.16113C2.85796 1.73934 3.42872 1.50159 4.02441 1.5H24.2744V4.5H7.02441C6.42768 4.5 5.85538 4.73705 5.43342 5.15901C5.01147 5.58097 4.77441 6.15326 4.77441 6.75V9.75C4.77441 10.3467 5.01147 10.919 5.43342 11.341C5.85538 11.7629 6.42768 12 7.02441 12H34.7744V27.3285L26.1629 35.94C26.1291 35.9806 26.0999 36.0249 26.0759 36.072C26.0609 36.096 26.0354 36.1095 26.0234 36.135L23.9024 40.377C23.842 40.5047 23.8194 40.6471 23.8375 40.7872C23.8556 40.9273 23.9135 41.0593 24.0044 41.1675L23.0714 42.1095C22.9946 42.1777 22.9326 42.261 22.8893 42.3541C22.846 42.4473 22.8223 42.5483 22.8197 42.651C22.8171 42.7537 22.8355 42.8558 22.874 42.9511C22.9125 43.0463 22.9701 43.1327 23.0433 43.2047C23.1165 43.2768 23.2037 43.333 23.2995 43.37C23.3954 43.407 23.4978 43.4239 23.6004 43.4196C23.703 43.4154 23.8037 43.3901 23.8962 43.3454C23.9886 43.3006 24.0709 43.2374 24.1379 43.1595L25.0454 42.2415L25.1024 42.2985C25.2136 42.4098 25.3571 42.4834 25.5124 42.5087C25.6677 42.534 25.8271 42.5098 25.9679 42.4395L30.2099 40.317C30.2354 40.305 30.2489 40.2795 30.2729 40.2645C30.32 40.2405 30.3643 40.2113 30.4049 40.1775L34.7744 35.8095L34.7804 44.25ZM26.9054 37.737L28.6154 39.447L25.7879 40.8615L25.5854 40.6575V40.6485H25.5764L25.4984 40.5705L26.9054 37.737ZM35.0054 33.471L29.8874 38.5875L27.7499 36.471L41.6279 22.593L43.7489 24.714L35.0054 33.471ZM45.7949 22.6815L44.8229 23.6535L42.7004 21.531L43.6724 20.559C43.8118 20.4196 43.9772 20.3091 44.1593 20.2337C44.3414 20.1582 44.5366 20.1194 44.7337 20.1194C44.9308 20.1194 45.1259 20.1582 45.308 20.2337C45.4901 20.3091 45.6555 20.4196 45.7949 20.559C45.9343 20.6984 46.0448 20.8638 46.1203 21.0459C46.1957 21.228 46.2345 21.4232 46.2345 21.6203C46.2345 21.8173 46.1957 22.0125 46.1203 22.1946C46.0448 22.3767 45.9343 22.5421 45.7949 22.6815ZM13.0244 24H31.0244C31.2233 24 31.4141 23.921 31.5547 23.7803C31.6954 23.6397 31.7744 23.4489 31.7744 23.25C31.7744 23.0511 31.6954 22.8603 31.5547 22.7197C31.4141 22.579 31.2233 22.5 31.0244 22.5H13.0244C12.8255 22.5 12.6347 22.579 12.4941 22.7197C12.3534 22.8603 12.2744 23.0511 12.2744 23.25C12.2744 23.4489 12.3534 23.6397 12.4941 23.7803C12.6347 23.921 12.8255 24 13.0244 24ZM13.0244 19.5H31.0244C31.2233 19.5 31.4141 19.421 31.5547 19.2803C31.6954 19.1397 31.7744 18.9489 31.7744 18.75C31.7744 18.5511 31.6954 18.3603 31.5547 18.2197C31.4141 18.079 31.2233 18 31.0244 18H13.0244C12.8255 18 12.6347 18.079 12.4941 18.2197C12.3534 18.3603 12.2744 18.5511 12.2744 18.75C12.2744 18.9489 12.3534 19.1397 12.4941 19.2803C12.6347 19.421 12.8255 19.5 13.0244 19.5ZM20.5244 41.8875C19.9467 41.9022 19.3798 41.729 18.9089 41.394C18.1982 40.9326 17.369 40.6871 16.5217 40.6871C15.6743 40.6871 14.8451 40.9326 14.1344 41.394C13.6635 41.729 13.0966 41.9022 12.5189 41.8875C11.9434 41.9032 11.3782 41.7321 10.9079 41.4C10.2051 40.9246 9.3728 40.6774 8.52441 40.692C8.3255 40.692 8.13474 40.771 7.99408 40.9117C7.85343 41.0523 7.77441 41.2431 7.77441 41.442C7.77441 41.6409 7.85343 41.8317 7.99408 41.9723C8.13474 42.113 8.3255 42.192 8.52441 42.192C9.10114 42.1778 9.66694 42.3509 10.1369 42.6855C10.8398 43.1609 11.672 43.4081 12.5204 43.3935C13.3695 43.4083 14.2027 43.1616 14.9069 42.687C15.384 42.3654 15.9463 42.1936 16.5217 42.1936C17.097 42.1936 17.6593 42.3654 18.1364 42.687C18.8407 43.1616 19.6738 43.4083 20.5229 43.3935C20.7218 43.3935 20.9126 43.3145 21.0532 43.1738C21.1939 43.0332 21.2729 42.8424 21.2729 42.6435C21.2729 42.4446 21.1939 42.2538 21.0532 42.1132C20.9126 41.9725 20.7218 41.8935 20.5229 41.8935L20.5244 41.8875ZM13.0244 16.5H31.0244C31.2233 16.5 31.4141 16.421 31.5547 16.2803C31.6954 16.1397 31.7744 15.9489 31.7744 15.75C31.7744 15.5511 31.6954 15.3603 31.5547 15.2197C31.4141 15.079 31.2233 15 31.0244 15H13.0244C12.8255 15 12.6347 15.079 12.4941 15.2197C12.3534 15.3603 12.2744 15.5511 12.2744 15.75C12.2744 15.9489 12.3534 16.1397 12.4941 16.2803C12.6347 16.421 12.8255 16.5 13.0244 16.5ZM13.0244 27H31.0244C31.2233 27 31.4141 26.921 31.5547 26.7803C31.6954 26.6397 31.7744 26.4489 31.7744 26.25C31.7744 26.0511 31.6954 25.8603 31.5547 25.7197C31.4141 25.579 31.2233 25.5 31.0244 25.5H13.0244C12.8255 25.5 12.6347 25.579 12.4941 25.7197C12.3534 25.8603 12.2744 26.0511 12.2744 26.25C12.2744 26.4489 12.3534 26.6397 12.4941 26.7803C12.6347 26.921 12.8255 27 13.0244 27ZM7.02441 27C7.46942 27 7.90444 26.868 8.27445 26.6208C8.64446 26.3736 8.93285 26.0222 9.10314 25.611C9.27344 25.1999 9.318 24.7475 9.23118 24.311C9.14436 23.8746 8.93007 23.4737 8.6154 23.159C8.30074 22.8443 7.89982 22.63 7.46337 22.5432C7.02691 22.4564 6.57451 22.501 6.16338 22.6713C5.75224 22.8416 5.40084 23.13 5.15361 23.5C4.90637 23.87 4.77441 24.305 4.77441 24.75C4.77441 25.3467 5.01147 25.919 5.43342 26.341C5.85538 26.7629 6.42768 27 7.02441 27ZM7.02441 24C7.17275 24 7.31775 24.044 7.44109 24.1264C7.56443 24.2088 7.66056 24.3259 7.71732 24.463C7.77409 24.6 7.78894 24.7508 7.76 24.8963C7.73106 25.0418 7.65963 25.1754 7.55474 25.2803C7.44985 25.3852 7.31622 25.4566 7.17073 25.4856C7.02525 25.5145 6.87445 25.4997 6.7374 25.4429C6.60036 25.3861 6.48322 25.29 6.40081 25.1667C6.3184 25.0433 6.27441 24.8983 6.27441 24.75C6.27441 24.5511 6.35343 24.3603 6.49408 24.2197C6.63474 24.079 6.8255 24 7.02441 24ZM9.27441 32.25C9.27441 31.805 9.14245 31.37 8.89522 31C8.64799 30.63 8.29659 30.3416 7.88545 30.1713C7.47432 30.001 7.02192 29.9564 6.58546 30.0432C6.149 30.13 5.74809 30.3443 5.43342 30.659C5.11876 30.9737 4.90446 31.3746 4.81765 31.811C4.73083 32.2475 4.77539 32.6999 4.94568 33.111C5.11598 33.5222 5.40437 33.8736 5.77438 34.1208C6.14439 34.368 6.57941 34.5 7.02441 34.5C7.62115 34.5 8.19345 34.2629 8.6154 33.841C9.03736 33.419 9.27441 32.8467 9.27441 32.25ZM7.02441 33C6.87608 33 6.73107 32.956 6.60774 32.8736C6.4844 32.7912 6.38827 32.6741 6.3315 32.537C6.27474 32.4 6.25989 32.2492 6.28883 32.1037C6.31776 31.9582 6.38919 31.8246 6.49408 31.7197C6.59897 31.6148 6.73261 31.5434 6.8781 31.5144C7.02358 31.4855 7.17438 31.5003 7.31143 31.5571C7.44847 31.6139 7.56561 31.71 7.64802 31.8333C7.73043 31.9567 7.77441 32.1017 7.77441 32.25C7.77441 32.4489 7.6954 32.6397 7.55474 32.7803C7.41409 32.921 7.22333 33 7.02441 33ZM13.0244 31.5H25.0244C25.2233 31.5 25.4141 31.421 25.5547 31.2803C25.6954 31.1397 25.7744 30.9489 25.7744 30.75C25.7744 30.5511 25.6954 30.3603 25.5547 30.2197C25.4141 30.079 25.2233 30 25.0244 30H13.0244C12.8255 30 12.6347 30.079 12.4941 30.2197C12.3534 30.3603 12.2744 30.5511 12.2744 30.75C12.2744 30.9489 12.3534 31.1397 12.4941 31.2803C12.6347 31.421 12.8255 31.5 13.0244 31.5ZM7.02441 19.5C7.46942 19.5 7.90444 19.368 8.27445 19.1208C8.64446 18.8736 8.93285 18.5222 9.10314 18.111C9.27344 17.6999 9.318 17.2475 9.23118 16.811C9.14436 16.3746 8.93007 15.9737 8.6154 15.659C8.30074 15.3443 7.89982 15.13 7.46337 15.0432C7.02691 14.9564 6.57451 15.001 6.16338 15.1713C5.75224 15.3416 5.40084 15.63 5.15361 16C4.90637 16.37 4.77441 16.805 4.77441 17.25C4.77441 17.8467 5.01147 18.419 5.43342 18.841C5.85538 19.2629 6.42768 19.5 7.02441 19.5ZM7.02441 16.5C7.17275 16.5 7.31775 16.544 7.44109 16.6264C7.56443 16.7088 7.66056 16.8259 7.71732 16.963C7.77409 17.1 7.78894 17.2508 7.76 17.3963C7.73106 17.5418 7.65963 17.6754 7.55474 17.7803C7.44985 17.8852 7.31622 17.9566 7.17073 17.9856C7.02525 18.0145 6.87445 17.9997 6.7374 17.9429C6.60036 17.8861 6.48322 17.79 6.40081 17.6667C6.3184 17.5433 6.27441 17.3983 6.27441 17.25C6.27441 17.0511 6.35343 16.8603 6.49408 16.7197C6.63474 16.579 6.8255 16.5 7.02441 16.5ZM13.0244 34.5H25.0244C25.2233 34.5 25.4141 34.421 25.5547 34.2803C25.6954 34.1397 25.7744 33.9489 25.7744 33.75C25.7744 33.5511 25.6954 33.3603 25.5547 33.2197C25.4141 33.079 25.2233 33 25.0244 33H13.0244C12.8255 33 12.6347 33.079 12.4941 33.2197C12.3534 33.3603 12.2744 33.5511 12.2744 33.75C12.2744 33.9489 12.3534 34.1397 12.4941 34.2803C12.6347 34.421 12.8255 34.5 13.0244 34.5Z" fill="#424242"/>
<path d="M46.8464 19.5C46.5678 19.2208 46.2368 18.9994 45.8725 18.8483C45.5081 18.6972 45.1176 18.6194 44.7232 18.6194C44.3287 18.6194 43.9382 18.6972 43.5739 18.8483C43.2095 18.9994 42.8786 19.2208 42.5999 19.5L41.0999 21L36.2729 25.827V11.25C36.2686 11.2176 36.2621 11.1855 36.2534 11.154C36.2496 11.1226 36.2436 11.0915 36.2354 11.061C36.2062 10.9334 36.1435 10.8159 36.0539 10.7205L25.5539 0.2205C25.4591 0.130562 25.3421 0.0674107 25.2149 0.0375C25.1849 0.0294071 25.1543 0.0233929 25.1234 0.0195C25.0909 0.0107119 25.0578 0.00419613 25.0244 0L4.02441 0C3.02985 0 2.07603 0.395088 1.37276 1.09835C0.669502 1.80161 0.274414 2.75544 0.274414 3.75V44.25C0.274414 45.2446 0.669502 46.1984 1.37276 46.9016C2.07603 47.6049 3.02985 48 4.02441 48H32.5244C33.0169 48 33.5045 47.903 33.9595 47.7145C34.4144 47.5261 34.8278 47.2499 35.1761 46.9016C35.5243 46.5534 35.8005 46.14 35.989 45.6851C36.1774 45.2301 36.2744 44.7425 36.2744 44.25V34.314L45.3434 25.245L46.8434 23.745C47.1225 23.4666 47.3441 23.1359 47.4953 22.7718C47.6465 22.4077 47.7245 22.0174 47.7248 21.6231C47.7251 21.2289 47.6476 20.8384 47.4969 20.4741C47.3462 20.1098 47.1251 19.7788 46.8464 19.5ZM25.7744 2.5605L33.7139 10.5H28.0244C27.4277 10.5 26.8554 10.2629 26.4334 9.84099C26.0115 9.41903 25.7744 8.84674 25.7744 8.25V2.5605ZM25.0499 10.5H7.02441C6.8255 10.5 6.63474 10.421 6.49408 10.2803C6.35343 10.1397 6.27441 9.94891 6.27441 9.75V6.75C6.27441 6.55109 6.35343 6.36032 6.49408 6.21967C6.63474 6.07902 6.8255 6 7.02441 6H24.2744V8.25C24.2791 9.06476 24.5516 9.85537 25.0499 10.5ZM34.7804 44.25C34.7804 44.8467 34.5434 45.419 34.1214 45.841C33.6994 46.2629 33.1272 46.5 32.5304 46.5H4.03041C3.43368 46.5 2.86138 46.2629 2.43942 45.841C2.01747 45.419 1.78041 44.8467 1.78041 44.25V3.75C1.78041 3.1543 2.01664 2.58291 2.4373 2.16113C2.85796 1.73934 3.42872 1.50159 4.02441 1.5H24.2744V4.5H7.02441C6.42768 4.5 5.85538 4.73705 5.43342 5.15901C5.01147 5.58097 4.77441 6.15326 4.77441 6.75V9.75C4.77441 10.3467 5.01147 10.919 5.43342 11.341C5.85538 11.7629 6.42768 12 7.02441 12H34.7744V27.3285L26.1629 35.94C26.1291 35.9806 26.0999 36.0249 26.0759 36.072C26.0609 36.096 26.0354 36.1095 26.0234 36.135L23.9024 40.377C23.842 40.5047 23.8194 40.6471 23.8375 40.7872C23.8556 40.9273 23.9135 41.0593 24.0044 41.1675L23.0714 42.1095C22.9946 42.1777 22.9326 42.261 22.8893 42.3541C22.846 42.4473 22.8223 42.5483 22.8197 42.651C22.8171 42.7537 22.8355 42.8558 22.874 42.9511C22.9125 43.0463 22.9701 43.1327 23.0433 43.2047C23.1165 43.2768 23.2037 43.333 23.2995 43.37C23.3954 43.407 23.4978 43.4239 23.6004 43.4196C23.703 43.4154 23.8037 43.3901 23.8962 43.3454C23.9886 43.3006 24.0709 43.2374 24.1379 43.1595L25.0454 42.2415L25.1024 42.2985C25.2136 42.4098 25.3571 42.4834 25.5124 42.5087C25.6677 42.534 25.8271 42.5098 25.9679 42.4395L30.2099 40.317C30.2354 40.305 30.2489 40.2795 30.2729 40.2645C30.32 40.2405 30.3643 40.2113 30.4049 40.1775L34.7744 35.8095L34.7804 44.25ZM26.9054 37.737L28.6154 39.447L25.7879 40.8615L25.5854 40.6575V40.6485H25.5764L25.4984 40.5705L26.9054 37.737ZM35.0054 33.471L29.8874 38.5875L27.7499 36.471L41.6279 22.593L43.7489 24.714L35.0054 33.471ZM45.7949 22.6815L44.8229 23.6535L42.7004 21.531L43.6724 20.559C43.8118 20.4196 43.9772 20.3091 44.1593 20.2337C44.3414 20.1582 44.5366 20.1194 44.7337 20.1194C44.9308 20.1194 45.1259 20.1582 45.308 20.2337C45.4901 20.3091 45.6555 20.4196 45.7949 20.559C45.9343 20.6984 46.0448 20.8638 46.1203 21.0459C46.1957 21.228 46.2345 21.4232 46.2345 21.6203C46.2345 21.8173 46.1957 22.0125 46.1203 22.1946C46.0448 22.3767 45.9343 22.5421 45.7949 22.6815ZM13.0244 24H31.0244C31.2233 24 31.4141 23.921 31.5547 23.7803C31.6954 23.6397 31.7744 23.4489 31.7744 23.25C31.7744 23.0511 31.6954 22.8603 31.5547 22.7197C31.4141 22.579 31.2233 22.5 31.0244 22.5H13.0244C12.8255 22.5 12.6347 22.579 12.4941 22.7197C12.3534 22.8603 12.2744 23.0511 12.2744 23.25C12.2744 23.4489 12.3534 23.6397 12.4941 23.7803C12.6347 23.921 12.8255 24 13.0244 24ZM13.0244 19.5H31.0244C31.2233 19.5 31.4141 19.421 31.5547 19.2803C31.6954 19.1397 31.7744 18.9489 31.7744 18.75C31.7744 18.5511 31.6954 18.3603 31.5547 18.2197C31.4141 18.079 31.2233 18 31.0244 18H13.0244C12.8255 18 12.6347 18.079 12.4941 18.2197C12.3534 18.3603 12.2744 18.5511 12.2744 18.75C12.2744 18.9489 12.3534 19.1397 12.4941 19.2803C12.6347 19.421 12.8255 19.5 13.0244 19.5ZM20.5244 41.8875C19.9467 41.9022 19.3798 41.729 18.9089 41.394C18.1982 40.9326 17.369 40.6871 16.5217 40.6871C15.6743 40.6871 14.8451 40.9326 14.1344 41.394C13.6635 41.729 13.0966 41.9022 12.5189 41.8875C11.9434 41.9032 11.3782 41.7321 10.9079 41.4C10.2051 40.9246 9.3728 40.6774 8.52441 40.692C8.3255 40.692 8.13474 40.771 7.99408 40.9117C7.85343 41.0523 7.77441 41.2431 7.77441 41.442C7.77441 41.6409 7.85343 41.8317 7.99408 41.9723C8.13474 42.113 8.3255 42.192 8.52441 42.192C9.10114 42.1778 9.66694 42.3509 10.1369 42.6855C10.8398 43.1609 11.672 43.4081 12.5204 43.3935C13.3695 43.4083 14.2027 43.1616 14.9069 42.687C15.384 42.3654 15.9463 42.1936 16.5217 42.1936C17.097 42.1936 17.6593 42.3654 18.1364 42.687C18.8407 43.1616 19.6738 43.4083 20.5229 43.3935C20.7218 43.3935 20.9126 43.3145 21.0532 43.1738C21.1939 43.0332 21.2729 42.8424 21.2729 42.6435C21.2729 42.4446 21.1939 42.2538 21.0532 42.1132C20.9126 41.9725 20.7218 41.8935 20.5229 41.8935L20.5244 41.8875ZM13.0244 16.5H31.0244C31.2233 16.5 31.4141 16.421 31.5547 16.2803C31.6954 16.1397 31.7744 15.9489 31.7744 15.75C31.7744 15.5511 31.6954 15.3603 31.5547 15.2197C31.4141 15.079 31.2233 15 31.0244 15H13.0244C12.8255 15 12.6347 15.079 12.4941 15.2197C12.3534 15.3603 12.2744 15.5511 12.2744 15.75C12.2744 15.9489 12.3534 16.1397 12.4941 16.2803C12.6347 16.421 12.8255 16.5 13.0244 16.5ZM13.0244 27H31.0244C31.2233 27 31.4141 26.921 31.5547 26.7803C31.6954 26.6397 31.7744 26.4489 31.7744 26.25C31.7744 26.0511 31.6954 25.8603 31.5547 25.7197C31.4141 25.579 31.2233 25.5 31.0244 25.5H13.0244C12.8255 25.5 12.6347 25.579 12.4941 25.7197C12.3534 25.8603 12.2744 26.0511 12.2744 26.25C12.2744 26.4489 12.3534 26.6397 12.4941 26.7803C12.6347 26.921 12.8255 27 13.0244 27ZM7.02441 27C7.46942 27 7.90444 26.868 8.27445 26.6208C8.64446 26.3736 8.93285 26.0222 9.10314 25.611C9.27344 25.1999 9.318 24.7475 9.23118 24.311C9.14436 23.8746 8.93007 23.4737 8.6154 23.159C8.30074 22.8443 7.89982 22.63 7.46337 22.5432C7.02691 22.4564 6.57451 22.501 6.16338 22.6713C5.75224 22.8416 5.40084 23.13 5.15361 23.5C4.90637 23.87 4.77441 24.305 4.77441 24.75C4.77441 25.3467 5.01147 25.919 5.43342 26.341C5.85538 26.7629 6.42768 27 7.02441 27ZM7.02441 24C7.17275 24 7.31775 24.044 7.44109 24.1264C7.56443 24.2088 7.66056 24.3259 7.71732 24.463C7.77409 24.6 7.78894 24.7508 7.76 24.8963C7.73106 25.0418 7.65963 25.1754 7.55474 25.2803C7.44985 25.3852 7.31622 25.4566 7.17073 25.4856C7.02525 25.5145 6.87445 25.4997 6.7374 25.4429C6.60036 25.3861 6.48322 25.29 6.40081 25.1667C6.3184 25.0433 6.27441 24.8983 6.27441 24.75C6.27441 24.5511 6.35343 24.3603 6.49408 24.2197C6.63474 24.079 6.8255 24 7.02441 24ZM9.27441 32.25C9.27441 31.805 9.14245 31.37 8.89522 31C8.64799 30.63 8.29659 30.3416 7.88545 30.1713C7.47432 30.001 7.02192 29.9564 6.58546 30.0432C6.149 30.13 5.74809 30.3443 5.43342 30.659C5.11876 30.9737 4.90446 31.3746 4.81765 31.811C4.73083 32.2475 4.77539 32.6999 4.94568 33.111C5.11598 33.5222 5.40437 33.8736 5.77438 34.1208C6.14439 34.368 6.57941 34.5 7.02441 34.5C7.62115 34.5 8.19345 34.2629 8.6154 33.841C9.03736 33.419 9.27441 32.8467 9.27441 32.25ZM7.02441 33C6.87608 33 6.73107 32.956 6.60774 32.8736C6.4844 32.7912 6.38827 32.6741 6.3315 32.537C6.27474 32.4 6.25989 32.2492 6.28883 32.1037C6.31776 31.9582 6.38919 31.8246 6.49408 31.7197C6.59897 31.6148 6.73261 31.5434 6.8781 31.5144C7.02358 31.4855 7.17438 31.5003 7.31143 31.5571C7.44847 31.6139 7.56561 31.71 7.64802 31.8333C7.73043 31.9567 7.77441 32.1017 7.77441 32.25C7.77441 32.4489 7.6954 32.6397 7.55474 32.7803C7.41409 32.921 7.22333 33 7.02441 33ZM13.0244 31.5H25.0244C25.2233 31.5 25.4141 31.421 25.5547 31.2803C25.6954 31.1397 25.7744 30.9489 25.7744 30.75C25.7744 30.5511 25.6954 30.3603 25.5547 30.2197C25.4141 30.079 25.2233 30 25.0244 30H13.0244C12.8255 30 12.6347 30.079 12.4941 30.2197C12.3534 30.3603 12.2744 30.5511 12.2744 30.75C12.2744 30.9489 12.3534 31.1397 12.4941 31.2803C12.6347 31.421 12.8255 31.5 13.0244 31.5ZM7.02441 19.5C7.46942 19.5 7.90444 19.368 8.27445 19.1208C8.64446 18.8736 8.93285 18.5222 9.10314 18.111C9.27344 17.6999 9.318 17.2475 9.23118 16.811C9.14436 16.3746 8.93007 15.9737 8.6154 15.659C8.30074 15.3443 7.89982 15.13 7.46337 15.0432C7.02691 14.9564 6.57451 15.001 6.16338 15.1713C5.75224 15.3416 5.40084 15.63 5.15361 16C4.90637 16.37 4.77441 16.805 4.77441 17.25C4.77441 17.8467 5.01147 18.419 5.43342 18.841C5.85538 19.2629 6.42768 19.5 7.02441 19.5ZM7.02441 16.5C7.17275 16.5 7.31775 16.544 7.44109 16.6264C7.56443 16.7088 7.66056 16.8259 7.71732 16.963C7.77409 17.1 7.78894 17.2508 7.76 17.3963C7.73106 17.5418 7.65963 17.6754 7.55474 17.7803C7.44985 17.8852 7.31622 17.9566 7.17073 17.9856C7.02525 18.0145 6.87445 17.9997 6.7374 17.9429C6.60036 17.8861 6.48322 17.79 6.40081 17.6667C6.3184 17.5433 6.27441 17.3983 6.27441 17.25C6.27441 17.0511 6.35343 16.8603 6.49408 16.7197C6.63474 16.579 6.8255 16.5 7.02441 16.5ZM13.0244 34.5H25.0244C25.2233 34.5 25.4141 34.421 25.5547 34.2803C25.6954 34.1397 25.7744 33.9489 25.7744 33.75C25.7744 33.5511 25.6954 33.3603 25.5547 33.2197C25.4141 33.079 25.2233 33 25.0244 33H13.0244C12.8255 33 12.6347 33.079 12.4941 33.2197C12.3534 33.3603 12.2744 33.5511 12.2744 33.75C12.2744 33.9489 12.3534 34.1397 12.4941 34.2803C12.6347 34.421 12.8255 34.5 13.0244 34.5Z" stroke="#424242" stroke-width="0.6" mask="url(#path-1-outside-1_551_798)"/>
</g>
<defs>
<clipPath id="clip0_551_798">
<rect width="48" height="48" fill="white"/>
</clipPath>
</defs>
</svg>
