<svg width="24" height="24" viewBox="0 0 24 24" fill="none" xmlns="http://www.w3.org/2000/svg">
<path d="M12.0013 9.5998C13.536 9.5998 14.668 8.5822 14.668 7.1998C14.668 5.8174 13.536 4.7998 12.0013 4.7998C10.468 4.7998 9.33464 5.8174 9.33464 7.1998C9.33464 8.5822 10.468 9.5998 12.0013 9.5998ZM12.0013 10.7998C9.05597 10.7998 6.66797 12.7342 6.66797 15.1198V15.583H17.3346V15.1198C17.3346 12.7342 14.9466 10.7998 12.0013 10.7998Z" fill="#C88719"/>
<path d="M21.3333 0H2.66667C1.196 0 0 1.0764 0 2.4V18C0 19.3236 1.196 20.4 2.66667 20.4H8L12 24L16 20.4H21.3333C22.804 20.4 24 19.3236 24 18V2.4C24 1.0764 22.804 0 21.3333 0ZM14.6667 18L12 20.4L9.33333 18H2.66667V2.4H21.3333L21.336 18H14.6667Z" fill="#C88719"/>
</svg>
