<svg width="15" height="14" viewBox="0 0 15 14" fill="none" xmlns="http://www.w3.org/2000/svg">
<path d="M10.2715 9.78907L9.35563 11.2936C6.97388 12.5786 4.45264 12.5259 3.49225 11.0732C2.56806 9.67516 3.41188 7.44551 5.37504 5.77413L5.93093 6.615C4.69443 7.78351 4.19168 9.25409 4.81581 10.1982C5.47509 11.1955 7.16535 11.2662 8.80025 10.4583L4.40572 3.81078L5.3061 2.28276L10.2693 9.79051L10.2715 9.78907ZM11.8999 4.75125L8.9646 5.89112L9.4165 5.01068C8.88647 5.03785 8.30743 5.18195 7.72735 5.43056L7.17147 4.5897C8.14573 4.10027 9.13814 3.83755 10.0315 3.80305L10.4599 2.96329L11.8999 4.75125Z" fill="black"/>
</svg>
