<svg width="60" height="60" viewBox="0 0 60 60" fill="none" xmlns="http://www.w3.org/2000/svg">
<path d="M56.25 39V39.75H57H58.5C58.9108 39.75 59.25 40.0892 59.25 40.5V43.5C59.25 43.9108 58.9108 44.25 58.5 44.25H54H53.25V45C53.25 49.5545 49.5545 53.25 45 53.25C40.4455 53.25 36.75 49.5545 36.75 45V44.25H36H24H23.25V45C23.25 49.5545 19.5545 53.25 15 53.25C10.4455 53.25 6.75 49.5545 6.75 45V33.75H20.25C21.0767 33.75 21.75 33.0767 21.75 32.25V30.75C21.75 29.9233 21.0767 29.25 20.25 29.25H0.75V27.75H23.25C24.0767 27.75 24.75 27.0767 24.75 26.25V24.75C24.75 23.9233 24.0767 23.25 23.25 23.25H3.75V21.75H26.25C27.0767 21.75 27.75 21.0767 27.75 20.25V18.75C27.75 17.9233 27.0767 17.25 26.25 17.25H0.75V15.75H6H6.75V15V10.5C6.75 8.42984 8.42984 6.75 10.5 6.75H34.5C36.5702 6.75 38.25 8.42984 38.25 10.5V15V15.75H39H43.1344C44.124 15.75 45.0776 16.1476 45.7822 16.8522L55.1478 26.2178C55.8524 26.9224 56.25 27.876 56.25 28.8656V39ZM52.5 30.75H53.25V30V28.8656V28.555L53.0303 28.3353L43.6647 18.9697L43.445 18.75H43.1344H39H38.25V19.5V30V30.75H39H52.5ZM9.75 45C9.75 47.8986 12.1014 50.25 15 50.25C17.8986 50.25 20.25 47.8986 20.25 45C20.25 42.1014 17.8986 39.75 15 39.75C12.1014 39.75 9.75 42.1014 9.75 45ZM39.75 45C39.75 47.8986 42.1014 50.25 45 50.25C47.8986 50.25 50.25 47.8986 50.25 45C50.25 42.1014 47.8986 39.75 45 39.75C42.1014 39.75 39.75 42.1014 39.75 45Z" fill="#FFB74D" stroke="black" stroke-width="1.5"/>
</svg>
