<svg width="48" height="48" viewBox="0 0 48 48" fill="none" xmlns="http://www.w3.org/2000/svg">
<path d="M14.1176 0C12.62 0 11.1836 0.594956 10.1246 1.65399C9.06554 2.71301 8.47059 4.14937 8.47059 5.64706V20.3492C9.39354 20.0879 10.3388 19.913 11.2941 19.8268V5.64706C11.2941 4.89821 11.5916 4.18004 12.1211 3.65052C12.6506 3.12101 13.3688 2.82353 14.1176 2.82353H33.8824C34.6312 2.82353 35.3494 3.12101 35.8789 3.65052C36.4084 4.18004 36.7059 4.89821 36.7059 5.64706V36.7059H28.1732C28.0868 37.6612 27.9119 38.6064 27.6508 39.5294H39.5294C41.776 39.5294 43.9305 38.637 45.519 37.0484C47.1076 35.4599 48 33.3054 48 31.0588V25.4118H39.5294V5.64706C39.5294 4.14937 38.9345 2.71301 37.8754 1.65399C36.8164 0.594956 35.38 0 33.8824 0H14.1176ZM39.5294 36.7059V28.2353H45.1765V31.0588C45.1765 32.5565 44.5815 33.9929 43.5225 35.0519C42.4635 36.1109 41.0271 36.7059 39.5294 36.7059ZM18.3529 8.47059C17.9785 8.47059 17.6194 8.61933 17.3547 8.88409C17.0899 9.14884 16.9412 9.50793 16.9412 9.88235C16.9412 10.2568 17.0899 10.6159 17.3547 10.8806C17.6194 11.1454 17.9785 11.2941 18.3529 11.2941H29.6471C30.0215 11.2941 30.3806 11.1454 30.6453 10.8806C30.9101 10.6159 31.0588 10.2568 31.0588 9.88235C31.0588 9.50793 30.9101 9.14884 30.6453 8.88409C30.3806 8.61933 30.0215 8.47059 29.6471 8.47059H18.3529ZM16.9412 15.5294C16.9412 15.155 17.0899 14.7959 17.3547 14.5311C17.6194 14.2664 17.9785 14.1176 18.3529 14.1176H29.6471C30.0215 14.1176 30.3806 14.2664 30.6453 14.5311C30.9101 14.7959 31.0588 15.155 31.0588 15.5294C31.0588 15.9038 30.9101 16.2629 30.6453 16.5277C30.3806 16.7924 30.0215 16.9412 29.6471 16.9412H18.3529C17.9785 16.9412 17.6194 16.7924 17.3547 16.5277C17.0899 16.2629 16.9412 15.9038 16.9412 15.5294ZM25.4118 35.2941C25.4118 38.6639 24.0731 41.8957 21.6903 44.2785C19.3075 46.6613 16.0757 48 12.7059 48C9.33607 48 6.10428 46.6613 3.72147 44.2785C1.33865 41.8957 0 38.6639 0 35.2941C0 31.9243 1.33865 28.6925 3.72147 26.3097C6.10428 23.9269 9.33607 22.5882 12.7059 22.5882C16.0757 22.5882 19.3075 23.9269 21.6903 26.3097C24.0731 28.6925 25.4118 31.9243 25.4118 35.2941V35.2941ZM14.1176 29.6471C14.1176 29.2726 13.9689 28.9135 13.7042 28.6488C13.4394 28.384 13.0803 28.2353 12.7059 28.2353C12.3315 28.2353 11.9724 28.384 11.7076 28.6488C11.4429 28.9135 11.2941 29.2726 11.2941 29.6471V33.8824H7.05882C6.6844 33.8824 6.32531 34.0311 6.06056 34.2958C5.7958 34.5606 5.64706 34.9197 5.64706 35.2941C5.64706 35.6685 5.7958 36.0276 6.06056 36.2924C6.32531 36.5571 6.6844 36.7059 7.05882 36.7059H11.2941V40.9412C11.2941 41.3156 11.4429 41.6747 11.7076 41.9394C11.9724 42.2042 12.3315 42.3529 12.7059 42.3529C13.0803 42.3529 13.4394 42.2042 13.7042 41.9394C13.9689 41.6747 14.1176 41.3156 14.1176 40.9412V36.7059H18.3529C18.7274 36.7059 19.0865 36.5571 19.3512 36.2924C19.616 36.0276 19.7647 35.6685 19.7647 35.2941C19.7647 34.9197 19.616 34.5606 19.3512 34.2958C19.0865 34.0311 18.7274 33.8824 18.3529 33.8824H14.1176V29.6471Z" fill="#424242"/>
</svg>
