<svg width="24" height="24" viewBox="0 0 24 24" fill="none" xmlns="http://www.w3.org/2000/svg">
<g clip-path="url(#clip0_1142_988)">
<path d="M20.824 3.46064C20.1947 2.78564 18.2682 3.9001 16.7705 5.28877C16.3627 5.66845 15.9971 6.05517 15.6701 6.44892L13.7787 4.55752C13.3603 4.13916 12.6853 4.13916 12.2705 4.55752L3.93144 12.8966C2.68691 14.1411 2.68691 16.1626 3.93144 17.4071L6.33262 19.8083C7.57715 21.0528 9.59511 21.0563 10.8432 19.8083L19.1822 11.4692C19.5971 11.0544 19.6006 10.3794 19.1822 9.96103L17.5475 8.32627C17.9377 8.0415 18.3279 7.72158 18.7041 7.37002C19.5514 6.58252 21.6115 4.31142 20.824 3.46064ZM18.915 11.202L10.576 19.5411C9.4791 20.638 7.69316 20.638 6.59629 19.5411L4.19512 17.1399C3.09824 16.0431 3.09824 14.2571 4.19512 13.1602L12.5342 4.8247C12.8049 4.554 13.2408 4.554 13.5115 4.8247L15.431 6.74423C15.1041 7.16963 14.851 7.57392 14.6893 7.93252C14.4748 7.96064 14.2744 8.05556 14.1197 8.21025C13.733 8.59697 13.733 9.22978 14.1197 9.6165C14.5064 10.0032 15.1393 10.0032 15.526 9.6165C15.9162 9.22978 15.9162 8.59697 15.526 8.21025C15.4029 8.0872 15.2518 8.00634 15.09 7.96064C15.2342 7.67236 15.4416 7.34892 15.6982 7.01142L18.9115 10.2247C19.1822 10.4954 19.1857 10.9313 18.915 11.202ZM14.6506 9.20166C14.7209 9.279 14.8404 9.28252 14.9143 9.20869C14.9916 9.13837 14.9951 9.01884 14.9213 8.94502C14.8228 8.83955 14.8334 8.61103 14.9424 8.30517C15.0584 8.32627 15.1709 8.38603 15.2623 8.47392C15.5049 8.7165 15.5049 9.10673 15.2623 9.34931C15.0197 9.59189 14.626 9.59189 14.3869 9.34931C14.1443 9.10673 14.1443 8.71298 14.3869 8.47392C14.4326 8.42822 14.4818 8.39658 14.5346 8.36845C14.4185 8.81494 14.524 9.06455 14.6506 9.20166ZM17.2768 8.05908L15.9373 6.71611C16.2572 6.32588 16.6228 5.93916 17.0271 5.56299C18.7709 3.94228 20.2545 3.39385 20.5498 3.71377C21.0666 4.27275 19.2314 6.36806 18.451 7.09228C18.0642 7.45088 17.6705 7.77431 17.2768 8.05908Z" fill="#C88719" stroke="#C88719"/>
<path d="M13.7682 13.7086L10.031 9.97144C9.82011 9.7605 9.44746 9.7605 9.23652 9.97144L5.07754 14.1269C4.85957 14.3449 4.85957 14.7035 5.07754 14.9214L8.81816 18.6621C9.03613 18.88 9.39472 18.88 9.61269 18.6621L13.7682 14.5066C13.8736 14.4011 13.9334 14.2605 13.9334 14.1093C13.9334 13.9582 13.8736 13.814 13.7682 13.7086ZM13.5045 14.2394L9.3455 18.3949C9.27519 18.4652 9.15214 18.4652 9.08183 18.3949L5.34121 14.6578C5.30605 14.6226 5.28496 14.5769 5.28496 14.5242C5.28496 14.475 5.30605 14.4257 5.34121 14.3906L9.49667 10.2351C9.53183 10.2 9.57753 10.1789 9.63027 10.1789C9.67949 10.1789 9.7287 10.2 9.76386 10.2351L13.5045 13.9757C13.5396 14.0109 13.5607 14.0566 13.5607 14.1093C13.5572 14.1586 13.5396 14.2043 13.5045 14.2394Z" fill="#C88719" stroke="#C88719"/>
<path d="M10.9626 12.7734C10.8888 12.6996 10.7692 12.6996 10.6989 12.7734L10.5407 12.9316C10.1575 12.6714 9.63018 12.7101 9.29268 13.0511C8.95166 13.3921 8.91299 13.916 9.17314 14.3027L8.31885 15.157C8.20283 14.9285 8.23799 14.6402 8.42783 14.4468C8.50166 14.373 8.50166 14.2535 8.42783 14.1832C8.354 14.1093 8.23447 14.1093 8.16416 14.1832C7.82314 14.5242 7.78447 15.048 8.04463 15.4347L7.88643 15.5929C7.8126 15.6667 7.8126 15.7863 7.88643 15.8566C7.96025 15.9304 8.07979 15.9304 8.1501 15.8566L8.3083 15.6984C8.69502 15.9621 9.22236 15.9164 9.55986 15.5789C9.89736 15.2414 9.93955 14.714 9.67939 14.3308L10.5337 13.4765C10.6497 13.705 10.6181 13.9933 10.4247 14.1867C10.3509 14.2605 10.3509 14.38 10.4247 14.4503C10.4985 14.5242 10.6181 14.5242 10.6884 14.4503C11.0259 14.1128 11.0681 13.5855 10.8079 13.2023L10.9661 13.0441C11.0364 12.9667 11.0364 12.8472 10.9626 12.7734ZM9.55635 13.3183C9.74971 13.1285 10.0345 13.0933 10.2665 13.2093L9.44736 14.0285C9.31728 13.7753 9.37705 13.4976 9.55635 13.3183ZM9.28916 15.3117C9.0958 15.505 8.80752 15.5402 8.579 15.4207L9.39814 14.6015C9.51768 14.8335 9.48252 15.1218 9.28916 15.3117Z" fill="#C88719"/>
</g>
<defs>
<clipPath id="clip0_1142_988">
<rect width="18" height="18" fill="white" transform="translate(3 3)"/>
</clipPath>
</defs>
</svg>
