<svg width="48" height="48" viewBox="0 0 48 48" fill="none" xmlns="http://www.w3.org/2000/svg">
<path d="M24 20C26.302 20 28 18.304 28 16C28 13.696 26.302 12 24 12C21.7 12 20 13.696 20 16C20 18.304 21.7 20 24 20ZM24 22C19.582 22 16 25.224 16 29.2V29.972H32V29.2C32 25.224 28.418 22 24 22Z" fill="#424242"/>
<path d="M38 4H10C7.794 4 6 5.794 6 8V34C6 36.206 7.794 38 10 38H18L24 44L30 38H38C40.206 38 42 36.206 42 34V8C42 5.794 40.206 4 38 4ZM28 34L24 38L20 34H10V8H38L38.004 34H28Z" fill="#424242"/>
</svg>
