<svg width="25" height="20" viewBox="0 0 25 20" fill="none" xmlns="http://www.w3.org/2000/svg">
<path d="M14.7866 4.84856C14.7866 3.50916 13.7637 2.42432 12.5007 2.42432C11.2378 2.42432 10.2148 3.50916 10.2148 4.84856C10.2148 6.18795 11.2378 7.2728 12.5007 7.2728C13.7637 7.2728 14.7866 6.18795 14.7866 4.84856ZM11.3578 4.84856C11.3578 4.18189 11.8721 3.63644 12.5007 3.63644C13.1293 3.63644 13.6437 4.18189 13.6437 4.84856C13.6437 5.51523 13.1293 6.06068 12.5007 6.06068C11.8721 6.06068 11.3578 5.51523 11.3578 4.84856Z" fill="#C88719"/>
<path d="M1.07158 20H23.9304C24.1304 20 24.3133 19.8909 24.4161 19.7091C24.519 19.5273 24.5304 19.3091 24.439 19.1212L19.8672 9.42424C19.7701 9.21818 19.5758 9.09091 19.3586 9.09091H15.7984C16.6441 7.10909 17.0727 5.67879 17.0727 4.84848C17.0727 2.17576 15.0212 0 12.501 0C9.9808 0 7.92922 2.17576 7.92922 4.84848C7.92922 5.67879 8.35782 7.10909 9.2036 9.09091H5.64334C5.42618 9.09091 5.23188 9.21818 5.13473 9.42424L0.562976 19.1212C0.471541 19.3091 0.48297 19.5333 0.585835 19.7091C0.688699 19.8909 0.871569 20 1.07158 20ZM9.07216 4.84848C9.07216 2.84242 10.6094 1.21212 12.501 1.21212C14.3925 1.21212 15.9298 2.84242 15.9298 4.84848C15.9298 6.23636 14.204 10.0364 12.501 13.3091C10.798 10.0364 9.07216 6.23636 9.07216 4.84848ZM5.99765 10.303H9.74078C10.8094 12.6424 11.9581 14.7576 12.0095 14.8485C12.2152 15.2242 12.7981 15.2242 12.9982 14.8485C13.0496 14.7576 14.1982 12.6424 15.2669 10.303H19.01L23.0103 18.7879H1.99736L5.99765 10.303Z" fill="#C88719"/>
</svg>
