<svg width="24" height="24" viewBox="0 0 24 24" fill="none" xmlns="http://www.w3.org/2000/svg">
<path d="M4.28879 12.2298C4.32337 12.2528 4.46862 12.1514 4.62078 11.9991C4.77295 11.847 4.87445 11.7017 4.85144 11.6672C4.4218 10.9831 3.94409 10.3304 3.42179 9.71406C3.78146 9.76247 4.14129 9.81089 4.50094 9.84772C5.01986 9.9053 5.58251 9.93988 6.02048 10.0115C6.9301 10.1565 7.79997 10.4877 8.57559 10.9845C9.92882 11.8602 10.9268 13.1882 11.3911 14.7315C11.4387 15.2296 11.4957 15.7284 11.5618 16.2279C10.789 16.263 10.0557 16.5797 9.50034 17.118C8.85921 17.7451 8.49614 18.603 8.4926 19.4999C8.48729 20.426 8.85355 21.3156 9.50948 21.9695C10.1738 22.6337 11.0762 23.0048 12.0155 23C12.955 22.9953 13.8536 22.6151 14.5111 21.944C15.1588 21.2849 15.5159 20.394 15.5026 19.47C15.4889 18.5746 15.1177 17.7221 14.4719 17.1019C13.9192 16.5787 13.1962 16.2724 12.4358 16.2395C12.5003 15.7345 12.5603 15.2318 12.6087 14.7292C13.0752 13.1811 14.0784 11.8502 15.4381 10.9754C16.2142 10.4774 17.0849 10.1453 17.9954 10C18.4336 9.92859 19.0008 9.89627 19.5174 9.83627C19.8702 9.79944 20.2206 9.75103 20.5735 9.70486C20.0532 10.3222 19.5768 10.9756 19.1484 11.6602C19.1299 11.6994 19.2337 11.8469 19.3791 11.9991C19.5243 12.1512 19.6812 12.2574 19.718 12.2297C20.8184 11.5526 21.8361 10.7494 22.7502 9.83626C22.9102 9.6759 23 9.4586 23 9.23214C23 9.00567 22.9102 8.78839 22.7502 8.62802C21.8327 7.71591 20.8129 6.91267 19.7111 6.23455C19.6765 6.21155 19.5312 6.31288 19.3791 6.4652C19.2269 6.61735 19.1254 6.765 19.1484 6.79717C19.5784 7.48929 20.0585 8.14903 20.585 8.77102C20.2276 8.72486 19.8655 8.67645 19.5058 8.63737C18.9618 8.56997 18.4145 8.53362 17.8663 8.5288C16.6688 8.54987 15.5015 8.90693 14.4973 9.55962C13.85 9.97923 13.2856 10.5147 12.8323 11.139C12.9038 8.55548 12.7797 5.96993 12.4611 3.40555C13.0809 3.93457 13.7383 4.41772 14.4282 4.85117C14.465 4.87192 14.6149 4.76592 14.7671 4.62052C14.9192 4.47528 15.023 4.32072 14.9977 4.28163C14.3199 3.1818 13.5166 2.16433 12.6041 1.24962C12.4441 1.08975 12.2272 1 12.0011 1C11.7749 1 11.5581 1.08975 11.398 1.24962C10.4837 2.16577 9.67966 3.18567 9.00212 4.28855C8.97912 4.32313 9.08046 4.46837 9.23279 4.62052C9.38495 4.77268 9.5302 4.87417 9.56478 4.85117C10.2569 4.41512 10.9166 3.92971 11.5388 3.39864C11.218 5.96178 11.0924 8.54552 11.1629 11.1276C10.7057 10.4971 10.1349 9.95749 9.47955 9.53656C8.47568 8.88854 7.30985 8.53551 6.1152 8.51748C5.56705 8.52278 5.01951 8.55977 4.47567 8.62813C4.12293 8.66496 3.77244 8.71338 3.41955 8.75954C3.94296 8.14274 4.42148 7.48937 4.85142 6.80422C4.86992 6.76739 4.76617 6.61748 4.62076 6.46533C4.47551 6.31317 4.31868 6.20943 4.28184 6.23468C3.18195 6.91246 2.16424 7.71554 1.24964 8.62815C1.08976 8.78802 1 9.00499 1 9.23115C1 9.45729 1.08976 9.67411 1.24964 9.834C2.16584 10.7484 3.18584 11.5523 4.28879 12.2298ZM14.0224 19.4494C13.9585 20.1283 13.5579 20.73 12.9558 21.0506C12.3537 21.3711 11.631 21.3679 11.0318 21.0417C10.4328 20.7157 10.0376 20.1105 9.98004 19.4309C9.84863 18.3934 10.6395 17.2335 11.8641 17.0261C11.9379 17.01 11.9978 16.8277 12.0002 16.6111C12.0002 16.8255 12.0624 17.0053 12.1362 17.0169H12.157C12.7163 17.1147 13.2183 17.4188 13.5638 17.8693C13.9095 18.32 14.073 18.8839 14.0224 19.4494Z" fill="#C88719"/>
</svg>
