<svg width="48" height="48" viewBox="0 0 48 48" fill="none" xmlns="http://www.w3.org/2000/svg">
<g clip-path="url(#clip0_551_792)">
<path d="M24.0046 39.5365C29.0988 39.534 33.2421 35.3892 33.2421 30.2945C33.2421 25.1982 29.0962 21.0523 24 21.0523C18.9037 21.0523 14.7578 25.1982 14.7578 30.2945C14.7578 35.3892 18.9013 39.534 23.9953 39.5365M24.0046 39.5365C24.0039 39.5365 24.0031 39.5365 24.0024 39.5365C24.0054 39.5365 24.0079 39.5363 24.0071 39.5364L24.007 39.5364C24.0068 39.5364 24.0059 39.5364 24.0046 39.5365ZM24.0046 39.5365C24.0034 39.5365 24.0017 39.5366 24 39.5366C23.9982 39.5366 23.9966 39.5365 23.9953 39.5365M23.9953 39.5365C23.9961 39.5365 23.9968 39.5365 23.9975 39.5365C23.9955 39.5365 23.9937 39.5364 23.993 39.5364M23.9953 39.5365C23.9942 39.5365 23.9934 39.5364 23.993 39.5364M23.993 39.5364C23.9927 39.5364 23.9926 39.5364 23.9928 39.5364L23.9929 39.5364C23.9929 39.5364 23.993 39.5364 23.993 39.5364ZM37.2466 16.1579H27.9786V12.7649H33.5331C34.0026 12.7649 34.3831 12.3843 34.3831 11.9149V9.96747H37.5563C40.332 9.96747 42.59 7.70945 42.59 4.93378V0.75C42.59 0.280584 42.2094 -0.1 41.74 -0.1H6.25984C5.79042 -0.1 5.40984 0.280584 5.40984 0.75V4.93378C5.40984 7.70945 7.66786 9.96747 10.4435 9.96747H13.6168V11.9149C13.6168 12.3843 13.9974 12.7649 14.4668 12.7649H20.0213V16.1579H10.7534C8.91215 16.1579 7.37962 17.4214 7.0284 19.2289L2.32871 43.4188C2.32871 43.4188 2.32871 43.4189 2.32871 43.4189C2.28025 43.668 2.34582 43.9258 2.5072 44.1216C2.66871 44.3175 2.90927 44.4309 3.16309 44.4309H6.29315V47.25C6.29315 47.7194 6.67374 48.1 7.14315 48.1H40.8569C41.3263 48.1 41.7069 47.7194 41.7069 47.25V44.4309H44.837C45.0908 44.4309 45.3313 44.3175 45.4928 44.1216L45.4929 44.1216C45.6542 43.9257 45.7197 43.668 45.6712 43.4189L40.9716 19.2289C40.6204 17.4215 39.0878 16.1579 37.2466 16.1579ZM21.7213 16.1579V12.7649H26.2786V16.1579H21.7213ZM26.893 26.1992L26.893 26.1993L24.9826 28.1096C24.6826 27.9741 24.3499 27.8985 24 27.8985C22.6788 27.8985 21.604 28.9732 21.604 30.2944C21.604 31.6156 22.6787 32.6903 24 32.6903C25.3212 32.6903 26.3959 31.6156 26.3959 30.2944C26.3959 29.9445 26.3203 29.6118 26.1847 29.3116L28.0951 27.4013L28.0951 27.4013C28.427 27.0692 28.427 26.5312 28.0951 26.1992L28.0951 26.1991C27.7631 25.8674 27.2249 25.8674 26.893 26.1992ZM7.10984 4.93378V1.6H40.89V4.93378C40.89 6.77183 39.3944 8.26747 37.5563 8.26747H10.4435C8.60548 8.26747 7.10984 6.77183 7.10984 4.93378ZM15.3168 9.96747H32.6831V11.0649H15.3168V9.96747ZM7.99306 46.4V44.4309H40.0068V46.4H7.99306ZM4.19404 42.7309L8.69716 19.5531C8.89119 18.5543 9.73597 17.8579 10.7533 17.8579H37.2466C38.264 17.8579 39.1087 18.5543 39.3027 19.553L43.8058 42.7309H4.19404ZM23.15 36.2651V37.7882C19.6692 37.396 16.8983 34.6251 16.5061 31.1444H18.0292C18.4986 31.1444 18.8792 30.7638 18.8792 30.2944C18.8792 29.825 18.4986 29.4444 18.0292 29.4444H16.5061C16.8984 25.9636 19.6692 23.1928 23.15 22.8005V24.3236C23.15 24.793 23.5306 25.1736 24 25.1736C24.4694 25.1736 24.85 24.793 24.85 24.3236V22.8005C28.3307 23.1928 31.1016 25.9636 31.4938 29.4444H29.9706C29.5012 29.4444 29.1206 29.825 29.1206 30.2944C29.1206 30.7638 29.5012 31.1444 29.9706 31.1444H31.4938C31.1016 34.6251 28.3307 37.396 24.85 37.7882V36.2651C24.85 35.7957 24.4694 35.4151 24 35.4151C23.5306 35.4151 23.15 35.7957 23.15 36.2651ZM24 30.9904C23.6164 30.9904 23.304 30.6781 23.304 30.2945C23.304 29.9109 23.6163 29.5986 24 29.5986C24.3836 29.5986 24.6959 29.911 24.6959 30.2945C24.6959 30.6781 24.3836 30.9904 24 30.9904Z" fill="#424242" stroke="#424242" stroke-width="0.2"/>
</g>
<defs>
<clipPath id="clip0_551_792">
<rect width="48" height="48" fill="white"/>
</clipPath>
</defs>
</svg>
