<svg width="24" height="24" viewBox="0 0 24 24" fill="none" xmlns="http://www.w3.org/2000/svg">
<path d="M21.2445 6.7777C21.2445 4.7233 19.5693 3.0481 17.5149 3.0481C15.4653 3.0481 13.7997 4.6993 13.7805 6.7393H5.52928C5.06848 6.7393 4.69408 7.1137 4.69408 7.5745V15.8689C4.69408 15.9841 4.71808 16.0897 4.75648 16.1857H4.06528C3.34528 16.1857 2.75488 16.8385 2.75488 17.6449V17.9953C2.75488 18.9361 3.51808 19.7041 4.46368 19.7041H5.13088V20.1889C5.13088 20.6113 5.47168 20.9521 5.89408 20.9521H7.98688C8.40929 20.9521 8.75009 20.6113 8.75009 20.1889V19.7041H14.7165V20.1889C14.7165 20.6113 15.0573 20.9521 15.4797 20.9521H17.5725C17.9949 20.9521 18.3357 20.6113 18.3357 20.1889V19.7041H18.9933C19.9341 19.7041 20.7021 18.9409 20.7021 17.9953V17.6449C20.7021 16.8385 20.1069 16.1857 19.3773 16.1857H18.4941V10.3633C20.1021 9.9265 21.2445 8.4721 21.2445 6.7777ZM17.2269 3.8545V4.0657C17.2269 4.2721 17.3949 4.4401 17.6013 4.4401C17.8077 4.4401 17.9757 4.2721 17.9757 4.0657V3.8737C19.2573 4.0753 20.2557 5.1025 20.4285 6.3937H20.2653C20.0589 6.3937 19.8909 6.5617 19.8909 6.7681C19.8909 6.9745 20.0589 7.1425 20.2653 7.1425H20.4333C20.2797 8.4145 19.3245 9.4609 18.0333 9.6913C18.0045 9.6961 17.9661 9.6961 17.9373 9.7009V9.4321C17.9373 9.2257 17.7693 9.0577 17.5629 9.0577C17.3565 9.0577 17.1885 9.2257 17.1885 9.4321V9.7105C17.1213 9.7009 17.0493 9.7057 16.9869 9.6913C16.5741 9.6097 16.1997 9.4609 15.8685 9.2353C15.1437 8.7601 14.6733 7.9921 14.5773 7.1041H14.8989C15.1053 7.1041 15.2733 6.9361 15.2733 6.7297C15.2733 6.5233 15.1053 6.3553 14.8989 6.3553H14.5965C14.7885 5.0209 15.8733 3.9841 17.2269 3.8545ZM17.7261 10.5073V16.0225H17.3037V10.5073C17.3517 10.5121 17.4045 10.5073 17.4573 10.5073C17.4765 10.5073 17.4957 10.5121 17.5149 10.5121C17.5389 10.5121 17.5533 10.5073 17.5725 10.5073C17.6253 10.5073 17.6733 10.5073 17.7261 10.5073ZM11.5293 7.5409V10.0369L9.31169 10.0849V7.5409H11.5293ZM5.46688 7.5745C5.46688 7.5409 5.49088 7.5169 5.52448 7.5169H8.52929V10.0849C8.52929 10.4881 8.85569 10.8145 9.25889 10.8145H11.5773C11.9805 10.8145 12.3069 10.4881 12.3069 10.0849V7.5169H13.8573C13.8573 7.5265 13.8621 7.5313 13.8621 7.5409C13.9005 7.7377 13.9629 7.9297 14.0301 8.1169C14.0445 8.1553 14.0589 8.1889 14.0733 8.2225C14.1501 8.4097 14.2413 8.5873 14.3469 8.7553C14.3565 8.7745 14.3709 8.7889 14.3805 8.8033C14.4861 8.9713 14.6109 9.1249 14.7405 9.2737C14.7549 9.2881 14.7645 9.3025 14.7789 9.3169C14.9181 9.4657 15.0669 9.6001 15.2301 9.7201C15.2445 9.7297 15.2589 9.7489 15.2733 9.7585V15.8689C15.2733 15.9025 15.2493 15.9265 15.2157 15.9265H5.52928C5.49568 15.9265 5.47168 15.9025 5.47168 15.8689V7.5745H5.46688ZM7.98688 20.1745L5.90368 20.1889V19.7041H7.97729L7.98688 20.1745ZM17.5773 20.1745L15.4941 20.1889V19.7041H17.5677L17.5773 20.1745ZM19.9293 17.6449V17.9953C19.9293 18.5089 19.5117 18.9265 18.9981 18.9265H18.3405H14.7165H8.75009H5.12608H4.46368C3.95008 18.9265 3.53248 18.5089 3.53248 17.9953V17.6449C3.53248 17.2705 3.77248 16.9633 4.06528 16.9633H19.3821C19.6749 16.9633 19.9293 17.2849 19.9293 17.6449ZM15.9837 16.1905C16.0269 16.0945 16.0461 15.9841 16.0461 15.8737V10.2049C16.1997 10.2721 16.3629 10.3153 16.5261 10.3585V16.1905H15.9837V16.1905Z" fill="#C88719" stroke="#C88719" stroke-width="0.2"/>
<path d="M17.3711 7.4833C17.4143 7.4929 17.4575 7.4977 17.5103 7.4977L17.6399 7.4881C17.6495 7.4881 17.6543 7.4833 17.6639 7.4785L18.8879 8.70251C18.8879 8.70251 19.0655 8.83211 19.3487 8.66411C19.6319 8.50091 19.4351 8.15051 19.4351 8.15051L18.2015 6.9169C18.2111 6.8689 18.2255 6.8257 18.2255 6.7777C18.2255 6.3841 17.9039 6.0625 17.5103 6.0625C17.1167 6.0625 16.7951 6.3841 16.7999 6.8497C16.8191 7.0657 16.9391 7.2577 17.1119 7.3681C17.1887 7.4257 17.2751 7.4593 17.3711 7.4833ZM17.5103 6.7201V6.7345L17.4575 6.7873C17.4575 6.7825 17.4527 6.7825 17.4527 6.7825C17.4479 6.7537 17.4623 6.7249 17.5103 6.7201Z" fill="#C88719"/>
</svg>
